# Blender 5.1.2
# www.blender.org
mtllib room start.mtl
o floor
v -16.000000 0.000000 16.000000
v 16.000000 0.000000 16.000000
v -16.000000 0.000000 -16.000000
v 16.000000 0.000000 -16.000000
vn -0.0000 1.0000 -0.0000
vt 0.000000 0.000000
vt 1.000000 0.000000
vt 1.000000 1.000000
vt 0.000000 1.000000
s 0
usemtl Material.001
f 1/1/1 2/2/1 4/3/1 3/4/1
o wall
v -16.000000 0.000000 15.999999
v 16.000000 0.000000 15.999999
v -16.000000 8.138584 15.999999
v 16.000000 8.138584 15.999999
v 1.000000 0.000000 15.999999
v -1.000000 0.000000 15.999999
v 0.000000 8.138584 15.999999
v 0.000000 2.036527 15.999999
v -1.000000 1.536527 15.999999
v 1.000000 1.536527 15.999999
v 1.000000 1.536527 15.998078
v 0.985712 1.527697 15.983789
v -0.985712 1.527697 15.983789
v -1.000000 1.536527 15.998078
v 0.000000 2.036527 15.998078
v 0.000000 2.020552 15.983789
v 1.000000 0.000000 15.998078
v 0.985712 0.000000 15.983789
v -0.985712 0.000000 15.983789
v -1.000000 0.000000 15.998078
v 0.000000 1.985141 15.998078
v 0.000000 2.001116 15.983789
v -0.968327 1.516952 15.983789
v -0.954039 1.508122 15.998078
v 0.968327 0.000000 15.983789
v 0.954039 0.000000 15.998078
v 0.954039 1.508122 15.998078
v 0.968327 1.516952 15.983789
v -0.954039 0.000000 15.998078
v -0.968327 0.000000 15.983789
v 1.021270 0.000000 15.999999
v -1.021270 0.000000 15.999999
v 0.000000 2.045180 15.999999
v 1.021270 1.545889 15.999999
v -1.021270 1.545889 15.999999
v 14.057891 0.000000 15.999999
v 14.057606 7.213264 15.992872
v 0.000000 7.419053 15.977810
v -14.057891 0.000000 15.999999
v 0.000000 7.278000 15.992872
v -14.057606 7.213264 15.992872
v 14.057891 8.138584 15.999999
v -14.057891 8.138584 15.999999
v -14.057891 7.354316 15.977810
v 0.000000 7.278000 15.999999
v 0.000000 7.419053 15.999999
v 14.057606 7.213264 15.999999
v 14.057891 7.354316 15.996781
v -14.057891 7.354316 15.996781
v -14.057606 7.213264 15.999999
v 15.996073 7.354317 15.996781
v 16.000000 7.213265 15.999999
v -16.000000 7.213264 15.999999
v -15.992264 7.354316 15.996781
v 14.057891 7.354316 15.977810
v 15.994902 7.213265 15.992872
v 15.992267 7.354317 15.977810
v -15.973402 7.354316 15.977810
v -15.993201 7.213264 15.992872
v 0.000000 7.419053 15.974592
v -14.057891 7.354316 15.974592
v -15.974740 7.354316 15.974592
v 14.057891 7.354316 15.974592
v 15.994903 7.354317 15.974592
v 0.000000 7.419053 15.996781
v -16.000000 7.354316 15.999999
v -14.057891 7.354316 15.999999
v 14.057891 7.354316 15.999999
v 0.000000 7.414938 15.977810
v 16.000000 7.354317 15.999999
v 0.000000 7.414938 15.996781
v -14.057891 7.350201 15.996781
v -14.057891 7.350201 15.977810
v 14.057891 7.350201 15.996781
v 14.057891 7.350201 15.977810
v -15.973402 7.350201 15.977810
v 15.992267 7.350203 15.977810
v -15.992264 7.350201 15.996781
v 15.996073 7.350203 15.996781
v -13.993618 0.000000 15.999999
v 13.993618 0.000000 15.999999
v 0.000000 7.252202 15.999999
v 13.993334 7.185323 15.999999
v -13.993334 7.185323 15.999999
v -14.057891 7.370431 15.999999
v 0.000000 7.433837 15.999999
v 14.057891 7.370431 15.999999
v 16.000000 7.370432 15.999999
v -16.000000 7.370431 15.999999
v 14.057607 7.185324 15.999999
v 16.000000 7.185325 15.999999
v -14.057607 7.185323 15.999999
v -16.000000 7.185324 15.999999
vn -0.0000 -0.0000 -1.0000
vn 0.7071 -0.0000 -0.7071
vn 0.4529 0.2799 -0.8465
vn -0.0000 0.5682 -0.8229
vn -0.4529 0.2799 -0.8465
vn -0.0000 -0.2589 -0.9659
vn -0.0000 -0.6667 -0.7454
vn 0.5512 -0.3406 -0.7617
vn 0.1960 -0.1211 -0.9731
vn 0.3761 0.2325 -0.8969
vn 0.7890 0.4876 -0.3738
vn 0.9239 -0.0000 -0.3827
vn 0.3827 -0.0000 -0.9239
vn -0.3827 -0.0000 -0.9239
vn -0.9239 -0.0000 -0.3827
vn -0.7890 0.4876 -0.3738
vn -0.3761 0.2325 -0.8969
vn -0.0000 0.4412 -0.8974
vn -0.0000 0.9289 -0.3703
vn -0.1960 -0.1211 -0.9731
vn -0.5512 -0.3406 -0.7617
vn -0.7071 -0.0000 -0.7071
vn 0.9541 -0.0194 -0.2990
vn -0.0017 -0.7516 -0.6596
vn 0.0015 0.6595 -0.7517
vn -0.0000 0.7092 -0.7050
vn -0.0000 -0.8381 -0.5455
vn -0.0000 -0.7503 -0.6611
vn -0.0000 0.6613 -0.7501
vn 0.0017 -0.7516 -0.6596
vn -0.0015 0.6595 -0.7517
vn 0.0016 0.7066 -0.7076
vn -0.0000 0.7081 -0.7061
vn -0.3004 0.8805 0.3667
vn -0.6338 -0.0000 0.7735
vn -0.7735 -0.0000 -0.6338
vn -0.2907 0.9267 -0.2381
vn -0.0000 -0.4579 -0.8890
vn -0.0000 -0.8696 -0.4938
vn 0.0016 -0.7066 -0.7076
vn -0.0000 -0.7081 -0.7061
vn -0.7123 0.0011 -0.7019
vn -0.0000 0.7848 -0.6197
vn -0.0016 -0.7066 -0.7076
vn -0.0000 -0.5174 -0.8557
vn -0.0000 0.7081 0.7061
vn -0.0000 -0.0000 1.0000
vn 0.0016 0.7066 0.7076
vn -0.0016 0.7066 -0.7076
vn -0.0000 0.7061 -0.7081
vn -0.0016 0.7076 -0.7066
vn 0.0016 0.7076 -0.7066
vn -0.0000 0.4485 -0.8938
vn -0.0016 0.7066 0.7076
vn 0.2280 0.8046 0.5483
vn 0.1980 0.9767 -0.0824
vn -0.0000 0.6581 -0.7530
vn 0.9233 -0.0000 -0.3840
vn 0.3840 -0.0000 0.9233
vt 0.531915 0.048309
vt 0.531915 0.000000
vt 0.531250 0.000000
vt 0.531250 0.048016
vt 0.468085 0.048309
vt 0.500000 0.063912
vt 0.500000 0.063641
vt 0.468750 0.048016
vt 0.500000 0.062535
vt 0.500000 0.062036
vt 0.470186 0.047129
vt 0.469740 0.047405
vt 0.530804 0.047741
vt 0.530804 0.000000
vt 0.469197 0.000000
vt 0.468750 0.000000
vt 0.469196 0.047741
vt 0.500000 0.063142
vt 0.530260 0.047405
vt 0.529814 0.047129
vt 0.470186 0.000000
vt 0.469740 0.000000
vt 0.530260 0.000000
vt 0.529814 0.000000
vt 0.000000 0.000000
vt 0.939300 0.225415
vt 0.939309 0.229822
vt 0.999841 0.229822
vt 0.999841 0.225415
vt 0.500000 0.227438
vt 0.500000 0.231845
vt 0.468085 0.000000
vt 0.060700 0.225415
vt 0.060691 0.229822
vt 0.500000 0.231845
vt 0.999758 0.229822
vt 0.999877 0.229822
vt 0.000000 0.225414
vt 0.000212 0.225414
vt 0.500000 0.227438
vt 0.000789 0.229822
vt 1.000000 0.225415
vt 0.060691 0.230326
vt 0.500000 0.232307
vt 0.500000 0.226631
vt 0.937292 0.224541
vt 0.062708 0.224541
vt 0.939309 0.230326
vt 0.937301 0.000000
vt 1.000000 0.224541
vt 0.939300 0.224541
vt 0.939309 0.254331
vt 1.000000 0.254331
vt 1.000000 0.230326
vt 0.062699 0.000000
vt 0.060691 0.000000
vt 0.060700 0.224541
vt 0.000000 0.230326
vt 0.000000 0.229822
vt 0.000000 0.224541
vt 0.000831 0.229822
vt 0.000242 0.229822
vt 1.000000 0.229822
vt 0.000000 0.254331
vt 0.060691 0.254331
vt 0.500000 0.254331
vt 0.939309 0.000000
vt 1.000000 0.000000
s 1
usemtl Material.001
f 38/5/2 35/6/2 9/7/3 14/8/4
f 39/9/2 37/10/2 12/11/5 13/12/6
f 26/13/7 25/14/8 28/15/9 27/16/10
f 16/17/11 15/8/12 21/7/13 22/18/14
f 23/19/15 24/20/16 18/12/17 17/21/18
f 15/8/12 16/17/11 20/22/19 19/11/20
f 19/11/20 20/22/19 17/21/18 18/12/17
f 32/23/21 31/24/22 25/14/8 26/13/7
f 33/25/3 34/26/14 27/16/10 28/15/9
f 31/24/22 32/23/21 29/27/15 30/28/23
f 9/7/3 21/7/13 15/8/12 14/8/4
f 26/13/7 20/22/19 16/17/11 32/23/21
f 32/23/21 16/17/11 22/18/14 29/27/15
f 14/8/4 15/8/12 19/11/20 12/11/5
f 13/12/6 18/12/17 24/20/16 10/20/23
f 34/26/14 23/19/15 17/21/18 27/16/10
f 12/11/5 19/11/20 18/12/17 13/12/6
f 27/16/10 17/21/18 20/22/19 26/13/7
f 37/10/2 38/5/2 14/8/4 12/11/5
s 0
f 56/29/24 60/29/24 68/29/24 74/29/24
s 1
f 41/30/25 67/31/26 68/32/27 60/33/28
f 44/34/29 64/35/30 67/31/26 41/30/25
f 13/12/6 10/20/23 36/36/2 39/9/2
f 45/37/31 65/38/32 64/35/30 44/34/29
f 52/31/33 78/31/2 75/39/2 69/39/34
f 61/40/35 81/40/36 83/41/37 55/41/38
f 57/42/39 63/43/40 45/37/31 54/37/41
f 54/37/41 45/37/31 44/34/29 49/44/42
s 0
f 70/29/43 66/29/43 63/29/43 57/29/43
s 1
f 65/38/32 45/37/31 63/43/40 66/45/44
f 49/44/42 44/34/29 41/30/25 51/30/45
f 51/30/45 41/30/25 60/33/28 56/46/46
f 42/35/47 73/35/48 79/31/48 59/31/49
f 69/39/34 75/39/2 76/38/2 53/38/50
f 89/47/2 90/48/2 50/35/51 71/38/52
f 86/49/2 87/50/2 38/5/2 37/10/2
f 88/51/2 86/49/2 37/10/2 39/9/2
f 90/48/2 91/52/2 72/31/53 50/35/51
f 87/50/2 85/53/2 35/6/2 38/5/2
f 56/46/46 95/54/2 94/55/2 51/30/45
f 91/52/2 46/56/2 8/57/2 92/58/2
f 88/51/2 84/59/2 43/60/2 96/61/2
f 93/62/2 89/47/2 71/38/52 70/63/54
f 57/42/39 54/37/41 96/61/2 97/64/2
f 42/35/47 64/35/30 65/38/32 48/38/55
f 48/38/55 65/38/32 66/45/44 62/65/56
f 59/31/49 67/31/26 64/35/30 42/35/47
f 61/40/35 68/32/27 67/31/26 59/31/49
f 62/65/56 66/45/44 70/63/54 58/66/57
f 53/38/50 71/38/52 50/35/51 69/39/34
f 69/39/34 50/35/51 72/31/53 52/31/33
f 52/31/33 72/31/53 74/67/58 55/41/38
f 58/66/57 70/63/54 71/38/52 53/38/50
f 55/41/38 74/67/58 68/32/27 61/40/35
f 59/31/49 79/31/48 81/40/36 61/40/35
f 48/38/55 77/38/48 73/35/48 42/35/47
f 55/41/38 83/41/37 78/31/2 52/31/33
f 58/66/57 82/66/59 80/65/60 62/65/56
f 62/65/56 80/65/60 77/38/48 48/38/55
f 53/38/50 76/38/2 82/66/59 58/66/57
f 39/9/2 36/36/2 84/59/2 88/51/2
f 51/30/45 94/55/2 87/50/2
f 54/37/41 49/44/42 86/49/2 88/51/2
f 49/44/42 51/30/45 87/50/2 86/49/2
f 7/68/2 47/69/2 89/47/2 93/62/2
f 72/31/53 91/52/2 92/58/2 74/67/58
f 11/70/2 46/56/2 91/52/2 90/48/2
f 47/69/2 11/70/2 90/48/2 89/47/2
f 94/55/2 40/71/2 85/53/2 87/50/2
f 95/54/2 6/72/2 40/71/2 94/55/2
f 96/61/2 43/60/2 5/29/2 97/64/2
f 96/61/2 54/37/41 88/51/2
o floor.001
v -16.000000 8.138584 16.000000
v 16.000000 8.138584 16.000000
v -16.000000 8.138584 -16.000000
v 16.000000 8.138584 -16.000000
vn -0.0000 -1.0000 -0.0000
vt 0.000000 0.000000
vt 0.000000 1.000000
vt 1.000000 1.000000
vt 1.000000 0.000000
s 0
usemtl Material.001
f 98/73/61 100/74/61 101/75/61 99/76/61
o light.001
v 0.000000 7.414938 15.977810
v 0.000000 7.414938 15.996781
v -14.057891 7.350201 15.996781
v -14.057891 7.350201 15.977810
v 14.057891 7.350201 15.996781
v 14.057891 7.350201 15.977810
v -15.973402 7.350201 15.977810
v 15.992267 7.350203 15.977810
v -15.992264 7.350201 15.996781
v 15.996073 7.350203 15.996781
vn -0.0000 1.0000 -0.0000
vn -0.0023 1.0000 -0.0000
vn 0.0023 1.0000 -0.0000
vt 0.939309 0.229822
vt 0.500000 0.231845
vt 0.500000 0.231845
vt 0.999877 0.229822
vt 0.999758 0.229822
vt 0.060691 0.229822
vt 0.000831 0.229822
vt 0.000242 0.229822
s 1
usemtl light
f 106/77/64 107/77/64 102/78/62 103/79/62
f 111/80/62 109/81/62 107/77/64 106/77/64
f 104/82/63 105/82/63 108/83/62 110/84/62
f 103/79/62 102/78/62 105/82/63 104/82/63
o wall.001
v -16.000000 0.000000 -16.000000
v 16.000000 0.000000 -16.000000
v -16.000000 8.138584 -16.000000
v 16.000000 8.138584 -16.000000
v 1.000000 0.000000 -16.000000
v -1.000000 0.000000 -16.000000
v 0.000000 8.138584 -16.000000
v 0.000000 2.036527 -16.000000
v -1.000000 1.536527 -16.000000
v 1.000000 1.536527 -16.000000
v 1.000000 1.536527 -15.998079
v 0.985712 1.527697 -15.983790
v -0.985712 1.527697 -15.983790
v -1.000000 1.536527 -15.998079
v 0.000000 2.036527 -15.998079
v 0.000000 2.020552 -15.983790
v 1.000000 0.000000 -15.998079
v 0.985712 0.000000 -15.983790
v -0.985712 0.000000 -15.983790
v -1.000000 0.000000 -15.998079
v 0.000000 1.985141 -15.998079
v 0.000000 2.001116 -15.983790
v -0.968327 1.516952 -15.983790
v -0.954039 1.508122 -15.998079
v 0.968327 0.000000 -15.983790
v 0.954039 0.000000 -15.998079
v 0.954039 1.508122 -15.998079
v 0.968327 1.516952 -15.983790
v -0.954039 0.000000 -15.998079
v -0.968327 0.000000 -15.983790
v 1.021270 0.000000 -16.000000
v -1.021270 0.000000 -16.000000
v 0.000000 2.045180 -16.000000
v 1.021270 1.545889 -16.000000
v -1.021270 1.545889 -16.000000
v 14.057891 0.000000 -16.000000
v 14.057606 7.213264 -15.992873
v 0.000000 7.419053 -15.977811
v -14.057891 0.000000 -16.000000
v 0.000000 7.278000 -15.992873
v -14.057606 7.213264 -15.992873
v 14.057891 8.138584 -16.000000
v -14.057891 8.138584 -16.000000
v -14.057891 7.354316 -15.977811
v 0.000000 7.278000 -16.000000
v 0.000000 7.419053 -16.000000
v 14.057606 7.213264 -16.000000
v 14.057891 7.354316 -15.996782
v -14.057891 7.354316 -15.996782
v -14.057606 7.213264 -16.000000
v 15.996073 7.354317 -15.996782
v 16.000000 7.213265 -16.000000
v -16.000000 7.213264 -16.000000
v -15.992264 7.354316 -15.996782
v 14.057891 7.354316 -15.977811
v 15.994902 7.213265 -15.992873
v 15.992267 7.354317 -15.977811
v -15.973402 7.354316 -15.977811
v -15.993201 7.213264 -15.992873
v 0.000000 7.419053 -15.974593
v -14.057891 7.354316 -15.974593
v -15.974740 7.354316 -15.974593
v 14.057891 7.354316 -15.974593
v 15.994903 7.354317 -15.974593
v 0.000000 7.419053 -15.996782
v -16.000000 7.354316 -16.000000
v -14.057891 7.354316 -16.000000
v 14.057891 7.354316 -16.000000
v 0.000000 7.414938 -15.977811
v 16.000000 7.354317 -16.000000
v 0.000000 7.414938 -15.996782
v -14.057891 7.350201 -15.996782
v -14.057891 7.350201 -15.977811
v 14.057891 7.350201 -15.996782
v 14.057891 7.350201 -15.977811
v -15.973402 7.350201 -15.977811
v 15.992267 7.350203 -15.977811
v -15.992264 7.350201 -15.996782
v 15.996073 7.350203 -15.996782
v -13.993618 0.000000 -16.000000
v 13.993618 0.000000 -16.000000
v 0.000000 7.252202 -16.000000
v 13.993334 7.185323 -16.000000
v -13.993334 7.185323 -16.000000
v -14.057891 7.370431 -16.000000
v 0.000000 7.433837 -16.000000
v 14.057891 7.370431 -16.000000
v 16.000000 7.370432 -16.000000
v -16.000000 7.370431 -16.000000
v 14.057607 7.185324 -16.000000
v 16.000000 7.185325 -16.000000
v -14.057607 7.185323 -16.000000
v -16.000000 7.185324 -16.000000
vn -0.0000 -0.0000 1.0000
vn 0.7071 -0.0000 0.7071
vn 0.4529 0.2799 0.8465
vn -0.0000 0.5682 0.8229
vn -0.4529 0.2799 0.8465
vn -0.0000 -0.2589 0.9659
vn -0.0000 -0.6667 0.7454
vn 0.5512 -0.3406 0.7617
vn 0.1960 -0.1211 0.9731
vn 0.3761 0.2325 0.8969
vn 0.7890 0.4876 0.3738
vn 0.9239 -0.0000 0.3827
vn 0.3827 -0.0000 0.9239
vn -0.3827 -0.0000 0.9239
vn -0.9239 -0.0000 0.3827
vn -0.7890 0.4876 0.3738
vn -0.3761 0.2325 0.8969
vn -0.0000 0.4412 0.8974
vn -0.0000 0.9289 0.3703
vn -0.1960 -0.1211 0.9731
vn -0.5512 -0.3406 0.7617
vn -0.7071 -0.0000 0.7071
vn 0.9541 -0.0194 0.2990
vn -0.0017 -0.7516 0.6596
vn 0.0015 0.6595 0.7517
vn -0.0000 0.7092 0.7050
vn -0.0000 -0.8381 0.5455
vn -0.0000 -0.7503 0.6611
vn -0.0000 0.6613 0.7501
vn 0.0017 -0.7516 0.6596
vn -0.0015 0.6595 0.7517
vn 0.0016 0.7066 0.7076
vn -0.0000 0.7081 0.7061
vn -0.3004 0.8805 -0.3667
vn -0.6338 -0.0000 -0.7735
vn -0.7735 -0.0000 0.6338
vn -0.2907 0.9267 0.2381
vn -0.0000 -0.4579 0.8890
vn -0.0000 -0.8696 0.4938
vn 0.0016 -0.7066 0.7076
vn -0.0000 -0.7081 0.7061
vn -0.7123 0.0011 0.7019
vn -0.0000 0.7848 0.6197
vn -0.0016 -0.7066 0.7076
vn -0.0000 -0.5174 0.8557
vn -0.0000 0.7081 -0.7061
vn -0.0000 -0.0000 -1.0000
vn 0.0016 0.7066 -0.7076
vn -0.0016 0.7066 0.7076
vn -0.0000 0.7061 0.7081
vn -0.0016 0.7076 0.7066
vn 0.0016 0.7076 0.7066
vn -0.0000 0.4485 0.8938
vn -0.0016 0.7066 -0.7076
vn 0.2280 0.8046 -0.5483
vn 0.1980 0.9767 0.0824
vn -0.0000 0.6581 0.7530
vn 0.9233 -0.0000 0.3840
vn 0.3840 -0.0000 -0.9233
vt 0.531915 0.048309
vt 0.531915 0.000000
vt 0.531250 0.000000
vt 0.531250 0.048016
vt 0.468085 0.048309
vt 0.500000 0.063912
vt 0.500000 0.063641
vt 0.468750 0.048016
vt 0.500000 0.062535
vt 0.500000 0.062036
vt 0.470186 0.047129
vt 0.469740 0.047405
vt 0.530804 0.047741
vt 0.530804 0.000000
vt 0.469197 0.000000
vt 0.468750 0.000000
vt 0.469196 0.047741
vt 0.500000 0.063142
vt 0.530260 0.047405
vt 0.529814 0.047129
vt 0.470186 0.000000
vt 0.469740 0.000000
vt 0.530260 0.000000
vt 0.529814 0.000000
vt 0.000000 0.000000
vt 0.939300 0.225415
vt 0.939309 0.229822
vt 0.999841 0.229822
vt 0.999841 0.225415
vt 0.500000 0.227438
vt 0.500000 0.231845
vt 0.468085 0.000000
vt 0.060700 0.225415
vt 0.060691 0.229822
vt 0.500000 0.231845
vt 0.999758 0.229822
vt 0.999877 0.229822
vt 0.000000 0.225414
vt 0.000212 0.225414
vt 0.500000 0.227438
vt 0.000789 0.229822
vt 1.000000 0.225415
vt 0.060691 0.230326
vt 0.500000 0.232307
vt 0.500000 0.226631
vt 0.937292 0.224541
vt 0.062708 0.224541
vt 0.939309 0.230326
vt 0.937301 0.000000
vt 1.000000 0.224541
vt 0.939300 0.224541
vt 0.939309 0.254331
vt 1.000000 0.254331
vt 1.000000 0.230326
vt 0.062699 0.000000
vt 0.060691 0.000000
vt 0.060700 0.224541
vt 0.000000 0.230326
vt 0.000000 0.229822
vt 0.000000 0.224541
vt 0.000831 0.229822
vt 0.000242 0.229822
vt 1.000000 0.229822
vt 0.000000 0.254331
vt 0.060691 0.254331
vt 0.500000 0.254331
vt 0.939309 0.000000
vt 1.000000 0.000000
s 1
usemtl Material.001
f 145/85/65 121/88/67 116/87/66 142/86/65
f 146/89/65 120/92/69 119/91/68 144/90/65
f 133/93/70 134/96/73 135/95/72 132/94/71
f 123/97/74 129/98/77 128/87/76 122/88/75
f 130/99/78 124/101/81 125/92/80 131/100/79
f 122/88/75 126/91/83 127/102/82 123/97/74
f 126/91/83 125/92/80 124/101/81 127/102/82
f 139/103/84 133/93/70 132/94/71 138/104/85
f 140/105/66 135/95/72 134/96/73 141/106/77
f 138/104/85 137/108/86 136/107/78 139/103/84
f 116/87/66 121/88/67 122/88/75 128/87/76
f 133/93/70 139/103/84 123/97/74 127/102/82
f 139/103/84 136/107/78 129/98/77 123/97/74
f 121/88/67 119/91/68 126/91/83 122/88/75
f 120/92/69 117/100/86 131/100/79 125/92/80
f 141/106/77 134/96/73 124/101/81 130/99/78
f 119/91/68 120/92/69 125/92/80 126/91/83
f 134/96/73 133/93/70 127/102/82 124/101/81
f 144/90/65 119/91/68 121/88/67 145/85/65
s 0
f 163/109/87 181/109/87 175/109/87 167/109/87
s 1
f 148/110/88 167/113/91 175/112/90 174/111/89
f 151/114/92 148/110/88 174/111/89 171/115/93
f 120/92/69 146/89/65 143/116/65 117/100/86
f 152/117/94 151/114/92 171/115/93 172/118/95
f 159/111/96 176/119/97 182/119/65 185/111/65
f 168/120/98 162/121/101 190/121/100 188/120/99
f 164/122/102 161/117/104 152/117/94 170/123/103
f 161/117/104 156/124/105 151/114/92 152/117/94
s 0
f 177/109/106 164/109/106 170/109/106 173/109/106
s 1
f 172/118/95 173/125/107 170/123/103 152/117/94
f 156/124/105 158/110/108 148/110/88 151/114/92
f 158/110/108 163/126/109 167/113/91 148/110/88
f 149/115/110 166/111/112 186/111/111 180/115/111
f 176/119/97 160/118/113 183/118/65 182/119/65
f 196/127/65 178/118/115 157/115/114 197/128/65
f 193/129/65 144/90/65 145/85/65 194/130/65
f 195/131/65 146/89/65 144/90/65 193/129/65
f 197/128/65 157/115/114 179/111/116 198/132/65
f 194/130/65 145/85/65 142/86/65 192/133/65
f 163/126/109 158/110/108 201/135/65 202/134/65
f 198/132/65 199/138/65 115/137/65 153/136/65
f 195/131/65 203/141/65 150/140/65 191/139/65
f 200/142/65 177/143/117 178/118/115 196/127/65
f 164/122/102 204/144/65 203/141/65 161/117/104
f 149/115/110 155/118/118 172/118/95 171/115/93
f 155/118/118 169/145/119 173/125/107 172/118/95
f 166/111/112 149/115/110 171/115/93 174/111/89
f 168/120/98 166/111/112 174/111/89 175/112/90
f 169/145/119 165/146/120 177/143/117 173/125/107
f 160/118/113 176/119/97 157/115/114 178/118/115
f 176/119/97 159/111/96 179/111/116 157/115/114
f 159/111/96 162/121/101 181/147/121 179/111/116
f 165/146/120 160/118/113 178/118/115 177/143/117
f 162/121/101 168/120/98 175/112/90 181/147/121
f 166/111/112 168/120/98 188/120/99 186/111/111
f 155/118/118 149/115/110 180/115/111 184/118/111
f 162/121/101 159/111/96 185/111/65 190/121/100
f 165/146/120 169/145/119 187/145/123 189/146/122
f 169/145/119 155/118/118 184/118/111 187/145/123
f 160/118/113 165/146/120 189/146/122 183/118/65
f 146/89/65 195/131/65 191/139/65 143/116/65
f 158/110/108 194/130/65 201/135/65
f 161/117/104 195/131/65 193/129/65 156/124/105
f 156/124/105 193/129/65 194/130/65 158/110/108
f 114/148/65 200/142/65 196/127/65 154/149/65
f 179/111/116 181/147/121 199/138/65 198/132/65
f 118/150/65 197/128/65 198/132/65 153/136/65
f 154/149/65 196/127/65 197/128/65 118/150/65
f 201/135/65 194/130/65 192/133/65 147/151/65
f 202/134/65 201/135/65 147/151/65 113/152/65
f 203/141/65 204/144/65 112/109/65 150/140/65
f 203/141/65 195/131/65 161/117/104
o light
v 0.000000 7.414938 -15.977811
v 0.000000 7.414938 -15.996782
v -14.057891 7.350201 -15.996782
v -14.057891 7.350201 -15.977811
v 14.057891 7.350201 -15.996782
v 14.057891 7.350201 -15.977811
v -15.973402 7.350201 -15.977811
v 15.992267 7.350203 -15.977811
v -15.992264 7.350201 -15.996782
v 15.996073 7.350203 -15.996782
vn -0.0000 1.0000 -0.0000
vn -0.0023 1.0000 -0.0000
vn 0.0023 1.0000 -0.0000
vt 0.939309 0.229822
vt 0.500000 0.231845
vt 0.500000 0.231845
vt 0.999877 0.229822
vt 0.999758 0.229822
vt 0.060691 0.229822
vt 0.000831 0.229822
vt 0.000242 0.229822
s 1
usemtl light
f 209/153/126 206/155/124 205/154/124 210/153/126
f 214/156/124 209/153/126 210/153/126 212/157/124
f 207/158/125 213/160/124 211/159/124 208/158/125
f 206/155/124 207/158/125 208/158/125 205/154/124
o wall.003
v 15.999999 0.000000 16.000000
v 16.000002 0.000000 -15.999999
v 15.999999 8.138584 16.000000
v 16.000002 8.138584 -15.999999
v 16.000000 0.000000 -0.999999
v 16.000000 0.000000 1.000001
v 16.000000 8.138584 0.000001
v 16.000000 2.036527 0.000001
v 16.000000 1.536527 1.000001
v 16.000000 1.536527 -0.999999
v 15.998079 1.536527 -0.999999
v 15.983790 1.527697 -0.985711
v 15.983790 1.527697 0.985713
v 15.998079 1.536527 1.000001
v 15.998079 2.036527 0.000001
v 15.983790 2.020552 0.000001
v 15.998079 0.000000 -0.999999
v 15.983790 0.000000 -0.985711
v 15.983790 0.000000 0.985713
v 15.998079 0.000000 1.000001
v 15.998079 1.985141 0.000001
v 15.983790 2.001116 0.000001
v 15.983790 1.516952 0.968328
v 15.998079 1.508122 0.954040
v 15.983790 0.000000 -0.968326
v 15.998079 0.000000 -0.954038
v 15.998079 1.508122 -0.954038
v 15.983790 1.516952 -0.968326
v 15.998079 0.000000 0.954040
v 15.983790 0.000000 0.968328
v 16.000000 0.000000 -1.021269
v 16.000000 0.000000 1.021271
v 16.000000 2.045180 0.000001
v 16.000000 1.545889 -1.021269
v 16.000000 1.545889 1.021271
v 16.000002 0.000000 -14.057890
v 15.992875 7.213264 -14.057605
v 15.977811 7.419053 0.000001
v 15.999999 0.000000 14.057892
v 15.992873 7.278000 0.000001
v 15.992872 7.213264 14.057607
v 16.000002 8.138584 -14.057890
v 15.999999 8.138584 14.057892
v 15.977809 7.354316 14.057892
v 16.000000 7.278000 0.000001
v 16.000000 7.419053 0.000001
v 16.000002 7.213264 -14.057605
v 15.996783 7.354316 -14.057890
v 15.996781 7.354316 14.057892
v 15.999999 7.213264 14.057607
v 15.996784 7.354317 -15.996072
v 16.000002 7.213265 -15.999999
v 15.999999 7.213264 16.000000
v 15.996781 7.354316 15.992265
v 15.977812 7.354316 -14.057890
v 15.992875 7.213265 -15.994901
v 15.977812 7.354317 -15.992266
v 15.977809 7.354316 15.973403
v 15.992872 7.213264 15.993202
v 15.974593 7.419053 0.000001
v 15.974592 7.354316 14.057892
v 15.974592 7.354316 15.974741
v 15.974594 7.354316 -14.057890
v 15.974594 7.354317 -15.994902
v 15.996782 7.419053 0.000001
v 15.999999 7.354316 16.000000
v 15.999999 7.354316 14.057892
v 16.000002 7.354316 -14.057890
v 15.977811 7.414938 0.000001
v 16.000002 7.354317 -15.999999
v 15.996782 7.414938 0.000001
v 15.996781 7.350201 14.057892
v 15.977809 7.350201 14.057892
v 15.996783 7.350201 -14.057890
v 15.977812 7.350201 -14.057890
v 15.977809 7.350201 15.973403
v 15.977812 7.350203 -15.992266
v 15.996781 7.350201 15.992265
v 15.996784 7.350203 -15.996072
v 15.999999 0.000000 13.993619
v 16.000002 0.000000 -13.993617
v 16.000000 7.252202 0.000001
v 16.000002 7.185323 -13.993333
v 15.999999 7.185323 13.993335
v 15.999999 7.370431 14.057892
v 16.000000 7.433837 0.000001
v 16.000002 7.370431 -14.057890
v 16.000002 7.370432 -15.999999
v 15.999999 7.370431 16.000000
v 16.000002 7.185324 -14.057606
v 16.000002 7.185325 -15.999999
v 15.999999 7.185323 14.057608
v 15.999999 7.185324 16.000000
vn -1.0000 -0.0000 -0.0000
vn -0.7071 -0.0000 -0.7071
vn -0.8465 0.2799 -0.4529
vn -0.8229 0.5682 -0.0000
vn -0.8465 0.2799 0.4529
vn -0.9659 -0.2589 -0.0000
vn -0.7454 -0.6667 -0.0000
vn -0.7617 -0.3406 -0.5512
vn -0.9731 -0.1211 -0.1960
vn -0.8969 0.2325 -0.3761
vn -0.3738 0.4876 -0.7890
vn -0.3827 -0.0000 -0.9239
vn -0.9239 -0.0000 -0.3827
vn -0.9239 -0.0000 0.3827
vn -0.3827 -0.0000 0.9239
vn -0.3738 0.4876 0.7890
vn -0.8969 0.2325 0.3761
vn -0.8974 0.4412 -0.0000
vn -0.3703 0.9289 -0.0000
vn -0.9731 -0.1211 0.1960
vn -0.7617 -0.3406 0.5512
vn -0.7071 -0.0000 0.7071
vn -0.2990 -0.0194 -0.9541
vn -0.6596 -0.7516 0.0017
vn -0.7517 0.6595 -0.0015
vn -0.7050 0.7092 -0.0000
vn -0.5455 -0.8381 -0.0000
vn -0.6611 -0.7503 -0.0000
vn -0.7501 0.6613 -0.0000
vn -0.6596 -0.7516 -0.0017
vn -0.7517 0.6595 0.0015
vn -0.7076 0.7066 -0.0016
vn -0.7061 0.7081 -0.0000
vn 0.3667 0.8805 0.3004
vn 0.7735 -0.0000 0.6338
vn -0.6338 -0.0000 0.7735
vn -0.2381 0.9267 0.2907
vn -0.8890 -0.4579 -0.0000
vn -0.4938 -0.8696 -0.0000
vn -0.7076 -0.7066 -0.0016
vn -0.7061 -0.7081 -0.0000
vn -0.7019 0.0011 0.7123
vn -0.6197 0.7848 -0.0000
vn -0.7076 -0.7066 0.0016
vn -0.8557 -0.5174 -0.0000
vn 0.7061 0.7081 -0.0000
vn 1.0000 -0.0000 -0.0000
vn 0.7076 0.7066 -0.0016
vn -0.7076 0.7066 0.0016
vn -0.7081 0.7061 -0.0000
vn -0.7066 0.7076 0.0016
vn -0.7066 0.7076 -0.0016
vn -0.8938 0.4485 -0.0000
vn 0.7076 0.7066 0.0016
vn 0.5483 0.8046 -0.2280
vn -0.0824 0.9767 -0.1980
vn -0.7530 0.6581 -0.0000
vn -0.3840 -0.0000 -0.9233
vn 0.9233 -0.0000 -0.3840
vt 0.531915 0.048309
vt 0.531915 0.000000
vt 0.531250 0.000000
vt 0.531250 0.048016
vt 0.468085 0.048309
vt 0.500000 0.063912
vt 0.500000 0.063641
vt 0.468750 0.048016
vt 0.500000 0.062535
vt 0.500000 0.062036
vt 0.470186 0.047129
vt 0.469740 0.047405
vt 0.530804 0.047741
vt 0.530804 0.000000
vt 0.469197 0.000000
vt 0.468750 0.000000
vt 0.469196 0.047741
vt 0.500000 0.063142
vt 0.530260 0.047405
vt 0.529814 0.047129
vt 0.470186 0.000000
vt 0.469740 0.000000
vt 0.530260 0.000000
vt 0.529814 0.000000
vt 0.000000 0.000000
vt 0.939300 0.225415
vt 0.939309 0.229822
vt 0.999841 0.229822
vt 0.999841 0.225415
vt 0.500000 0.227438
vt 0.500000 0.231845
vt 0.468085 0.000000
vt 0.060700 0.225415
vt 0.060691 0.229822
vt 0.500000 0.231845
vt 0.999758 0.229822
vt 0.999877 0.229822
vt 0.000000 0.225414
vt 0.000212 0.225414
vt 0.500000 0.227438
vt 0.000789 0.229822
vt 1.000000 0.225415
vt 0.060691 0.230326
vt 0.500000 0.232307
vt 0.500000 0.226631
vt 0.937292 0.224541
vt 0.062708 0.224541
vt 0.939309 0.230326
vt 0.937301 0.000000
vt 1.000000 0.224541
vt 0.939300 0.224541
vt 0.939309 0.254331
vt 1.000000 0.254331
vt 1.000000 0.230326
vt 0.062699 0.000000
vt 0.060691 0.000000
vt 0.060700 0.224541
vt 0.000000 0.230326
vt 0.000000 0.229822
vt 0.000000 0.224541
vt 0.000831 0.229822
vt 0.000242 0.229822
vt 1.000000 0.229822
vt 0.000000 0.254331
vt 0.060691 0.254331
vt 0.500000 0.254331
vt 0.939309 0.000000
vt 1.000000 0.000000
s 1
usemtl Material.001
f 248/161/127 245/162/127 219/163/128 224/164/129
f 249/165/127 247/166/127 222/167/130 223/168/131
f 236/169/132 235/170/133 238/171/134 237/172/135
f 226/173/136 225/164/137 231/163/138 232/174/139
f 233/175/140 234/176/141 228/168/142 227/177/143
f 225/164/137 226/173/136 230/178/144 229/167/145
f 229/167/145 230/178/144 227/177/143 228/168/142
f 242/179/146 241/180/147 235/170/133 236/169/132
f 243/181/128 244/182/139 237/172/135 238/171/134
f 241/180/147 242/179/146 239/183/140 240/184/148
f 219/163/128 231/163/138 225/164/137 224/164/129
f 236/169/132 230/178/144 226/173/136 242/179/146
f 242/179/146 226/173/136 232/174/139 239/183/140
f 224/164/129 225/164/137 229/167/145 222/167/130
f 223/168/131 228/168/142 234/176/141 220/176/148
f 244/182/139 233/175/140 227/177/143 237/172/135
f 222/167/130 229/167/145 228/168/142 223/168/131
f 237/172/135 227/177/143 230/178/144 236/169/132
f 247/166/127 248/161/127 224/164/129 222/167/130
s 0
f 266/185/149 270/185/149 278/185/149 284/185/149
s 1
f 251/186/150 277/187/151 278/188/152 270/189/153
f 254/190/154 274/191/155 277/187/151 251/186/150
f 223/168/131 220/176/148 246/192/127 249/165/127
f 255/193/156 275/194/157 274/191/155 254/190/154
f 262/187/158 288/187/127 285/195/127 279/195/159
f 271/196/160 291/196/161 293/197/162 265/197/163
f 267/198/164 273/199/165 255/193/156 264/193/166
f 264/193/166 255/193/156 254/190/154 259/200/167
s 0
f 280/185/168 276/185/168 273/185/168 267/185/168
s 1
f 275/194/157 255/193/156 273/199/165 276/201/169
f 259/200/167 254/190/154 251/186/150 261/186/170
f 261/186/170 251/186/150 270/189/153 266/202/171
f 252/191/172 283/191/173 289/187/173 269/187/174
f 279/195/159 285/195/127 286/194/127 263/194/175
f 299/203/127 300/204/127 260/191/176 281/194/177
f 296/205/127 297/206/127 248/161/127 247/166/127
f 298/207/127 296/205/127 247/166/127 249/165/127
f 300/204/127 301/208/127 282/187/178 260/191/176
f 297/206/127 295/209/127 245/162/127 248/161/127
f 266/202/171 305/210/127 304/211/127 261/186/170
f 301/208/127 256/212/127 218/213/127 302/214/127
f 298/207/127 294/215/127 253/216/127 306/217/127
f 303/218/127 299/203/127 281/194/177 280/219/179
f 267/198/164 264/193/166 306/217/127 307/220/127
f 252/191/172 274/191/155 275/194/157 258/194/180
f 258/194/180 275/194/157 276/201/169 272/221/181
f 269/187/174 277/187/151 274/191/155 252/191/172
f 271/196/160 278/188/152 277/187/151 269/187/174
f 272/221/181 276/201/169 280/219/179 268/222/182
f 263/194/175 281/194/177 260/191/176 279/195/159
f 279/195/159 260/191/176 282/187/178 262/187/158
f 262/187/158 282/187/178 284/223/183 265/197/163
f 268/222/182 280/219/179 281/194/177 263/194/175
f 265/197/163 284/223/183 278/188/152 271/196/160
f 269/187/174 289/187/173 291/196/161 271/196/160
f 258/194/180 287/194/173 283/191/173 252/191/172
f 265/197/163 293/197/162 288/187/127 262/187/158
f 268/222/182 292/222/184 290/221/185 272/221/181
f 272/221/181 290/221/185 287/194/173 258/194/180
f 263/194/175 286/194/127 292/222/184 268/222/182
f 249/165/127 246/192/127 294/215/127 298/207/127
f 261/186/170 304/211/127 297/206/127
f 264/193/166 259/200/167 296/205/127 298/207/127
f 259/200/167 261/186/170 297/206/127 296/205/127
f 217/224/127 257/225/127 299/203/127 303/218/127
f 282/187/178 301/208/127 302/214/127 284/223/183
f 221/226/127 256/212/127 301/208/127 300/204/127
f 257/225/127 221/226/127 300/204/127 299/203/127
f 304/211/127 250/227/127 295/209/127 297/206/127
f 305/210/127 216/228/127 250/227/127 304/211/127
f 306/217/127 253/216/127 215/185/127 307/220/127
f 306/217/127 264/193/166 298/207/127
o light.002
v 15.977811 7.414938 0.000001
v 15.996782 7.414938 0.000001
v 15.996781 7.350201 14.057892
v 15.977809 7.350201 14.057892
v 15.996783 7.350201 -14.057890
v 15.977812 7.350201 -14.057890
v 15.977809 7.350201 15.973403
v 15.977812 7.350203 -15.992266
v 15.996781 7.350201 15.992265
v 15.996784 7.350203 -15.996072
vn -0.0000 1.0000 -0.0000
vn -0.0000 1.0000 0.0023
vn -0.0000 1.0000 -0.0023
vt 0.939309 0.229822
vt 0.500000 0.231845
vt 0.500000 0.231845
vt 0.999877 0.229822
vt 0.999758 0.229822
vt 0.060691 0.229822
vt 0.000831 0.229822
vt 0.000242 0.229822
s 1
usemtl light
f 312/229/188 313/229/188 308/230/186 309/231/186
f 317/232/186 315/233/186 313/229/188 312/229/188
f 310/234/187 311/234/187 314/235/186 316/236/186
f 309/231/186 308/230/186 311/234/187 310/234/187
o wall.006
v -16.000002 0.000000 15.999998
v -15.999999 0.000000 -16.000002
v -16.000002 8.138584 15.999998
v -15.999999 8.138584 -16.000002
v -16.000000 0.000000 -1.000002
v -16.000000 0.000000 0.999998
v -16.000000 8.138584 -0.000002
v -16.000000 2.036527 -0.000002
v -16.000000 1.536527 0.999998
v -16.000000 1.536527 -1.000002
v -15.998079 1.536527 -1.000002
v -15.983790 1.527697 -0.985714
v -15.983790 1.527697 0.985710
v -15.998079 1.536527 0.999998
v -15.998079 2.036527 -0.000002
v -15.983790 2.020552 -0.000002
v -15.998079 0.000000 -1.000002
v -15.983790 0.000000 -0.985714
v -15.983790 0.000000 0.985710
v -15.998079 0.000000 0.999998
v -15.998079 1.985141 -0.000002
v -15.983790 2.001116 -0.000002
v -15.983790 1.516952 0.968325
v -15.998079 1.508122 0.954037
v -15.983790 0.000000 -0.968329
v -15.998079 0.000000 -0.954041
v -15.998079 1.508122 -0.954041
v -15.983790 1.516952 -0.968329
v -15.998079 0.000000 0.954037
v -15.983790 0.000000 0.968325
v -16.000000 0.000000 -1.021272
v -16.000000 0.000000 1.021268
v -16.000000 2.045180 -0.000002
v -16.000000 1.545889 -1.021272
v -16.000000 1.545889 1.021268
v -15.999999 0.000000 -14.057893
v -15.992872 7.213264 -14.057608
v -15.977811 7.419053 -0.000002
v -16.000002 0.000000 14.057889
v -15.992873 7.278000 -0.000002
v -15.992875 7.213264 14.057604
v -15.999999 8.138584 -14.057893
v -16.000002 8.138584 14.057889
v -15.977812 7.354316 14.057889
v -16.000000 7.278000 -0.000002
v -16.000000 7.419053 -0.000002
v -15.999999 7.213264 -14.057608
v -15.996781 7.354316 -14.057893
v -15.996783 7.354316 14.057889
v -16.000002 7.213264 14.057604
v -15.996781 7.354317 -15.996075
v -15.999999 7.213265 -16.000002
v -16.000002 7.213264 15.999998
v -15.996784 7.354316 15.992262
v -15.977809 7.354316 -14.057893
v -15.992872 7.213265 -15.994904
v -15.977809 7.354317 -15.992269
v -15.977812 7.354316 15.973400
v -15.992875 7.213264 15.993199
v -15.974593 7.419053 -0.000002
v -15.974594 7.354316 14.057889
v -15.974594 7.354316 15.974738
v -15.974592 7.354316 -14.057893
v -15.974592 7.354317 -15.994905
v -15.996782 7.419053 -0.000002
v -16.000002 7.354316 15.999998
v -16.000002 7.354316 14.057889
v -15.999999 7.354316 -14.057893
v -15.977811 7.414938 -0.000002
v -15.999999 7.354317 -16.000002
v -15.996782 7.414938 -0.000002
v -15.996783 7.350201 14.057889
v -15.977812 7.350201 14.057889
v -15.996781 7.350201 -14.057893
v -15.977809 7.350201 -14.057893
v -15.977812 7.350201 15.973400
v -15.977809 7.350203 -15.992269
v -15.996784 7.350201 15.992262
v -15.996781 7.350203 -15.996075
v -16.000002 0.000000 13.993616
v -15.999999 0.000000 -13.993620
v -16.000000 7.252202 -0.000002
v -15.999999 7.185323 -13.993336
v -16.000002 7.185323 13.993332
v -16.000002 7.370431 14.057889
v -16.000000 7.433837 -0.000002
v -15.999999 7.370431 -14.057893
v -15.999999 7.370432 -16.000002
v -16.000002 7.370431 15.999998
v -15.999999 7.185324 -14.057609
v -15.999999 7.185325 -16.000002
v -16.000002 7.185323 14.057605
v -16.000002 7.185324 15.999998
vn 1.0000 -0.0000 -0.0000
vn 0.7071 -0.0000 -0.7071
vn 0.8465 0.2799 -0.4529
vn 0.8229 0.5682 -0.0000
vn 0.8465 0.2799 0.4529
vn 0.9659 -0.2589 -0.0000
vn 0.7454 -0.6667 -0.0000
vn 0.7617 -0.3406 -0.5512
vn 0.9731 -0.1211 -0.1960
vn 0.8969 0.2325 -0.3761
vn 0.3738 0.4876 -0.7890
vn 0.3827 -0.0000 -0.9239
vn 0.9239 -0.0000 -0.3827
vn 0.9239 -0.0000 0.3827
vn 0.3827 -0.0000 0.9239
vn 0.3738 0.4876 0.7890
vn 0.8969 0.2325 0.3761
vn 0.8974 0.4412 -0.0000
vn 0.3703 0.9289 -0.0000
vn 0.9731 -0.1211 0.1960
vn 0.7617 -0.3406 0.5512
vn 0.7071 -0.0000 0.7071
vn 0.2990 -0.0194 -0.9541
vn 0.6596 -0.7516 0.0017
vn 0.7517 0.6595 -0.0015
vn 0.7050 0.7092 -0.0000
vn 0.5455 -0.8381 -0.0000
vn 0.6611 -0.7503 -0.0000
vn 0.7501 0.6613 -0.0000
vn 0.6596 -0.7516 -0.0017
vn 0.7517 0.6595 0.0015
vn 0.7076 0.7066 -0.0016
vn 0.7061 0.7081 -0.0000
vn -0.3667 0.8805 0.3004
vn -0.7735 -0.0000 0.6338
vn 0.6338 -0.0000 0.7735
vn 0.2381 0.9267 0.2907
vn 0.8890 -0.4579 -0.0000
vn 0.4938 -0.8696 -0.0000
vn 0.7076 -0.7066 -0.0016
vn 0.7061 -0.7081 -0.0000
vn 0.7019 0.0011 0.7123
vn 0.6197 0.7848 -0.0000
vn 0.7076 -0.7066 0.0016
vn 0.8557 -0.5174 -0.0000
vn -0.7061 0.7081 -0.0000
vn -1.0000 -0.0000 -0.0000
vn -0.7076 0.7066 -0.0016
vn 0.7076 0.7066 0.0016
vn 0.7081 0.7061 -0.0000
vn 0.7066 0.7076 0.0016
vn 0.7066 0.7076 -0.0016
vn 0.8938 0.4485 -0.0000
vn -0.7076 0.7066 0.0016
vn -0.5483 0.8046 -0.2280
vn 0.0824 0.9767 -0.1980
vn 0.7530 0.6581 -0.0000
vn 0.3840 -0.0000 -0.9233
vn -0.9233 -0.0000 -0.3840
vt 0.531915 0.048309
vt 0.531915 0.000000
vt 0.531250 0.000000
vt 0.531250 0.048016
vt 0.468085 0.048309
vt 0.500000 0.063912
vt 0.500000 0.063641
vt 0.468750 0.048016
vt 0.500000 0.062535
vt 0.500000 0.062036
vt 0.470186 0.047129
vt 0.469740 0.047405
vt 0.530804 0.047741
vt 0.530804 0.000000
vt 0.469197 0.000000
vt 0.468750 0.000000
vt 0.469196 0.047741
vt 0.500000 0.063142
vt 0.530260 0.047405
vt 0.529814 0.047129
vt 0.470186 0.000000
vt 0.469740 0.000000
vt 0.530260 0.000000
vt 0.529814 0.000000
vt 0.000000 0.000000
vt 0.939300 0.225415
vt 0.939309 0.229822
vt 0.999841 0.229822
vt 0.999841 0.225415
vt 0.500000 0.227438
vt 0.500000 0.231845
vt 0.468085 0.000000
vt 0.060700 0.225415
vt 0.060691 0.229822
vt 0.500000 0.231845
vt 0.999758 0.229822
vt 0.999877 0.229822
vt 0.000000 0.225414
vt 0.000212 0.225414
vt 0.500000 0.227438
vt 0.000789 0.229822
vt 1.000000 0.225415
vt 0.060691 0.230326
vt 0.500000 0.232307
vt 0.500000 0.226631
vt 0.937292 0.224541
vt 0.062708 0.224541
vt 0.939309 0.230326
vt 0.937301 0.000000
vt 1.000000 0.224541
vt 0.939300 0.224541
vt 0.939309 0.254331
vt 1.000000 0.254331
vt 1.000000 0.230326
vt 0.062699 0.000000
vt 0.060691 0.000000
vt 0.060700 0.224541
vt 0.000000 0.230326
vt 0.000000 0.229822
vt 0.000000 0.224541
vt 0.000831 0.229822
vt 0.000242 0.229822
vt 1.000000 0.229822
vt 0.000000 0.254331
vt 0.060691 0.254331
vt 0.500000 0.254331
vt 0.939309 0.000000
vt 1.000000 0.000000
s 1
usemtl Material.001
f 351/237/189 327/240/191 322/239/190 348/238/189
f 352/241/189 326/244/193 325/243/192 350/242/189
f 339/245/194 340/248/197 341/247/196 338/246/195
f 329/249/198 335/250/201 334/239/200 328/240/199
f 336/251/202 330/253/205 331/244/204 337/252/203
f 328/240/199 332/243/207 333/254/206 329/249/198
f 332/243/207 331/244/204 330/253/205 333/254/206
f 345/255/208 339/245/194 338/246/195 344/256/209
f 346/257/190 341/247/196 340/248/197 347/258/201
f 344/256/209 343/260/210 342/259/202 345/255/208
f 322/239/190 327/240/191 328/240/199 334/239/200
f 339/245/194 345/255/208 329/249/198 333/254/206
f 345/255/208 342/259/202 335/250/201 329/249/198
f 327/240/191 325/243/192 332/243/207 328/240/199
f 326/244/193 323/252/210 337/252/203 331/244/204
f 347/258/201 340/248/197 330/253/205 336/251/202
f 325/243/192 326/244/193 331/244/204 332/243/207
f 340/248/197 339/245/194 333/254/206 330/253/205
f 350/242/189 325/243/192 327/240/191 351/237/189
s 0
f 369/261/211 387/261/211 381/261/211 373/261/211
s 1
f 354/262/212 373/265/215 381/264/214 380/263/213
f 357/266/216 354/262/212 380/263/213 377/267/217
f 326/244/193 352/241/189 349/268/189 323/252/210
f 358/269/218 357/266/216 377/267/217 378/270/219
f 365/263/220 382/271/221 388/271/189 391/263/189
f 374/272/222 368/273/225 396/273/224 394/272/223
f 370/274/226 367/269/228 358/269/218 376/275/227
f 367/269/228 362/276/229 357/266/216 358/269/218
s 0
f 383/261/230 370/261/230 376/261/230 379/261/230
s 1
f 378/270/219 379/277/231 376/275/227 358/269/218
f 362/276/229 364/262/232 354/262/212 357/266/216
f 364/262/232 369/278/233 373/265/215 354/262/212
f 355/267/234 372/263/236 392/263/235 386/267/235
f 382/271/221 366/270/237 389/270/189 388/271/189
f 402/279/189 384/270/239 363/267/238 403/280/189
f 399/281/189 350/242/189 351/237/189 400/282/189
f 401/283/189 352/241/189 350/242/189 399/281/189
f 403/280/189 363/267/238 385/263/240 404/284/189
f 400/282/189 351/237/189 348/238/189 398/285/189
f 369/278/233 364/262/232 407/287/189 408/286/189
f 404/284/189 405/290/189 321/289/189 359/288/189
f 401/283/189 409/293/189 356/292/189 397/291/189
f 406/294/189 383/295/241 384/270/239 402/279/189
f 370/274/226 410/296/189 409/293/189 367/269/228
f 355/267/234 361/270/242 378/270/219 377/267/217
f 361/270/242 375/297/243 379/277/231 378/270/219
f 372/263/236 355/267/234 377/267/217 380/263/213
f 374/272/222 372/263/236 380/263/213 381/264/214
f 375/297/243 371/298/244 383/295/241 379/277/231
f 366/270/237 382/271/221 363/267/238 384/270/239
f 382/271/221 365/263/220 385/263/240 363/267/238
f 365/263/220 368/273/225 387/299/245 385/263/240
f 371/298/244 366/270/237 384/270/239 383/295/241
f 368/273/225 374/272/222 381/264/214 387/299/245
f 372/263/236 374/272/222 394/272/223 392/263/235
f 361/270/242 355/267/234 386/267/235 390/270/235
f 368/273/225 365/263/220 391/263/189 396/273/224
f 371/298/244 375/297/243 393/297/247 395/298/246
f 375/297/243 361/270/242 390/270/235 393/297/247
f 366/270/237 371/298/244 395/298/246 389/270/189
f 352/241/189 401/283/189 397/291/189 349/268/189
f 364/262/232 400/282/189 407/287/189
f 367/269/228 401/283/189 399/281/189 362/276/229
f 362/276/229 399/281/189 400/282/189 364/262/232
f 320/300/189 406/294/189 402/279/189 360/301/189
f 385/263/240 387/299/245 405/290/189 404/284/189
f 324/302/189 403/280/189 404/284/189 359/288/189
f 360/301/189 402/279/189 403/280/189 324/302/189
f 407/287/189 400/282/189 398/285/189 353/303/189
f 408/286/189 407/287/189 353/303/189 319/304/189
f 409/293/189 410/296/189 318/261/189 356/292/189
f 409/293/189 401/283/189 367/269/228
o light.003
v -15.977811 7.414938 -0.000002
v -15.996782 7.414938 -0.000002
v -15.996783 7.350201 14.057889
v -15.977812 7.350201 14.057889
v -15.996781 7.350201 -14.057893
v -15.977809 7.350201 -14.057893
v -15.977812 7.350201 15.973400
v -15.977809 7.350203 -15.992269
v -15.996784 7.350201 15.992262
v -15.996781 7.350203 -15.996075
vn -0.0000 1.0000 -0.0000
vn -0.0000 1.0000 0.0023
vn -0.0000 1.0000 -0.0023
vt 0.939309 0.229822
vt 0.500000 0.231845
vt 0.500000 0.231845
vt 0.999877 0.229822
vt 0.999758 0.229822
vt 0.060691 0.229822
vt 0.000831 0.229822
vt 0.000242 0.229822
s 1
usemtl light
f 415/305/250 412/307/248 411/306/248 416/305/250
f 420/308/248 415/305/250 416/305/250 418/309/248
f 413/310/249 419/312/248 417/311/248 414/310/249
f 412/307/248 413/310/249 414/310/249 411/306/248
