# Blender 5.1.2
# www.blender.org
mtllib revolver.mtl
o Cube
v -0.234393 1.517237 1.952514
v 0.263192 1.716489 1.952514
v 0.098963 1.388791 1.952514
v -0.111123 1.860716 1.952514
v 0.095763 1.834659 1.952514
v 0.235718 1.520272 1.952514
v -0.095763 1.387534 1.952514
v -0.235718 1.701921 1.952514
v 0.107529 1.862128 1.952514
v -0.098963 1.833402 1.952514
v 0.234393 1.704956 1.952514
v 0.264680 1.509112 1.952514
v 0.111123 1.361477 1.952514
v -0.107529 1.360065 1.952514
v -0.263192 1.505705 1.952514
v -0.264680 1.713081 1.952514
v 0.000000 1.660911 0.631382
v -0.211839 1.576083 0.631382
v 0.089441 1.459996 0.631382
v 0.086549 1.862962 0.631382
v 0.213037 1.578826 0.631382
v -0.086549 1.458860 0.631382
v -0.213037 1.742996 0.631382
v -0.089441 1.861826 0.631382
v 0.211839 1.745739 0.631382
v -0.420659 1.803576 -0.547486
v -0.420659 1.762686 -1.290644
v -0.409159 0.927450 -2.628014
v -0.420659 0.931495 -2.499042
v -0.420659 0.958198 -2.666198
v 0.409159 0.927450 -2.628014
v 0.420659 0.958198 -2.666198
v -0.419468 1.762683 -2.715619
v 0.419957 1.524068 1.948345
v 0.000388 1.171796 1.948345
v -0.001203 1.921509 1.948345
v -0.419957 1.523130 1.948345
v 0.419957 1.429487 1.948345
v 0.210436 1.171796 1.948345
v -0.210502 1.921509 1.948345
v -0.419957 1.428973 1.948345
v 0.419957 1.723003 1.948345
v -0.209968 1.171796 1.948345
v 0.209191 1.921509 1.948345
v -0.419957 1.722648 1.948345
v 0.295172 1.171891 1.947154
v 0.419997 1.348296 1.947192
v 0.419928 1.803281 1.947154
v 0.295326 1.921463 1.947155
v -0.419997 1.348296 1.947192
v -0.295172 1.171891 1.947155
v -0.295326 1.921463 1.947154
v -0.419957 1.803300 1.948345
v 0.420018 1.243298 -0.547486
v 0.295496 1.171476 -0.547486
v 0.295424 1.921676 -0.547486
v 0.420156 1.803369 -0.547486
v -0.295496 1.171476 -0.547486
v -0.420018 1.243298 -0.547486
v -0.419918 0.908414 -1.286320
v -0.295424 1.921676 -0.547486
v 0.419468 1.762683 -2.715619
v 0.419918 0.908523 -1.286080
v 0.420424 1.762337 -1.294914
v -0.239046 2.026844 -2.489599
v 0.239046 2.026844 -2.489599
v 0.239169 2.027036 -1.290644
v -0.239169 2.027036 -1.290644
v -0.419957 0.995570 -2.714509
v -0.325846 0.906959 -2.712532
v -0.419941 0.906791 -2.152855
v -0.392611 0.933241 -2.713618
v -0.392382 0.906772 -2.548511
v 0.419923 0.906966 -2.153041
v 0.325782 0.906934 -2.712532
v 0.419957 0.995570 -2.714509
v 0.420189 0.932099 -2.504873
v 0.392357 0.906740 -2.548393
v 0.392611 0.933241 -2.713618
v 0.419484 0.990930 -2.550761
v 0.419484 1.735902 -2.548986
v 0.419484 0.990916 -1.460893
v 0.419484 1.735583 -1.460478
v -0.419484 0.991295 -2.550835
v -0.419484 0.990004 -1.459070
v -0.419484 1.736215 -1.456513
v -0.419484 1.736212 -2.550838
vn -0.9998 -0.0072 0.0168
vn 0.6825 0.7295 0.0441
vn 0.9998 0.0072 0.0174
vn 0.0065 -0.9997 -0.0215
vn -0.0000 -0.0000 1.0000
vn -0.0056 0.0338 0.9994
vn 0.0048 0.0346 0.9994
vn 0.0139 -0.0043 0.9999
vn 0.0162 0.0101 0.9998
vn 0.0043 -0.0115 0.9999
vn -0.0049 -0.0116 0.9999
vn -0.0162 0.0096 0.9998
vn -0.0139 -0.0056 0.9999
vn -0.6832 -0.7302 -0.0109
vn 0.6930 -0.7208 -0.0105
vn -0.0064 0.9985 0.0539
vn -0.6924 0.7202 0.0438
vn 0.0003 0.3128 -0.9498
vn -0.0073 -0.0085 -0.9999
vn -0.0066 -0.0090 -0.9999
vn -0.7913 0.6113 -0.0077
vn -0.8248 0.5654 -0.0004
vn -0.8255 0.5644 -0.0007
vn -0.0000 0.6501 -0.7598
vn -0.0000 0.3134 -0.9496
vn 1.0000 -0.0001 0.0002
vn 1.0000 0.0002 0.0001
vn 1.0000 -0.0001 0.0001
vn 0.0268 0.0001 0.9996
vn 0.0221 -0.0093 0.9997
vn 0.0240 0.0095 0.9997
vn 0.0005 -1.0000 0.0001
vn -0.0005 -1.0000 0.0001
vn -0.0001 -1.0000 0.0001
vn -0.0000 -0.0221 0.9998
vn -0.0091 -0.0172 0.9998
vn 0.0100 -0.0163 0.9998
vn 0.0001 1.0000 -0.0000
vn -0.0000 1.0000 0.0001
vn -0.0169 0.0319 0.9994
vn -0.0003 0.0692 0.9976
vn -1.0000 -0.0000 -0.0000
vn -1.0000 -0.0007 0.0002
vn -1.0000 -0.0008 0.0002
vn -0.0266 -0.0001 0.9996
vn -0.0202 -0.0103 0.9997
vn 0.0183 -0.0145 0.9997
vn -0.0015 0.0026 1.0000
vn -0.0197 0.0072 0.9998
vn -0.0165 -0.0133 0.9998
vn -0.0156 -0.0129 0.9998
vn 0.0197 0.0171 0.9997
vn 0.0174 0.0350 0.9992
vn 0.7603 -0.6493 0.0195
vn 0.6020 -0.7984 0.0073
vn 0.8161 -0.5774 0.0243
vn 0.7549 0.6558 0.0026
vn 0.6882 0.7256 0.0001
vn 0.6880 0.7254 -0.0208
vn -0.7603 -0.6493 0.0195
vn -0.6020 -0.7984 0.0073
vn -0.4996 -0.8662 0.0002
vn -0.6875 0.7262 0.0002
vn -0.6862 0.7271 -0.0210
vn -0.6880 0.7257 0.0003
vn 1.0000 -0.0070 -0.0011
vn 1.0000 -0.0005 0.0001
vn 1.0000 0.0032 -0.0004
vn 0.4651 -0.8063 0.3654
vn 0.2130 -0.9086 0.3593
vn 0.1132 -0.9298 0.3501
vn -0.2130 -0.9086 0.3594
vn -0.1131 -0.9298 0.3501
vn 0.7923 0.6101 -0.0075
vn 0.8251 0.5649 0.0058
vn -0.0000 0.9901 0.1404
vn -0.4651 -0.8063 0.3654
vn -1.0000 -0.0095 -0.0017
vn -1.0000 -0.0011 0.0002
vn 0.0027 -1.0000 0.0009
vn -0.0006 -1.0000 0.0001
vn -0.0007 -1.0000 0.0012
vn -0.7535 0.6574 0.0026
vn 0.8253 0.5647 -0.0003
vn 0.8256 0.5642 -0.0004
vn -0.0000 1.0000 -0.0002
vn -0.5699 -0.8016 -0.1809
vn -0.8575 -0.4317 -0.2800
vn -0.8687 -0.3856 -0.3109
vn -0.3815 -0.9128 -0.1458
vn -0.3602 -0.9212 -0.1472
vn -0.7014 -0.7113 -0.0455
vn -0.7013 -0.7114 -0.0453
vn -0.7047 -0.7078 -0.0490
vn 0.7099 -0.7029 -0.0444
vn 0.7098 -0.7030 -0.0443
vn 0.7138 -0.6987 -0.0494
vn 0.5699 -0.8016 -0.1809
vn 0.3815 -0.9128 -0.1458
vn 0.3602 -0.9212 -0.1472
vn 0.8575 -0.4317 -0.2800
vn 0.8687 -0.3856 -0.3109
vn 0.9939 -0.1092 -0.0170
vn 0.9977 -0.0678 -0.0088
vn 0.9999 0.0122 0.0025
vn 0.9999 0.0099 0.0032
vn 1.0000 -0.0018 -0.0003
vn -0.0011 -0.0012 1.0000
vn -0.0012 -0.0011 1.0000
vn -0.0001 -0.0024 1.0000
vn 1.0000 0.0018 -0.0016
vn 1.0000 0.0008 0.0005
vn 0.0002 1.0000 0.0002
vn -0.0009 1.0000 0.0010
vn -0.0011 1.0000 0.0012
vn -0.0004 -1.0000 -0.0003
vn -0.0007 -1.0000 -0.0000
vn 1.0000 -0.0027 -0.0004
vn 0.9998 -0.0175 -0.0029
vn -0.0035 0.0019 -1.0000
vn -0.0034 0.0021 -1.0000
vn -0.0047 0.0006 -1.0000
vn -0.9974 -0.0708 -0.0106
vn -1.0000 0.0011 0.0001
vn -1.0000 -0.0023 -0.0001
vn -0.9945 -0.1032 -0.0171
vn -0.9999 0.0091 0.0062
vn -1.0000 0.0019 -0.0017
vn -1.0000 -0.0044 0.0012
vn -1.0000 0.0032 -0.0004
vn -0.9998 -0.0184 -0.0039
vn -0.0000 -0.0413 -0.9991
vn 0.0055 -0.0081 -1.0000
vn 0.0292 -0.0015 -0.9996
vn -0.0129 -0.0087 -0.9999
vn -0.8244 0.5660 0.0058
vn 1.0000 0.0004 0.0001
vn 0.9994 -0.0000 0.0339
vn 0.0001 -1.0000 0.0001
vn 0.0011 -1.0000 0.0002
vn -0.0000 1.0000 -0.0000
vn -0.0011 -1.0000 0.0002
vn -0.0005 1.0000 0.0001
vn -0.0002 1.0000 0.0001
vn -0.0000 0.9993 -0.0386
vn -1.0000 0.0005 -0.0000
vn -1.0000 0.0002 -0.0000
vn 0.0141 -0.0102 0.9998
vn -0.0140 0.0249 0.9996
vn 0.0138 0.0146 0.9998
vn 0.4996 -0.8662 0.0002
vn -0.8161 -0.5774 0.0243
vn 0.0001 -1.0000 0.0018
vn 0.0019 -1.0000 0.0014
vn 0.0262 -0.9997 0.0019
vn -0.0000 -1.0000 -0.0012
vn -0.0052 -1.0000 0.0009
vn -0.6125 -0.7718 -0.1706
vn -0.6960 -0.7169 -0.0396
vn 0.7034 -0.7099 -0.0362
vn 0.6125 -0.7718 -0.1706
vn 0.9053 -0.4196 -0.0653
vn -0.0022 -0.0000 1.0000
vn 0.0004 1.0000 -0.0000
vn -0.0008 -1.0000 -0.0000
vn -0.0022 0.0034 -1.0000
vn -0.9999 0.0006 -0.0140
vn -0.9042 -0.4218 -0.0674
vt 0.919661 0.664978
vt 0.956062 0.686952
vt 0.919685 0.696713
vt 0.962495 0.857676
vt 0.926132 0.869631
vt 0.926115 0.847828
vt 0.962514 0.825882
vt 0.926132 0.819093
vt 0.919536 0.680960
vt 0.883118 0.711276
vt 0.883118 0.682466
vt 0.015068 0.833414
vt 0.010582 0.799545
vt 0.015285 0.801536
vt 0.037401 0.856108
vt 0.010339 0.835340
vt 0.091838 0.833938
vt 0.071121 0.861067
vt 0.069200 0.856325
vt 0.035415 0.860823
vt 0.092054 0.802060
vt 0.096541 0.835928
vt 0.069722 0.779365
vt 0.096784 0.800133
vt 0.036002 0.774407
vt 0.037923 0.779148
vt 0.071708 0.774651
vt 0.844521 0.397765
vt 0.858891 0.432544
vt 0.824199 0.418137
vt 0.893583 0.418139
vt 0.873261 0.397766
vt 0.824199 0.446948
vt 0.873261 0.467322
vt 0.844521 0.467321
vt 0.883231 0.661961
vt 0.919661 0.658272
vt 0.919536 0.712838
vt 0.883231 0.731516
vt 0.824199 0.503917
vt 0.854561 0.467322
vt 0.856077 0.503917
vt 0.956041 0.709170
vt 0.919661 0.721295
vt 0.260021 0.700421
vt 0.397061 0.832053
vt 0.381599 0.847510
vt 0.843825 0.553402
vt 0.876815 0.505566
vt 0.882891 0.553409
vt 0.260308 0.699734
vt 0.367555 0.654538
vt 0.396775 0.699734
vt 0.814253 0.741925
vt 0.882773 0.789804
vt 0.882773 0.819575
vt 0.068249 0.886257
vt 0.084707 0.886257
vt 0.034186 0.886257
vt 0.328264 0.882296
vt 0.328264 0.951160
vt 0.259746 0.964769
vt 0.128971 0.817927
vt 0.128971 0.783482
vt 0.128971 0.852222
vt 0.527426 0.952944
vt 0.479382 0.952944
vt 0.575469 0.884434
vt 0.000344 0.783220
vt 0.000344 0.817146
vt 0.754835 0.560264
vt 0.754835 0.546357
vt 0.823354 0.642351
vt 0.068734 0.749217
vt 0.084973 0.749217
vt 0.098715 0.886257
vt 0.020563 0.749217
vt 0.034369 0.749217
vt 0.098715 0.749217
vt 0.128971 0.769527
vt 0.020563 0.886257
vt 0.000344 0.851610
vt 0.328263 0.868142
vt 0.259678 0.848175
vt 0.328101 0.848062
vt 0.814224 0.719813
vt 0.882773 0.741299
vt 0.814253 0.741307
vt 0.328263 0.965314
vt 0.259678 0.985274
vt 0.259744 0.965418
vt 0.754872 0.524438
vt 0.823354 0.546368
vt 0.793782 0.748964
vt 0.814253 0.837625
vt 0.793745 0.895626
vt 0.328799 0.985269
vt 0.340777 0.965409
vt 0.386420 0.985268
vt 0.388004 0.985231
vt 0.340956 0.868679
vt 0.388004 0.848208
vt 0.793782 0.748300
vt 0.793739 0.700991
vt 0.479383 0.884434
vt 0.566271 0.863658
vt 0.340777 0.868030
vt 0.328799 0.848170
vt 0.386420 0.848171
vt 0.580719 0.963396
vt 0.576190 0.846347
vt 0.591632 0.830893
vt 0.823392 0.524450
vt 0.760805 0.700994
vt 0.793438 0.748611
vt 0.754717 0.748615
vt 0.488569 0.830884
vt 0.488569 0.863658
vt 0.263968 0.843350
vt 0.259677 0.838853
vt 0.259677 0.833142
vt 0.580291 0.963865
vt 0.576106 0.963976
vt 0.576110 0.953808
vt 0.581827 0.968268
vt 0.590944 0.968269
vt 0.580301 0.834956
vt 0.581392 0.830769
vt 0.590394 0.830785
vt 0.576106 0.834830
vt 0.576110 0.845037
vt 0.397406 0.838853
vt 0.393114 0.843350
vt 0.397406 0.833142
vt 0.760061 0.891695
vt 0.755892 0.887034
vt 0.758687 0.881911
vt 0.754703 0.881309
vt 0.824199 0.137152
vt 0.952064 0.000577
vt 0.952064 0.137152
vt 0.789261 0.881915
vt 0.770302 0.895629
vt 0.760449 0.891231
vt 0.721253 0.854743
vt 0.750994 0.991319
vt 0.721253 0.991319
vt 0.980375 0.271711
vt 0.950631 0.408286
vt 0.950631 0.271711
vt 0.758834 0.752923
vt 0.793539 0.748853
vt 0.789295 0.753084
vt 0.257452 0.749449
vt 0.129315 0.886024
vt 0.129315 0.749449
vt 0.881716 0.691726
vt 0.878927 0.557553
vt 0.877112 0.696317
vt 0.878927 0.686419
vt 0.848196 0.687080
vt 0.868017 0.700373
vt 0.843883 0.700367
vt 0.847985 0.557546
vt 0.956041 0.658272
vt 0.962514 0.881801
vt 0.893583 0.446950
vt 0.919661 0.735232
vt 0.825750 0.467322
vt 0.275484 0.847510
vt 0.264550 0.842983
vt 0.260021 0.832053
vt 0.397061 0.700421
vt 0.392532 0.842983
vt 0.843880 0.505562
vt 0.289528 0.654538
vt 0.882773 0.741917
vt 0.882773 0.755482
vt 0.882773 0.805992
vt 0.259746 0.868687
vt 0.328264 0.868687
vt 0.328264 0.916728
vt 0.328264 0.964769
vt 0.575469 0.952944
vt 0.561858 0.952944
vt 0.492993 0.952944
vt 0.754835 0.624311
vt 0.754835 0.610737
vt 0.754835 0.594562
vt 0.128971 0.865946
vt 0.000344 0.769486
vt 0.000344 0.865988
vt 0.259744 0.868039
vt 0.882743 0.719805
vt 0.328101 0.985377
vt 0.340956 0.964760
vt 0.615137 0.830893
vt 0.615137 0.967916
vt 0.591632 0.967916
vt 0.576190 0.952462
vt 0.580719 0.835413
vt 0.566271 0.830884
vt 0.261559 0.844130
vt 0.578278 0.966385
vt 0.578278 0.832422
vt 0.395523 0.844130
vt 0.756941 0.892174
vt 0.824199 0.000577
vt 0.750994 0.854743
vt 0.980375 0.408286
vt 0.257452 0.886024
vt 0.882905 0.686006
vt 0.880668 0.696847
s 1
usemtl Material
f 11/1/1 21/2/1 6/3/1
f 1/4/2 22/5/2 18/6/2
f 8/7/3 18/6/3 23/8/3
f 5/9/4 24/10/4 20/11/4
f 5/12/5 4/13/6 10/14/5
f 11/15/5 9/16/7 5/12/5
f 3/17/5 12/18/8 6/19/5
f 6/19/5 2/20/9 11/15/5
f 7/21/5 13/22/10 3/17/5
f 1/23/5 14/24/11 7/21/5
f 10/14/5 16/25/12 8/26/5
f 8/26/5 15/27/13 1/23/5
f 21/28/5 17/29/5 19/30/5
f 20/31/5 17/29/5 25/32/5
f 17/29/5 22/33/5 19/30/5
f 17/29/5 23/34/5 18/35/5
f 5/9/14 25/36/14 11/37/14
f 10/38/15 23/39/15 24/10/15
f 3/40/16 22/41/16 7/42/16
f 6/3/17 19/43/17 3/44/17
f 33/45/18 76/46/19 75/47/20
f 27/48/21 65/49/22 33/50/23
f 33/51/18 66/52/24 62/53/25
f 57/54/26 34/55/27 47/56/28
f 34/57/29 12/18/8 38/58/30
f 42/59/31 2/20/9 34/57/29
f 39/60/32 43/61/33 58/62/34
f 35/63/35 14/24/11 43/64/36
f 39/65/37 13/22/10 35/63/35
f 36/66/38 49/67/38 61/68/39
f 4/13/6 40/69/40 16/25/12
f 9/16/7 36/70/41 4/13/6
f 45/71/42 53/72/43 59/73/44
f 16/25/12 37/74/45 15/27/13
f 15/27/13 41/75/46 14/24/11
f 47/76/47 12/18/8 39/65/37
f 40/69/40 53/77/48 45/78/49
f 14/24/11 50/79/50 51/80/51
f 48/81/52 44/82/53 9/16/7
f 46/83/54 54/84/55 47/85/56
f 56/86/57 48/87/58 57/88/59
f 51/89/60 59/90/61 58/91/62
f 52/92/63 26/93/64 53/72/65
f 64/94/66 54/95/67 63/96/68
f 54/97/69 55/98/70 63/99/71
f 63/100/71 58/101/72 60/102/73
f 56/86/57 64/103/74 67/104/75
f 56/105/76 68/106/76 61/68/76
f 58/107/72 59/108/77 60/109/73
f 27/48/78 59/73/44 26/93/79
f 73/110/80 75/111/81 74/112/82
f 61/113/83 27/48/21 26/93/64
f 66/114/84 64/115/74 62/116/85
f 66/117/86 68/106/86 67/118/86
f 72/119/87 30/120/88 69/121/89
f 73/122/90 72/123/87 70/124/91
f 29/125/92 73/122/93 71/126/94
f 78/127/95 77/128/96 74/129/97
f 79/130/98 78/127/99 75/131/100
f 32/132/101 79/133/98 76/134/102
f 77/135/103 32/136/104 80/137/105
f 80/137/105 76/138/106 62/116/107
f 81/139/108 84/140/109 80/141/110
f 82/142/111 74/143/112 77/144/103
f 82/145/113 84/146/114 85/147/115
f 83/148/116 87/149/117 81/150/116
f 81/151/118 64/152/66 83/153/119
f 82/142/111 64/94/66 63/96/68
f 82/154/120 86/155/121 83/156/122
f 30/157/123 87/158/124 33/50/125
f 30/157/123 29/159/126 84/160/127
f 85/161/128 29/159/126 71/162/129
f 27/48/78 85/161/128 60/163/130
f 33/50/125 86/164/131 27/48/78
f 11/1/1 25/165/1 21/2/1
f 1/4/2 7/166/2 22/5/2
f 8/7/3 1/4/3 18/6/3
f 5/9/4 10/38/4 24/10/4
f 5/12/5 9/16/7 4/13/6
f 11/15/5 2/20/9 9/16/7
f 3/17/5 13/22/10 12/18/8
f 6/19/5 12/18/8 2/20/9
f 7/21/5 14/24/11 13/22/10
f 1/23/5 15/27/13 14/24/11
f 10/14/5 4/13/6 16/25/12
f 8/26/5 16/25/12 15/27/13
f 21/28/5 25/32/5 17/29/5
f 20/31/5 24/167/5 17/29/5
f 17/29/5 18/35/5 22/33/5
f 17/29/5 24/167/5 23/34/5
f 5/9/14 20/11/14 25/36/14
f 10/38/15 8/168/15 23/39/15
f 3/40/16 19/169/16 22/41/16
f 6/3/17 21/2/17 19/43/17
f 75/47/20 70/170/132 72/171/133
f 72/171/133 69/172/134 33/45/18
f 33/45/18 62/173/25 76/46/19
f 76/46/19 79/174/135 75/47/20
f 75/47/20 72/171/133 33/45/18
f 27/48/21 68/175/136 65/49/22
f 33/51/18 65/176/24 66/52/24
f 47/56/28 54/95/67 57/54/26
f 57/54/26 48/177/137 42/178/27
f 34/55/27 38/179/138 47/56/28
f 57/54/26 42/178/27 34/55/27
f 34/57/29 2/20/9 12/18/8
f 42/59/31 9/16/7 2/20/9
f 55/180/139 46/181/140 39/60/32
f 39/60/32 35/182/141 43/61/33
f 43/61/33 51/183/142 58/62/34
f 58/62/34 55/180/139 39/60/32
f 35/63/35 13/22/10 14/24/11
f 39/65/37 12/18/8 13/22/10
f 61/68/39 52/184/143 40/185/144
f 36/66/38 44/186/145 49/67/38
f 61/68/39 40/185/144 36/66/38
f 49/67/38 56/105/39 61/68/39
f 4/13/6 36/70/41 40/69/40
f 9/16/7 44/82/53 36/70/41
f 59/73/44 50/187/146 41/188/147
f 59/73/44 41/188/147 37/189/42
f 53/72/43 26/93/79 59/73/44
f 59/73/44 37/189/42 45/71/42
f 16/25/12 45/78/49 37/74/45
f 15/27/13 37/74/45 41/75/46
f 39/65/37 46/190/148 47/76/47
f 47/76/47 38/58/30 12/18/8
f 45/78/49 16/25/12 40/69/40
f 40/69/40 52/191/149 53/77/48
f 51/80/51 43/64/36 14/24/11
f 14/24/11 41/75/46 50/79/50
f 9/16/7 42/59/31 48/81/52
f 48/81/52 49/192/150 44/82/53
f 46/83/54 55/193/151 54/84/55
f 56/86/57 49/194/58 48/87/58
f 51/89/60 50/195/152 59/90/61
f 52/92/63 61/113/83 26/93/64
f 64/94/66 57/54/26 54/95/67
f 63/100/71 55/196/70 58/101/72
f 56/86/57 57/88/59 64/103/74
f 56/105/76 67/118/76 68/106/76
f 27/48/78 60/163/130 59/73/44
f 74/112/82 63/197/153 60/198/154
f 60/198/154 71/199/155 73/110/80
f 73/110/80 70/200/156 75/111/81
f 75/111/81 78/201/157 74/112/82
f 74/112/82 60/198/154 73/110/80
f 61/113/83 68/175/136 27/48/21
f 66/114/84 67/104/75 64/115/74
f 66/117/86 65/202/86 68/106/86
f 72/119/87 28/203/158 30/120/88
f 73/122/90 28/204/158 72/123/87
f 29/125/92 28/204/159 73/122/93
f 78/127/95 31/205/160 77/128/96
f 79/130/98 31/205/161 78/127/99
f 32/132/101 31/206/161 79/133/98
f 77/135/103 31/207/162 32/136/104
f 62/116/107 81/151/118 80/137/105
f 80/137/105 32/136/104 76/138/106
f 81/139/108 87/208/163 84/140/109
f 77/144/103 80/137/105 82/142/111
f 82/142/111 63/96/68 74/143/112
f 82/145/113 80/209/164 84/146/114
f 83/148/116 86/210/165 87/149/117
f 81/151/118 62/116/107 64/152/66
f 82/142/111 83/153/119 64/94/66
f 82/154/120 85/211/166 86/155/121
f 33/50/125 69/212/167 30/157/123
f 30/157/123 84/160/127 87/158/124
f 30/157/123 28/213/168 29/159/126
f 71/162/129 60/163/130 85/161/128
f 85/161/128 84/160/127 29/159/126
f 27/48/78 86/164/131 85/161/128
f 33/50/125 87/158/124 86/164/131
o Cylinder
v 0.097975 1.418291 -2.530172
v -0.078363 1.332807 -2.530172
v 0.078788 1.333215 -2.530172
v 0.001204 0.951957 -2.010997
v 0.347681 1.119921 -2.010997
v 0.000309 1.295172 -2.530172
v -0.019169 1.380264 -2.561695
v 0.432388 1.495529 -2.010997
v -0.346145 1.118121 -2.010997
v 0.344069 1.122060 -2.527823
v 0.096544 1.417962 -2.561083
v -0.077217 1.333726 -2.561083
v 0.070191 1.451906 -2.560778
v 0.312580 1.646234 -2.010997
v 0.000622 0.956114 -2.527861
v 0.309195 1.643520 -2.528699
v 0.070700 1.452314 -2.530172
v 0.061272 1.444756 -2.561695
v 0.428624 1.494081 -2.527459
v 0.000307 1.296640 -2.561083
v 0.043423 1.486335 -2.530172
v -0.043790 1.486108 -2.530172
v -0.432796 1.493291 -2.010997
v -0.193504 1.794951 -2.010997
v -0.097989 1.417781 -2.530172
v 0.191536 1.795949 -2.010997
v -0.343116 1.120549 -2.527993
v 0.042790 1.485010 -2.561083
v -0.043148 1.484787 -2.561083
v -0.096556 1.417459 -2.561083
v 0.189304 1.792589 -2.527459
v -0.192202 1.790960 -2.527823
v -0.428865 1.491820 -2.527861
v 0.097975 1.418291 -1.491822
v -0.078363 1.332807 -1.491822
v 0.078788 1.333215 -1.491822
v 0.000309 1.295172 -1.491822
v -0.019169 1.380264 -1.460299
v 0.096473 1.417945 -1.460911
v 0.069616 1.451445 -1.460911
v 0.000622 0.956114 -1.494133
v 0.309195 1.643520 -1.493295
v 0.070700 1.452314 -1.491822
v 0.053924 1.438865 -1.460299
v 0.428624 1.494081 -1.494535
v 0.344069 1.122060 -1.494171
v 0.077581 1.334174 -1.460911
v 0.043423 1.486335 -1.491822
v -0.043790 1.486108 -1.491822
v -0.097989 1.417781 -1.491822
v -0.343116 1.120549 -1.494002
v -0.043116 1.484721 -1.460911
v -0.096484 1.417443 -1.460911
v -0.428865 1.491820 -1.494133
v 0.189304 1.792589 -1.494535
v -0.192202 1.790960 -1.494171
v 0.077638 1.334128 -2.561083
v 0.000307 1.296714 -1.460911
v -0.077160 1.333772 -1.460911
v 0.042759 1.484944 -1.460911
vn -0.0027 -0.0021 -1.0000
vn 0.0054 -0.0053 -1.0000
vn 0.0003 -0.0072 -1.0000
vn 0.0282 0.0226 -0.9993
vn 0.0199 0.0034 -0.9998
vn -0.0064 -0.0051 -1.0000
vn -0.4315 -0.9021 -0.0000
vn -0.4315 -0.9021 -0.0068
vn 0.4358 -0.9001 -0.0000
vn 0.4355 -0.9002 -0.0074
vn 0.4362 -0.8998 -0.0000
vn 0.9754 -0.2206 -0.0000
vn 0.9752 -0.2210 -0.0073
vn 0.9755 -0.2200 -0.0000
vn 0.0002 -0.0068 -1.0000
vn -0.0051 -0.0041 -1.0000
vn 0.0001 -0.0068 -1.0000
vn 0.0058 -0.0039 -1.0000
vn 0.0059 -0.0041 -1.0000
vn 0.0084 -0.0013 -1.0000
vn 0.0069 -0.0001 -1.0000
vn 0.0044 0.0035 -1.0000
vn 0.0038 0.0030 -1.0000
vn 0.4358 -0.8990 -0.0428
vn 0.9746 -0.2198 -0.0428
vn 0.7799 0.6252 -0.0303
vn 0.7837 0.6202 -0.0339
vn 0.7800 0.6254 -0.0213
vn -0.4311 -0.9013 -0.0428
vn -0.4312 -0.9013 -0.0428
vn 0.7815 0.6238 -0.0082
vn 0.7802 0.6255 -0.0000
vn 0.7828 0.6223 -0.0000
vn -0.0040 0.0065 -1.0000
vn -0.0070 0.0019 -1.0000
vn 0.0076 0.0187 -0.9998
vn -0.9744 -0.2250 -0.0000
vn -0.9743 -0.2250 -0.0068
vn -0.7837 0.6211 -0.0000
vn -0.7839 0.6208 -0.0074
vn -0.7842 0.6204 -0.0077
vn -0.0032 1.0000 -0.0000
vn -0.0036 1.0000 -0.0073
vn -0.0043 1.0000 -0.0077
vn -0.0066 0.0017 -1.0000
vn -0.0067 0.0015 -1.0000
vn -0.0025 0.0065 -1.0000
vn -0.0028 0.0066 -1.0000
vn 0.0006 0.0085 -1.0000
vn 0.0014 0.0068 -1.0000
vn -0.7827 0.6209 -0.0428
vn -0.7827 0.6209 -0.0427
vn -0.0026 0.9991 -0.0428
vn -0.0026 0.9991 -0.0427
vn 0.7758 0.6301 -0.0339
vn 0.7795 0.6250 -0.0427
vn -0.9735 -0.2248 -0.0428
vn 0.7789 0.6272 -0.0082
vn 0.7776 0.6287 -0.0000
vn 0.0054 -0.0052 1.0000
vn -0.0027 -0.0021 1.0000
vn 0.0003 -0.0072 1.0000
vn 0.0150 0.0014 0.9999
vn 0.0104 0.0083 0.9999
vn -0.0064 -0.0051 1.0000
vn -0.4315 -0.9021 0.0068
vn 0.4355 -0.9002 0.0074
vn 0.4350 -0.9004 0.0077
vn 0.9752 -0.2210 0.0073
vn 0.9751 -0.2216 0.0077
vn -0.0051 -0.0041 1.0000
vn 0.0002 -0.0068 1.0000
vn 0.0001 -0.0068 1.0000
vn 0.0058 -0.0039 1.0000
vn 0.0059 -0.0041 1.0000
vn 0.0084 -0.0013 1.0000
vn 0.0069 -0.0001 1.0000
vn 0.0044 0.0035 1.0000
vn 0.0038 0.0030 1.0000
vn 0.4358 -0.8989 0.0449
vn 0.9745 -0.2198 0.0449
vn 0.7794 0.6249 0.0449
vn -0.4311 -0.9012 0.0449
vn 0.7815 0.6238 0.0082
vn -0.0039 0.0064 1.0000
vn -0.0070 0.0019 1.0000
vn 0.0046 0.0144 0.9999
vn -0.9743 -0.2250 0.0068
vn -0.9743 -0.2250 -0.0000
vn -0.7839 0.6208 0.0074
vn -0.7834 0.6215 -0.0000
vn -0.0036 1.0000 0.0073
vn -0.0026 1.0000 -0.0000
vn -0.0066 0.0017 1.0000
vn -0.0067 0.0015 1.0000
vn -0.0025 0.0065 1.0000
vn -0.0028 0.0066 1.0000
vn 0.0006 0.0085 1.0000
vn 0.0014 0.0068 1.0000
vn -0.7827 0.6208 0.0449
vn -0.0026 0.9990 0.0449
vn -0.9734 -0.2248 0.0449
vn 0.7789 0.6272 0.0082
vn 0.0624 0.0500 -0.9968
vn 0.4350 -0.9004 -0.0077
vn 0.9751 -0.2216 -0.0077
vn -0.0050 -0.0040 -1.0000
vn 0.4358 -0.8990 -0.0427
vn 0.9746 -0.2198 -0.0427
vn 0.7795 0.6249 -0.0427
vn 0.7802 0.6255 -0.0084
vn 0.0237 0.0190 0.9995
vn -0.0050 -0.0040 1.0000
vn 0.7802 0.6255 0.0084
vn -0.7842 0.6204 0.0077
vn -0.0043 1.0000 0.0077
vt 0.721780 0.481399
vt 0.728890 0.482987
vt 0.724332 0.486622
vt 0.726611 0.475341
vt 0.728890 0.477158
vt 0.718649 0.485325
vt 0.912779 0.934412
vt 0.886785 0.972633
vt 0.886628 0.934412
vt 0.886289 0.934412
vt 0.870271 0.972633
vt 0.869990 0.934412
vt 0.215119 0.925041
vt 0.231509 0.886819
vt 0.231423 0.925041
vt 0.754629 0.938600
vt 0.775514 0.922493
vt 0.775514 0.928585
vt 0.775085 0.954956
vt 0.780277 0.932384
vt 0.800627 0.949161
vt 0.786216 0.931028
vt 0.806339 0.937338
vt 0.787538 0.928284
vt 0.252419 0.668157
vt 0.254536 0.664441
vt 0.254536 0.668157
vt 0.254546 0.641363
vt 0.252430 0.645080
vt 0.252430 0.641363
vt 0.254546 0.638381
vt 0.252430 0.638381
vt 0.254536 0.658478
vt 0.252419 0.664441
vt 0.252419 0.658478
vt 0.231848 0.886819
vt 0.244838 0.925041
vt 0.231762 0.925041
vt 0.718649 0.474821
vt 0.716120 0.480073
vt 0.724332 0.473524
vt 0.725802 0.476355
vt 0.961888 0.934412
vt 0.977917 0.972633
vt 0.961732 0.972633
vt 0.883327 0.857533
vt 0.909321 0.895754
vt 0.883412 0.895754
vt 0.909816 0.857533
vt 0.925835 0.895754
vt 0.909660 0.895754
vt 0.775085 0.896123
vt 0.780277 0.918695
vt 0.800627 0.901918
vt 0.786216 0.920050
vt 0.812021 0.925500
vt 0.788860 0.925539
vt 0.476779 0.654196
vt 0.478896 0.660158
vt 0.476779 0.660158
vt 0.254546 0.635400
vt 0.252430 0.631683
vt 0.254546 0.631683
vt 0.252430 0.635400
vt 0.478896 0.663877
vt 0.476779 0.663877
vt 0.257827 0.886819
vt 0.257913 0.925041
vt 0.718659 0.488231
vt 0.721780 0.494797
vt 0.716136 0.493471
vt 0.724329 0.486937
vt 0.725802 0.489753
vt 0.718659 0.498711
vt 0.886785 0.896190
vt 0.912693 0.896190
vt 0.870271 0.896190
vt 0.886446 0.896190
vt 0.231509 0.963262
vt 0.215382 0.963262
vt 0.848837 0.922493
vt 0.869721 0.938600
vt 0.848837 0.928585
vt 0.849266 0.954956
vt 0.844074 0.932384
vt 0.823724 0.949161
vt 0.838134 0.931028
vt 0.818011 0.937338
vt 0.836812 0.928284
vt 0.478907 0.673556
vt 0.476790 0.669840
vt 0.478907 0.669840
vt 0.252419 0.654760
vt 0.254536 0.658478
vt 0.252419 0.658478
vt 0.252419 0.651779
vt 0.254536 0.654760
vt 0.476790 0.663877
vt 0.478907 0.663877
vt 0.231848 0.963262
vt 0.728876 0.496379
vt 0.724329 0.500005
vt 0.728876 0.490563
vt 0.977917 0.896190
vt 0.978198 0.934412
vt 0.909321 0.819311
vt 0.909478 0.857533
vt 0.925835 0.819311
vt 0.926115 0.857533
vt 0.849266 0.896122
vt 0.844074 0.918695
vt 0.823724 0.901918
vt 0.838134 0.920050
vt 0.812329 0.925500
vt 0.835491 0.925539
vt 0.476109 0.654196
vt 0.473992 0.660158
vt 0.473992 0.654196
vt 0.252419 0.648798
vt 0.254536 0.645080
vt 0.254536 0.648798
vt 0.254536 0.651779
vt 0.473992 0.663877
vt 0.476109 0.660158
vt 0.476109 0.663877
vt 0.257827 0.963262
vt 0.726697 0.475233
vt 0.724367 0.473374
vt 0.912693 0.972633
vt 0.886446 0.972633
vt 0.215382 0.886819
vt 0.754646 0.912444
vt 0.254546 0.645080
vt 0.244838 0.886804
vt 0.478896 0.654196
vt 0.726603 0.488750
vt 0.869705 0.912444
vt 0.476790 0.673556
vt 0.244838 0.963278
vt 0.961732 0.896190
vt 0.883412 0.819311
vt 0.909660 0.819311
vt 0.252419 0.645080
s 1
usemtl Material.002
f 94/214/169 144/215/170 107/216/171
f 144/215/170 105/217/172 98/218/173
f 99/219/174 94/214/169 107/216/171
f 96/220/175 102/221/176 91/222/175
f 91/223/177 97/224/178 92/225/179
f 92/226/180 106/227/181 95/228/182
f 102/229/183 89/230/184 93/231/185
f 97/232/186 93/231/185 90/233/187
f 106/234/188 90/233/187 88/235/189
f 103/236/190 88/235/189 104/237/191
f 90/238/192 107/239/192 144/240/192
f 88/241/193 144/242/193 98/243/193
f 104/244/194 98/243/195 100/245/196
f 99/246/197 93/247/197 89/248/198
f 106/249/199 101/250/200 95/251/201
f 116/252/202 94/214/169 117/253/203
f 116/252/202 115/254/204 105/255/172
f 99/219/174 117/253/203 94/214/169
f 96/256/205 120/257/206 114/258/206
f 110/259/207 119/260/208 120/261/209
f 111/262/210 118/263/211 119/264/212
f 89/230/184 120/265/213 112/266/214
f 112/266/214 119/267/215 109/268/216
f 109/268/216 118/269/217 108/270/218
f 108/270/218 103/236/190 104/237/191
f 109/271/219 117/272/219 112/273/220
f 108/274/221 116/275/221 109/276/222
f 104/244/194 115/277/223 108/274/224
f 112/273/225 99/278/225 89/279/225
f 101/250/200 118/280/226 113/281/227
f 134/282/228 125/283/229 145/284/230
f 126/285/231 131/286/232 134/282/228
f 146/287/233 145/284/230 125/283/229
f 96/220/175 128/288/234 138/289/234
f 91/223/177 133/290/235 128/291/236
f 92/226/180 132/292/237 133/293/238
f 122/294/239 128/295/240 124/296/241
f 124/296/241 133/297/242 123/298/243
f 123/298/243 132/299/244 121/300/245
f 121/300/245 129/301/246 130/302/247
f 123/303/248 145/304/248 124/305/248
f 121/306/249 134/307/249 123/308/249
f 130/309/250 126/310/250 121/306/250
f 124/305/251 146/311/251 122/312/251
f 101/250/200 132/313/252 95/251/201
f 125/283/229 139/314/253 140/315/254
f 131/286/232 147/316/255 139/314/253
f 146/287/233 125/283/229 140/315/254
f 96/256/205 141/317/256 110/318/257
f 110/259/207 143/319/258 111/320/259
f 111/262/210 142/321/260 113/322/261
f 141/323/262 122/294/239 137/324/263
f 143/325/264 137/324/263 136/326/265
f 142/327/266 136/326/265 135/328/267
f 129/301/246 135/328/267 130/302/247
f 136/329/268 140/330/268 139/331/268
f 135/332/269 139/333/269 147/334/269
f 130/309/250 147/334/250 127/335/250
f 146/336/270 137/337/270 122/338/270
f 142/339/271 101/250/200 113/281/227
f 98/218/173 105/217/172 100/340/272
f 105/217/172 115/341/204 100/340/272
f 94/214/169 105/255/172 144/215/170
f 96/220/175 114/342/176 102/221/176
f 91/223/177 102/343/273 97/224/178
f 92/226/180 97/344/274 106/227/181
f 102/229/183 114/345/275 89/230/184
f 97/232/186 102/229/183 93/231/185
f 106/234/188 97/232/186 90/233/187
f 103/236/190 106/234/188 88/235/189
f 90/238/192 93/247/276 107/239/192
f 88/241/193 90/346/277 144/242/193
f 104/244/194 88/241/278 98/243/195
f 99/246/197 107/239/197 93/247/197
f 106/249/199 103/347/279 101/250/200
f 116/252/202 105/255/172 94/214/169
f 96/256/205 110/318/257 120/257/206
f 110/259/207 111/320/259 119/260/208
f 111/262/210 113/322/261 118/263/211
f 89/230/184 114/345/275 120/265/213
f 112/266/214 120/265/213 119/267/215
f 109/268/216 119/267/215 118/269/217
f 108/270/218 118/269/217 103/236/190
f 109/271/219 116/348/219 117/272/219
f 108/274/221 115/277/221 116/275/221
f 104/244/194 100/245/196 115/277/223
f 112/273/225 117/272/225 99/278/225
f 101/250/200 103/347/279 118/280/226
f 134/282/228 131/286/232 125/283/229
f 126/285/231 127/349/280 131/286/232
f 96/220/175 91/222/175 128/288/234
f 91/223/177 92/225/179 133/290/235
f 92/226/180 95/228/182 132/292/237
f 122/294/239 138/350/281 128/295/240
f 124/296/241 128/295/240 133/297/242
f 123/298/243 133/297/242 132/299/244
f 121/300/245 132/299/244 129/301/246
f 123/303/248 134/351/248 145/304/248
f 121/306/249 126/310/249 134/307/249
f 130/309/250 127/335/250 126/310/250
f 124/305/251 145/304/251 146/311/251
f 101/250/200 129/352/282 132/313/252
f 125/283/229 131/286/232 139/314/253
f 131/286/232 127/349/280 147/316/255
f 96/256/205 138/353/256 141/317/256
f 110/259/207 141/354/283 143/319/258
f 111/262/210 143/355/284 142/321/260
f 141/323/262 138/350/281 122/294/239
f 143/325/264 141/323/262 137/324/263
f 142/327/266 143/325/264 136/326/265
f 129/301/246 142/327/266 135/328/267
f 136/329/268 137/337/268 140/330/268
f 135/332/269 136/356/269 139/333/269
f 130/309/250 135/332/250 147/334/250
f 146/336/270 140/330/270 137/337/270
f 142/339/271 129/352/282 101/250/200
o Cube.002
v 0.096959 1.849228 1.681957
v 0.096959 2.000328 1.681957
v 0.096959 1.849228 1.932793
v 0.096959 2.000328 1.932793
v -0.096959 1.849228 1.681957
v -0.096959 2.000328 1.681957
v -0.096959 1.849228 1.932793
v -0.096959 2.000328 1.932793
v 0.096959 1.849228 1.807375
v 0.096959 2.000328 1.698787
v -0.096959 1.849228 1.807375
v -0.096959 2.000328 1.698787
v 0.038320 2.206122 1.807375
v 0.038320 2.206122 1.932793
v -0.038320 2.206122 1.932793
v -0.038320 2.206122 1.807375
v 0.096959 1.849228 1.533296
v 0.096959 2.000328 1.654645
v -0.096959 2.000328 1.654645
v -0.096959 1.849228 1.533296
vn 1.0000 -0.0000 -0.0000
vn 0.9902 0.1394 -0.0000
vn -0.0000 -0.0000 1.0000
vn -0.9968 0.0804 -0.0000
vn -1.0000 -0.0000 -0.0000
vn -0.0000 1.0000 -0.0000
vn -0.0000 -1.0000 -0.0000
vn 0.9617 0.2740 -0.0000
vn -0.9902 0.1394 -0.0000
vn 0.9968 0.0804 -0.0000
vn -0.0000 0.4667 -0.8844
vn -0.9617 0.2740 -0.0000
vn -0.0000 0.6262 -0.7797
vt 0.410167 0.327098
vt 0.479032 0.189573
vt 0.479032 0.327098
vt 0.479032 0.692811
vt 0.616761 0.830540
vt 0.479032 0.830540
vt 0.388165 0.516671
vt 0.397406 0.654196
vt 0.328541 0.654196
vt 0.967060 0.137729
vt 0.952064 0.000000
vt 0.967060 0.000000
vt 0.000000 0.680008
vt 0.137729 0.611143
vt 0.137729 0.680008
vt 0.976301 0.137729
vt 0.976301 0.000000
vt 0.410167 0.000000
vt 0.479032 0.000000
vt 0.000000 0.748872
vt 0.137729 0.748872
vt 0.259677 0.516671
vt 0.259677 0.654196
vt 0.341303 0.327098
vt 0.350544 0.189573
vt 0.106302 0.955466
vt 0.160734 0.886601
vt 0.160734 0.955466
vt 0.575113 0.505227
vt 0.616761 0.692811
vt 0.616761 0.701557
vt 0.712842 0.505227
vt 0.754490 0.701557
vt 0.328541 0.327098
vt 0.616761 0.701557
vt 0.754490 0.854166
vt 0.616761 0.854166
vt 0.412402 0.516671
vt 0.479032 0.654196
vt 0.326307 0.189573
vt 0.341303 0.189573
vt 0.000000 0.611143
vt 0.137729 0.529517
vt 0.397406 0.516671
vt 0.952064 0.137729
vt 0.106302 0.886601
vt 0.520680 0.505227
vt 0.658409 0.505227
vt 0.259677 0.327098
vt 0.754490 0.701557
vt 0.000000 0.529517
s 1
usemtl Material
f 156/357/285 151/358/286 150/359/285
f 151/360/287 154/361/287 150/362/287
f 159/363/288 152/364/289 158/365/289
f 149/366/290 166/367/290 153/368/290
f 158/369/291 148/370/291 156/371/291
f 157/372/290 153/368/290 159/373/290
f 151/358/286 160/374/292 161/375/292
f 154/376/291 156/371/291 150/377/291
f 155/378/293 158/365/289 154/379/289
f 148/380/285 157/381/294 156/357/285
f 161/382/290 163/383/290 162/384/290
f 151/360/287 162/385/287 155/386/287
f 159/387/295 160/388/295 157/389/295
f 155/378/293 163/390/296 159/363/288
f 166/391/297 164/392/297 167/393/297
f 152/364/289 166/394/289 167/395/289
f 148/380/285 165/396/285 149/397/285
f 152/398/291 164/399/291 148/370/291
f 156/357/285 157/381/294 151/358/286
f 151/360/287 155/386/287 154/361/287
f 159/363/288 153/400/289 152/364/289
f 149/366/290 165/401/290 166/367/290
f 158/369/291 152/398/291 148/370/291
f 157/372/290 149/366/290 153/368/290
f 151/358/286 157/381/294 160/374/292
f 154/376/291 158/369/291 156/371/291
f 155/378/293 159/363/288 158/365/289
f 148/380/285 149/397/285 157/381/294
f 161/382/290 160/402/290 163/383/290
f 151/360/287 161/403/287 162/385/287
f 159/387/295 163/404/295 160/388/295
f 155/378/293 162/405/296 163/390/296
f 166/391/297 165/406/297 164/392/297
f 152/364/289 153/400/289 166/394/289
f 148/380/285 164/405/285 165/396/285
f 152/398/291 167/407/291 164/399/291
o Cube.003
v -0.148275 0.911678 -2.911905
v -0.147450 2.039111 -2.911905
v -0.148275 0.911678 -2.619197
v -0.146354 2.040853 -2.618126
v 0.000000 0.911678 -2.619197
v 0.000000 2.039044 -2.617590
v 0.000000 0.911678 -2.911905
v -0.148275 1.711171 -2.618106
v -0.148275 1.982376 -2.911905
v 0.000000 1.982376 -2.911905
v 0.000000 1.711171 -2.618106
v -0.148275 1.982376 -2.994249
v -0.148275 1.381973 -3.108556
v 0.000000 1.982376 -2.994249
v 0.000000 1.381973 -3.108556
v -0.145212 2.217317 -2.619197
v -0.145212 2.217288 -2.911905
v -0.073177 2.159375 -2.619197
v -0.131684 2.217882 -2.619197
v -0.090313 2.200746 -2.619197
v -0.131684 2.217882 -2.911905
v -0.073177 2.159375 -2.911905
v -0.090313 2.200746 -2.911905
v -0.265889 1.711171 -2.618106
v -0.265889 0.911678 -2.619197
v -0.265889 1.381973 -3.108556
v 0.000000 2.028574 -2.484471
v -0.268481 1.863663 -2.617590
v -0.231564 2.022095 -2.911905
v -0.232711 1.988250 -2.480853
v -0.268481 1.762180 -2.525281
v -0.146354 2.162906 -2.619197
v -0.146354 2.160114 -2.911905
v -0.229045 1.989946 -2.617590
v -0.265889 1.982376 -2.911905
v -0.265889 0.911678 -2.911905
v -0.265889 1.982376 -2.994249
v -0.069995 0.911678 -2.619197
v -0.069995 2.039044 -2.617590
v -0.069995 0.911678 -2.911905
v -0.069995 1.711171 -2.618106
v -0.069995 1.982376 -2.911905
v -0.069995 1.381973 -3.108556
v -0.069995 1.982376 -2.994249
v -0.068935 1.761280 -2.526919
v -0.068935 2.028480 -2.483265
v -0.073177 2.044319 -2.619197
v -0.073177 2.044319 -2.911905
v -0.147260 2.028243 -2.485677
v -0.073177 2.028859 -2.488089
v -0.268481 1.864130 -2.484471
v 0.000000 1.760830 -2.527738
v -0.073177 1.759481 -2.530194
v -0.230267 1.989374 -2.485677
v -0.265025 1.760380 -2.528556
v -0.149071 2.037431 -2.617590
v -0.149071 2.027030 -2.480853
v -0.148275 1.760830 -2.527738
v 0.000000 2.038058 -2.911905
v -0.233412 1.985338 -2.617590
v -0.069995 2.038058 -2.911905
v -0.234113 1.983374 -2.484471
v 0.148275 0.911678 -2.911905
v 0.147450 2.039111 -2.911905
v 0.148275 0.911678 -2.619197
v 0.146354 2.040853 -2.618126
v 0.148275 1.711171 -2.618106
v 0.148275 1.982376 -2.911905
v 0.148275 1.982376 -2.994249
v 0.148275 1.381973 -3.108556
v 0.145212 2.217317 -2.619197
v 0.145212 2.217288 -2.911905
v 0.073177 2.159375 -2.619197
v 0.131684 2.217882 -2.619197
v 0.090313 2.200746 -2.619197
v 0.131684 2.217882 -2.911905
v 0.073177 2.159375 -2.911905
v 0.090313 2.200746 -2.911905
v 0.265889 1.711171 -2.618106
v 0.265889 0.911678 -2.619197
v 0.265889 1.381973 -3.108556
v 0.268481 1.863663 -2.617590
v 0.231564 2.022095 -2.911905
v 0.232711 1.988250 -2.480853
v 0.268481 1.762180 -2.525281
v 0.146354 2.162906 -2.619197
v 0.146354 2.160114 -2.911905
v 0.229045 1.989946 -2.617590
v 0.265889 1.982376 -2.911905
v 0.265889 0.911678 -2.911905
v 0.265889 1.982376 -2.994249
v 0.069995 0.911678 -2.619197
v 0.069995 2.039044 -2.617590
v 0.069995 0.911678 -2.911905
v 0.069995 1.711171 -2.618106
v 0.069995 1.982376 -2.911905
v 0.069995 1.381973 -3.108556
v 0.069995 1.982376 -2.994249
v 0.068935 1.761280 -2.526919
v 0.068935 2.028480 -2.483265
v 0.073177 2.044319 -2.619197
v 0.073177 2.044319 -2.911905
v 0.147260 2.028243 -2.485677
v 0.073177 2.028859 -2.488089
v 0.268481 1.864130 -2.484471
v 0.073177 1.759481 -2.530194
v 0.230267 1.989374 -2.485677
v 0.265025 1.760380 -2.528556
v 0.149071 2.037431 -2.617590
v 0.149071 2.027030 -2.480853
v 0.148275 1.760830 -2.527738
v 0.233412 1.985338 -2.617590
v 0.069995 2.038058 -2.911905
v 0.234113 1.983374 -2.484471
vn 0.6044 -0.2344 0.7614
vn 0.6205 -0.2345 0.7483
vn 0.6254 -0.2344 0.7442
vn -0.0000 -1.0000 -0.0000
vn -0.0000 0.9993 0.0376
vn -0.0000 1.0000 -0.0034
vn 0.0076 0.9986 0.0514
vn -0.0000 -0.0014 1.0000
vn -0.0000 0.1870 -0.9824
vn -0.0000 1.0000 -0.0000
vn -0.0000 -0.3858 -0.9226
vn 1.0000 -0.0000 -0.0000
vn -1.0000 0.0023 0.0009
vn -0.9999 0.0133 0.0013
vn -1.0000 0.0091 0.0037
vn 0.9808 0.1951 -0.0000
vn 0.9239 0.3827 -0.0000
vn 0.3827 0.9239 -0.0000
vn 0.1746 0.9846 -0.0000
vn 0.0091 0.0166 0.9998
vn 0.0031 0.0034 1.0000
vn 0.0002 0.0043 1.0000
vn -0.0418 0.9991 -0.0000
vn 0.1736 0.9848 -0.0000
vn -0.0438 0.9990 -0.0001
vn 0.9725 0.2329 -0.0000
vn 0.9578 0.2874 -0.0010
vn -0.9690 0.2446 0.0342
vn -1.0000 -0.0000 -0.0000
vn -1.0000 -0.0077 0.0017
vn -0.6176 0.7846 0.0547
vn -0.5228 0.8509 0.0512
vn -0.8656 0.4987 0.0461
vn -0.9937 0.1111 0.0169
vn -0.0006 -0.1581 0.9874
vn -0.0262 -0.1601 0.9868
vn -0.0093 -0.1553 0.9878
vn -0.5658 0.3064 -0.7655
vn -0.0000 -0.8764 0.4816
vn -0.0009 0.9965 0.0830
vn -0.0052 0.9955 0.0943
vn -0.0015 0.9968 0.0797
vn -0.0000 -0.0000 -1.0000
vn -0.4480 0.8930 0.0440
vn -0.6652 0.7466 0.0029
vn -0.4231 0.9035 0.0683
vn -0.6455 0.7620 0.0527
vn -0.0002 -0.1811 0.9835
vn 0.0155 -0.1756 0.9843
vn -0.0062 -0.1831 0.9831
vn 0.0164 -0.1609 0.9868
vn 0.0107 -0.1595 0.9871
vn -0.9999 0.0105 -0.0000
vn -0.9998 0.0201 -0.0002
vn 0.8911 0.4539 -0.0000
vn 0.8565 0.5161 -0.0017
vn 0.0002 0.2915 0.9566
vn 0.0066 0.1645 0.9864
vn -0.0000 0.9969 0.0784
vn 0.0137 0.9964 0.0842
vn -0.9996 -0.0244 0.0105
vn -0.9892 0.1467 -0.0005
vn -0.9148 0.4040 0.0011
vn -0.7811 0.6239 0.0239
vn 0.9393 -0.0568 0.3384
vn -0.7832 0.6218 -0.0008
vn -0.8275 0.4680 -0.3101
vn -0.0000 -0.0000 1.0000
vn -0.6254 -0.2344 0.7442
vn -0.6205 -0.2345 0.7483
vn -0.6044 -0.2344 0.7614
vn -0.0076 0.9986 0.0514
vn 0.9999 0.0133 0.0013
vn 1.0000 0.0023 0.0009
vn 1.0000 0.0091 0.0037
vn -0.9239 0.3827 -0.0000
vn -0.9808 0.1951 -0.0000
vn -0.1746 0.9846 -0.0000
vn -0.3827 0.9239 -0.0000
vn -0.0091 0.0166 0.9998
vn -0.0031 0.0034 1.0000
vn -0.0066 0.1645 0.9864
vn 0.0418 0.9991 -0.0000
vn -0.1736 0.9848 -0.0000
vn -0.9725 0.2329 -0.0000
vn -0.9578 0.2874 -0.0010
vn 0.9690 0.2446 0.0342
vn 1.0000 -0.0077 0.0017
vn 0.6176 0.7846 0.0547
vn 0.8656 0.4987 0.0461
vn 0.5228 0.8509 0.0512
vn 0.0006 -0.1581 0.9874
vn 0.0262 -0.1601 0.9868
vn 0.0062 -0.1612 0.9869
vn 0.9937 0.1111 0.0169
vn 0.5658 0.3064 -0.7655
vn 0.0009 0.9965 0.0830
vn 0.0015 0.9968 0.0797
vn 0.0052 0.9955 0.0943
vn 0.4480 0.8930 0.0440
vn 0.4231 0.9035 0.0683
vn 0.6652 0.7466 0.0029
vn 0.6455 0.7620 0.0527
vn 0.1983 0.9801 0.0045
vn 0.0002 -0.1811 0.9835
vn -0.0155 -0.1756 0.9843
vn -0.0219 -0.1734 0.9846
vn -0.0164 -0.1609 0.9868
vn -0.0107 -0.1595 0.9871
vn 0.9998 0.0201 -0.0002
vn 0.9999 0.0105 -0.0000
vn -0.8911 0.4539 -0.0000
vn -0.8565 0.5161 -0.0017
vn -0.0002 0.2915 0.9566
vn -0.0137 0.9964 0.0842
vn 0.9996 -0.0244 0.0105
vn 0.9148 0.4040 0.0011
vn 0.7811 0.6239 0.0239
vn -0.9393 -0.0568 0.3384
vn 0.7832 0.6218 -0.0008
vn 0.8275 0.4680 -0.3101
vn 0.6016 -0.2343 0.7637
vn 0.7902 -0.2278 0.5690
vn -0.0062 -0.1612 0.9869
vn -0.1983 0.9801 0.0045
vn 0.0219 -0.1734 0.9846
vn -0.9998 0.0210 -0.0000
vn -0.6016 -0.2343 0.7637
vn -0.7902 -0.2278 0.5690
vn -0.0002 0.0043 1.0000
vn 0.0438 0.9990 -0.0001
vn 0.0093 -0.1553 0.9878
vn 0.0062 -0.1831 0.9831
vn 0.9998 0.0210 -0.0000
vn 0.9892 0.1467 -0.0005
vt 0.932641 0.379129
vt 0.929562 0.381517
vt 0.824199 0.397442
vt 0.893064 0.137729
vt 0.858631 0.271134
vt 0.858631 0.137729
vt 0.137729 0.667283
vt 0.169133 0.529561
vt 0.169133 0.667246
vt 0.639788 0.000049
vt 0.674214 0.374939
vt 0.639788 0.374890
vt 0.536497 -0.000000
vt 0.570929 0.278684
vt 0.536497 0.278684
vt 0.573923 -0.000000
vt 0.605361 0.278684
vt 0.573923 0.278684
vt 0.950529 0.172124
vt 0.989262 0.206565
vt 0.950529 0.206520
vt 0.536497 0.505227
vt 0.570929 0.505227
vt 0.824199 0.000000
vt 0.731669 0.281176
vt 0.785454 0.000000
vt 0.950529 0.137729
vt 0.989262 0.169179
vt 0.950529 0.169134
vt 0.964324 0.643059
vt 0.910169 0.505266
vt 0.964380 0.505346
vt 0.417563 0.791925
vt 0.397406 0.654196
vt 0.417563 0.654196
vt 0.966806 0.505460
vt 0.985878 0.642920
vt 0.966806 0.643146
vt 0.917544 0.816607
vt 0.883118 0.762645
vt 0.917544 0.761036
vt 0.991163 0.642914
vt 0.985878 0.505235
vt 0.991163 0.505229
vt 0.471445 0.791925
vt 0.471445 0.654196
vt 0.208715 0.033380
vt 0.259677 0.324822
vt 0.136299 0.529517
vt 0.054033 0.139638
vt 0.000000 0.509827
vt 0.246459 0.667739
vt 0.247472 0.529666
vt 0.248230 0.667763
vt 0.072439 0.011850
vt 0.064386 0.068701
vt 0.824199 0.305560
vt 0.950631 0.340201
vt 0.824199 0.339987
vt 0.003368 0.059669
vt 0.015897 0.110987
vt 0.013792 0.109406
vt 0.674967 0.911631
vt 0.674967 0.946064
vt 0.672413 0.946064
vt 0.172349 0.729035
vt 0.206757 0.732406
vt 0.172361 0.732446
vt 0.715966 0.445693
vt 0.697526 0.483425
vt 0.690574 0.445184
vt 0.208049 0.729009
vt 0.246459 0.732814
vt 0.208061 0.732419
vt 0.207832 0.667220
vt 0.245734 0.529660
vt 0.989262 0.208371
vt 0.950529 0.261486
vt 0.950529 0.208326
vt 0.534689 0.505227
vt 0.481472 0.278684
vt 0.534689 0.278684
vt 0.481472 -0.000000
vt 0.534689 -0.000000
vt 0.894872 0.137729
vt 0.948089 0.271134
vt 0.894872 0.271134
vt 0.676022 0.000100
vt 0.729230 0.375017
vt 0.676021 0.374942
vt 0.824199 0.341794
vt 0.824199 0.395002
vt 0.950631 0.271349
vt 0.824199 0.302567
vt 0.824199 0.271134
vt 0.573923 0.505227
vt 0.605361 0.505227
vt 0.605361 0.000000
vt 0.636794 0.374886
vt 0.605361 0.374842
vt 0.855637 0.137729
vt 0.824199 0.271134
vt 0.824199 0.137729
vt 0.908862 0.642978
vt 0.883951 0.505228
vt 0.473856 0.791925
vt 0.473856 0.654196
vt 0.917544 0.819093
vt 0.883118 0.819044
vt 0.883118 0.816629
vt 0.632492 0.443885
vt 0.686875 0.409453
vt 0.686860 0.443885
vt 0.169139 0.668760
vt 0.137954 0.729075
vt 0.137735 0.668797
vt 0.720118 0.949058
vt 0.674967 0.949058
vt 0.246459 0.669251
vt 0.207837 0.668734
vt 0.206525 0.668717
vt 0.172130 0.668757
vt 0.720118 0.911631
vt 0.062891 0.068480
vt 0.398922 0.791925
vt 0.449379 0.919239
vt 0.410394 0.944702
vt 0.248230 0.669274
vt 0.246459 0.729410
vt 0.674967 0.980496
vt 0.169358 0.729039
vt 0.011421 0.002817
vt 0.070944 0.011628
vt 0.720118 0.909823
vt 0.674967 0.856606
vt 0.720118 0.856606
vt 0.206744 0.728995
vt 0.950040 0.341480
vt 0.206520 0.667202
vt 0.207808 0.529522
vt 0.689293 0.409453
vt 0.011749 0.000499
vt 0.690338 0.443885
vt 0.715966 0.409453
vt 0.715966 0.443885
vt 0.690338 0.406459
vt 0.715966 0.375020
vt 0.715966 0.406459
vt 0.008053 0.002318
vt 0.008381 0.000000
vt 0.605361 0.436982
vt 0.613409 0.417516
vt 0.910642 0.735232
vt 0.917544 0.736037
vt 0.211312 0.013903
vt 0.950631 0.305775
vt 0.720118 0.946064
vt 0.053098 0.138936
vt 0.720118 0.980496
vt 0.605361 0.442273
vt 0.891180 0.743245
vt 0.873613 0.397765
vt 0.893064 0.271134
vt 0.137729 0.529597
vt 0.674214 0.000097
vt 0.570929 -0.000000
vt 0.605361 -0.000000
vt 0.989262 0.172170
vt 0.824199 0.501420
vt 0.989262 0.137774
vt 0.397406 0.791925
vt 0.247058 0.038919
vt 0.715966 0.498910
vt 0.989262 0.261531
vt 0.481472 0.505227
vt 0.948089 0.137729
vt 0.729230 0.000175
vt 0.950631 0.302781
vt 0.636794 0.000045
vt 0.855637 0.271134
vt 0.883911 0.642942
vt 0.632839 0.409453
vt 0.459285 0.791925
vt 0.674967 0.909823
vt 0.690338 0.409453
vt 0.690338 0.375020
s 1
usemtl Material
f 221/408/298 229/409/299 198/410/300
f 170/411/301 207/412/301 205/413/301
f 173/414/302 228/415/303 206/416/304
f 208/417/305 170/418/305 205/419/305
f 179/420/306 210/421/306 180/422/306
f 211/423/306 182/424/306 210/425/306
f 209/426/307 179/427/307 176/428/307
f 168/429/308 210/421/308 207/430/308
f 177/431/309 182/432/309 181/433/309
f 177/434/307 211/435/307 209/436/307
f 171/437/310 200/438/311 169/439/312
f 189/440/313 187/441/314 185/442/313
f 190/443/315 186/444/316 187/445/315
f 171/446/317 185/447/318 199/448/319
f 183/449/320 188/450/321 184/451/322
f 215/452/323 185/442/313 214/453/324
f 202/454/325 193/455/326 203/456/326
f 191/457/327 203/456/326 192/458/326
f 201/459/328 196/460/329 227/461/330
f 227/462/330 202/454/325 195/463/331
f 212/464/332 216/465/333 225/466/334
f 191/457/327 195/463/331 202/454/325
f 218/467/335 222/468/335 198/469/335
f 225/470/336 220/471/336 212/472/336
f 217/473/337 216/474/338 213/475/339
f 176/476/340 196/477/340 169/478/340
f 216/479/341 221/480/342 224/481/343
f 223/482/344 196/483/329 201/459/328
f 179/484/307 202/485/307 176/486/307
f 168/487/308 193/488/308 180/489/308
f 180/489/306 204/490/306 179/491/306
f 170/492/301 203/493/301 168/494/301
f 175/495/305 192/496/305 170/497/305
f 225/498/345 221/408/346 222/499/347
f 194/500/348 212/501/332 219/502/349
f 207/503/308 182/424/308 174/504/308
f 178/505/305 205/506/305 172/507/305
f 205/508/301 174/509/301 172/510/301
f 199/511/350 184/512/351 200/438/311
f 228/513/352 214/453/324 206/514/353
f 171/515/317 206/516/354 214/517/355
f 200/518/340 215/519/340 169/520/340
f 206/521/304 194/522/356 173/523/302
f 208/524/336 212/525/336 220/471/336
f 201/526/328 216/479/341 223/527/344
f 171/528/357 217/473/337 206/529/304
f 175/530/336 220/471/336 225/470/336
f 195/531/331 222/468/358 218/467/359
f 173/532/309 219/533/309 178/534/309
f 201/526/328 227/535/330 221/536/342
f 208/524/336 219/537/336 212/525/336
f 206/529/304 217/473/337 213/538/339
f 195/531/331 229/539/360 227/540/330
f 175/541/336 222/542/336 191/543/336
f 171/528/361 223/527/344 216/544/341
f 225/466/362 216/465/362 224/545/362
f 171/546/361 169/547/363 223/482/344
f 169/520/340 215/519/340 228/548/340
f 227/540/330 229/539/360 221/549/342
f 169/550/340 209/551/340 176/552/340
f 228/553/340 177/554/340 209/555/340
f 221/549/364 229/556/364 197/557/364
f 200/518/340 188/558/340 190/559/340
f 185/447/318 186/560/365 183/561/365
f 252/410/366 281/409/367 274/408/368
f 261/412/301 232/411/301 259/413/301
f 280/415/303 173/414/302 260/416/369
f 232/418/305 262/417/305 259/419/305
f 264/421/306 236/420/306 237/422/306
f 182/424/306 265/423/306 264/425/306
f 236/427/307 263/426/307 235/428/307
f 264/421/308 230/429/308 261/430/308
f 265/435/307 177/434/307 263/436/307
f 254/438/370 233/437/371 231/439/372
f 242/441/373 244/440/374 240/442/374
f 241/444/375 245/443/376 242/445/376
f 233/446/377 240/447/378 268/517/379
f 238/449/380 243/450/381 241/444/375
f 240/442/374 269/452/382 268/453/383
f 248/455/309 256/454/384 257/456/309
f 257/456/309 246/457/385 247/458/309
f 255/459/386 279/461/387 250/460/388
f 279/462/387 256/454/384 250/562/388
f 266/464/389 270/465/390 267/563/391
f 246/457/385 256/454/384 249/463/392
f 272/467/393 252/469/393 275/468/393
f 278/470/336 266/472/336 273/471/336
f 271/473/394 267/475/395 270/474/396
f 250/477/340 235/476/340 231/478/340
f 270/479/397 277/481/398 274/480/399
f 276/482/400 250/483/388 231/547/401
f 256/485/307 236/484/307 235/486/307
f 248/488/308 230/487/308 237/489/308
f 258/490/306 237/489/306 236/491/306
f 257/493/301 232/492/301 230/494/301
f 247/496/305 234/495/305 232/497/305
f 278/498/402 274/408/403 277/545/404
f 266/501/389 194/500/405 219/502/406
f 182/424/308 261/503/308 174/504/308
f 259/506/305 178/505/305 172/507/305
f 174/509/301 259/508/301 172/510/301
f 239/512/407 253/511/408 254/438/370
f 268/453/383 280/513/409 260/514/410
f 233/515/377 268/517/379 260/516/411
f 269/519/340 254/518/340 231/520/340
f 194/522/356 260/521/369 173/523/302
f 262/524/336 273/471/336 266/525/336
f 270/479/397 255/526/386 276/527/400
f 271/473/394 233/528/412 260/529/369
f 234/530/336 273/471/336 262/564/336
f 249/531/392 275/468/413 246/565/385
f 255/526/386 274/536/399 279/535/387
f 262/524/336 219/537/336 178/566/336
f 260/529/369 267/538/395 271/473/394
f 281/539/414 249/531/392 279/540/387
f 275/542/336 234/541/336 246/543/336
f 233/528/415 270/544/397 276/527/400
f 278/466/416 277/545/416 270/465/416
f 233/546/415 276/482/400 231/547/417
f 231/520/340 280/548/340 269/519/340
f 279/540/387 274/549/399 281/539/414
f 263/551/340 231/550/340 235/552/340
f 177/554/340 280/553/340 263/555/340
f 274/549/418 251/557/418 281/556/418
f 245/559/340 239/567/340 254/518/340
f 238/561/365 242/568/365 240/447/378
f 198/410/300 222/499/419 221/408/298
f 229/409/299 218/569/420 198/410/300
f 170/411/301 168/570/301 207/412/301
f 173/414/302 226/571/303 228/415/303
f 208/417/305 175/572/305 170/418/305
f 179/420/306 211/573/306 210/421/306
f 211/423/306 181/574/306 182/424/306
f 209/426/307 211/575/307 179/427/307
f 168/429/308 180/422/308 210/421/308
f 177/431/309 174/576/309 182/432/309
f 177/434/307 181/577/307 211/435/307
f 171/437/310 199/511/350 200/438/311
f 189/440/313 190/578/314 187/441/314
f 190/443/315 188/450/321 186/444/316
f 171/446/317 214/517/355 185/447/318
f 183/449/320 186/444/316 188/450/321
f 215/452/323 189/440/313 185/442/313
f 202/454/325 204/579/326 193/455/326
f 191/457/327 202/454/325 203/456/326
f 227/462/330 196/562/329 202/454/325
f 212/464/332 213/563/421 216/465/333
f 176/476/340 202/580/340 196/477/340
f 223/482/344 169/547/422 196/483/329
f 179/484/307 204/581/307 202/485/307
f 168/487/308 203/582/308 193/488/308
f 180/489/306 193/488/306 204/490/306
f 170/492/301 192/583/301 203/493/301
f 175/495/305 191/584/305 192/496/305
f 225/498/345 224/545/423 221/408/346
f 194/500/348 213/585/421 212/501/332
f 207/503/308 210/425/308 182/424/308
f 178/505/305 208/586/305 205/506/305
f 205/508/301 207/587/301 174/509/301
f 199/511/350 183/588/424 184/512/351
f 228/513/352 215/452/323 214/453/324
f 200/518/340 189/589/340 215/519/340
f 206/521/304 213/538/339 194/522/356
f 201/526/328 221/536/342 216/479/341
f 171/528/357 216/544/338 217/473/337
f 175/530/336 208/564/336 220/471/336
f 195/531/331 191/565/327 222/468/358
f 173/532/309 194/590/309 219/533/309
f 208/524/336 178/566/336 219/537/336
f 195/531/331 218/467/359 229/539/360
f 175/541/336 225/591/336 222/542/336
f 169/550/340 228/592/340 209/551/340
f 228/553/340 226/593/340 177/554/340
f 190/559/340 189/589/340 200/518/340
f 200/518/340 184/567/340 188/558/340
f 183/561/365 199/448/319 185/447/318
f 185/447/318 187/568/365 186/560/365
f 274/408/368 275/499/425 252/410/366
f 252/410/366 272/569/426 281/409/367
f 261/412/301 230/570/301 232/411/301
f 280/415/303 226/571/303 173/414/302
f 232/418/305 234/572/305 262/417/305
f 264/421/306 265/573/306 236/420/306
f 182/424/306 181/574/306 265/423/306
f 236/427/307 265/575/307 263/426/307
f 264/421/308 237/422/308 230/429/308
f 265/435/307 181/577/307 177/434/307
f 254/438/370 253/511/408 233/437/371
f 242/441/373 245/578/373 244/440/374
f 241/444/375 243/450/381 245/443/376
f 233/446/377 253/448/427 240/447/378
f 238/449/380 239/451/428 243/450/381
f 240/442/374 244/440/374 269/452/382
f 248/455/309 258/579/309 256/454/384
f 257/456/309 256/454/384 246/457/385
f 279/462/387 249/463/392 256/454/384
f 266/464/389 278/466/429 270/465/390
f 250/477/340 256/580/340 235/476/340
f 276/482/400 255/459/386 250/483/388
f 256/485/307 258/581/307 236/484/307
f 248/488/308 257/582/308 230/487/308
f 258/490/306 248/488/306 237/489/306
f 257/493/301 247/583/301 232/492/301
f 247/496/305 246/584/305 234/495/305
f 278/498/402 275/499/430 274/408/403
f 266/501/389 267/585/391 194/500/405
f 182/424/308 264/425/308 261/503/308
f 259/506/305 262/586/305 178/505/305
f 174/509/301 261/587/301 259/508/301
f 239/512/407 238/588/431 253/511/408
f 268/453/383 269/452/382 280/513/409
f 269/519/340 244/589/340 254/518/340
f 194/522/356 267/538/395 260/521/369
f 270/479/397 274/536/399 255/526/386
f 271/473/394 270/544/396 233/528/412
f 234/530/336 278/470/336 273/471/336
f 249/531/392 272/467/432 275/468/413
f 262/524/336 266/525/336 219/537/336
f 281/539/414 272/467/432 249/531/392
f 275/542/336 278/591/336 234/541/336
f 263/551/340 280/592/340 231/550/340
f 177/554/340 226/593/340 280/553/340
f 254/518/340 244/589/340 245/559/340
f 245/559/340 243/558/340 239/567/340
f 240/447/378 253/448/427 238/561/365
f 238/561/365 241/560/365 242/568/365
o Cube.004
v 0.005451 0.196829 -2.145644
v 0.012090 0.682065 -1.911046
v 0.006142 0.948474 -2.327773
v -0.261545 -0.554974 -2.998718
v 0.009850 0.463158 -2.008738
v -0.000566 -0.554974 -2.463100
v 0.000000 0.196750 -3.042585
v 0.000000 0.948474 -2.707113
v 0.000000 0.572612 -2.874849
v 0.000000 -0.179112 -3.210321
v 0.000000 -0.554974 -3.378057
v -0.260758 -0.069970 -2.781889
v -0.260753 -0.178973 -2.943187
v -0.261545 0.087153 -2.712155
v -0.261545 0.306347 -2.614335
v -0.261545 0.196750 -2.776426
v -0.261545 0.463015 -2.544419
v -0.261545 0.682208 -2.446599
v -0.261545 0.572612 -2.608690
v -0.246886 -0.158045 -2.809620
v -0.246886 0.196750 -2.651285
v -0.246886 0.274581 -2.604122
v -0.246886 0.566525 -2.592964
v -0.246886 0.479178 -2.536460
v -0.246886 0.568075 -2.492950
v -0.246886 0.656972 -2.445404
v -0.246886 -0.158045 -2.304024
v -0.246886 0.196750 -2.145689
v -0.246886 0.568075 -1.987354
v -0.261545 -0.630273 -2.463100
v -0.261545 -0.630273 -2.998718
v -0.261545 -0.630273 -3.378057
v -0.261545 -0.554974 -3.293909
v -0.234810 -0.554974 -3.378057
v -0.253715 -0.554974 -3.353411
v -0.261545 0.871630 -2.657257
v -0.234810 0.948474 -2.707113
v -0.253715 0.925967 -2.692510
v -0.234810 0.572612 -2.874849
v -0.261545 0.572612 -2.790701
v -0.253715 0.572612 -2.850203
v -0.234810 0.196750 -3.042585
v -0.261545 0.196750 -2.958437
v -0.253715 0.196750 -3.017939
v -0.261545 -0.179112 -3.126173
v -0.234810 -0.179112 -3.210321
v -0.253715 -0.179112 -3.185675
v -0.234810 0.948474 -2.327773
v -0.261545 0.871630 -2.362066
v -0.261545 0.948474 -2.250929
v -0.253715 0.925967 -2.337817
v -0.259014 -0.554974 -2.471068
v -0.259647 0.948474 -1.802754
v -0.259647 0.682068 -1.921643
v 0.000000 -0.630273 -2.463100
v -0.259647 0.463156 -2.019337
v -0.259647 0.306206 -2.089379
v 0.000000 -0.630273 -3.378057
v -0.241983 0.087297 -2.176474
v -0.260685 0.087293 -2.188427
v -0.244701 -0.074433 -2.253006
v 0.000000 -0.630273 -2.998718
v -0.260022 -0.070350 -2.259656
v -0.261023 -0.286819 -2.363638
v 0.008762 0.568197 -1.987294
v 0.001357 -0.286276 -2.344489
v 0.004438 0.118512 -2.189845
v 0.008244 0.306203 -2.078782
v 0.007753 0.478797 -2.031303
v 0.006005 0.087297 -2.176474
v 0.014815 0.948474 -1.792155
v 0.005878 0.274987 -2.101532
v 0.009680 0.657352 -1.943405
v 0.000000 -0.620149 -3.419497
v 0.000000 -0.620148 -2.416651
v 0.000000 -0.574477 -3.419265
v 0.000000 -0.574515 -2.416824
v -0.286738 -0.574630 -2.416828
v -0.286742 -0.574637 -3.003736
v -0.286737 -0.574666 -3.419253
v -0.286674 -0.620147 -3.419509
v -0.286675 -0.620146 -2.416642
v -0.286677 -0.620145 -3.003723
v -0.247428 -0.172366 -2.912848
v -0.247296 -0.238061 -2.854982
v -0.247411 -0.078736 -2.762785
v 0.001211 -0.158148 -2.304081
v -0.260901 -0.287259 -2.879132
v -0.247085 -0.238476 -2.349307
v 0.000674 -0.238820 -2.348602
v 0.000534 -0.075141 -2.254164
v -0.256372 -0.283540 -2.346611
v -0.246886 0.119025 -2.190754
v -0.246886 0.195418 -2.752191
v -0.246886 0.118919 -2.695455
v -0.246886 0.274475 -2.100624
v -0.246886 0.479300 -2.032325
v -0.246886 0.656850 -1.942384
v -0.005451 0.196829 -2.145644
v -0.012090 0.682065 -1.911046
v -0.006142 0.948474 -2.327773
v 0.261545 -0.554974 -2.998718
v -0.009850 0.463158 -2.008738
v 0.000566 -0.554974 -2.463100
v 0.260758 -0.069970 -2.781889
v 0.260753 -0.178973 -2.943187
v 0.261545 0.087153 -2.712155
v 0.261545 0.306347 -2.614335
v 0.261545 0.196750 -2.776426
v 0.261545 0.463015 -2.544419
v 0.261545 0.682208 -2.446599
v 0.261545 0.572612 -2.608690
v 0.246886 -0.158045 -2.809620
v 0.246886 0.196750 -2.651285
v 0.246886 0.274581 -2.604122
v 0.246886 0.566525 -2.592964
v 0.246886 0.479178 -2.536460
v 0.246886 0.568075 -2.492950
v 0.246886 0.656972 -2.445404
v 0.246886 -0.158045 -2.304024
v 0.246886 0.196750 -2.145689
v 0.246886 0.568075 -1.987354
v 0.261545 -0.630273 -2.463100
v 0.261545 -0.630273 -2.998718
v 0.261545 -0.630273 -3.378057
v 0.261545 -0.554974 -3.293909
v 0.234810 -0.554974 -3.378057
v 0.253715 -0.554974 -3.353411
v 0.261545 0.871630 -2.657257
v 0.234810 0.948474 -2.707113
v 0.253715 0.925967 -2.692510
v 0.234810 0.572612 -2.874849
v 0.261545 0.572612 -2.790701
v 0.253715 0.572612 -2.850203
v 0.234810 0.196750 -3.042585
v 0.261545 0.196750 -2.958437
v 0.253715 0.196750 -3.017939
v 0.261545 -0.179112 -3.126173
v 0.234810 -0.179112 -3.210321
v 0.253715 -0.179112 -3.185675
v 0.234810 0.948474 -2.327773
v 0.261545 0.871630 -2.362066
v 0.261545 0.948474 -2.250929
v 0.253715 0.925967 -2.337817
v 0.259014 -0.554974 -2.471068
v 0.259647 0.948474 -1.802754
v 0.259647 0.682068 -1.921643
v 0.259647 0.463156 -2.019337
v 0.259647 0.306206 -2.089379
v 0.241983 0.087297 -2.176474
v 0.260685 0.087293 -2.188427
v 0.244701 -0.074433 -2.253006
v 0.260022 -0.070350 -2.259656
v 0.261023 -0.286819 -2.363638
v -0.008762 0.568197 -1.987294
v -0.001357 -0.286276 -2.344489
v -0.004438 0.118512 -2.189845
v -0.008244 0.306203 -2.078782
v -0.007753 0.478797 -2.031303
v -0.006005 0.087297 -2.176474
v -0.014815 0.948474 -1.792155
v -0.005878 0.274987 -2.101532
v -0.009680 0.657352 -1.943405
v 0.286738 -0.574630 -2.416828
v 0.286742 -0.574637 -3.003736
v 0.286737 -0.574666 -3.419253
v 0.286674 -0.620147 -3.419509
v 0.286675 -0.620146 -2.416642
v 0.286677 -0.620145 -3.003723
v 0.247428 -0.172366 -2.912848
v 0.247296 -0.238061 -2.854982
v 0.247411 -0.078736 -2.762785
v -0.001211 -0.158148 -2.304081
v 0.260901 -0.287259 -2.879132
v 0.247085 -0.238476 -2.349307
v -0.000674 -0.238820 -2.348602
v -0.000534 -0.075141 -2.254164
v 0.256372 -0.283540 -2.346611
v 0.246886 0.119025 -2.190754
v 0.246886 0.195418 -2.752191
v 0.246886 0.118919 -2.695455
v 0.246886 0.274475 -2.100624
v 0.246886 0.479300 -2.032325
v 0.246886 0.656850 -1.942384
vn -0.0004 -0.4425 0.8968
vn -0.0020 -0.4515 0.8923
vn -0.0045 -0.4519 0.8921
vn -0.6931 0.3842 0.6100
vn -0.6159 0.4043 0.6761
vn -0.5818 0.4114 0.7016
vn -0.9072 -0.4063 0.1094
vn -0.7567 -0.5463 0.3591
vn -0.9151 -0.3918 0.0951
vn -0.8374 0.3104 0.4500
vn -0.8843 0.2462 0.3967
vn -0.7866 0.3678 0.4960
vn -0.4963 0.3538 -0.7928
vn -0.0000 0.4075 -0.9132
vn -0.4738 0.3589 -0.8042
vn -0.7818 -0.5273 0.3327
vn -0.6741 -0.6136 0.4111
vn -0.7960 -0.5135 0.3205
vn 0.0019 -0.4919 0.8706
vn -0.0218 -0.4126 0.9106
vn -0.0019 -0.5012 0.8653
vn -0.0181 -0.6035 0.7972
vn -0.0176 -0.5741 0.8186
vn 0.0043 -0.6458 0.7635
vn -0.9294 0.2251 0.2926
vn -0.9496 0.1735 0.2611
vn -0.8979 0.2900 0.3312
vn -0.7117 -0.5960 0.3718
vn -0.8128 -0.4846 0.3233
vn -0.8271 -0.4656 0.3148
vn -0.0181 -0.4907 0.8711
vn 0.0041 -0.5440 0.8390
vn 0.0021 -0.4421 0.8970
vn 0.0012 -0.4996 0.8663
vn -0.1691 -0.4495 0.8771
vn -0.0015 -0.5052 0.8630
vn -0.0361 -0.4072 0.9126
vn -0.0364 -0.3880 0.9209
vn -0.0003 -0.4838 0.8752
vn -0.0032 -0.4906 0.8714
vn -0.0157 -0.4068 0.9134
vn -0.0181 -0.2325 0.9724
vn -0.0280 -0.4164 0.9087
vn -0.0355 -0.4072 0.9126
vn -0.0340 -0.4871 0.8727
vn -0.0003 -0.4923 0.8704
vn -0.0042 -0.5016 0.8651
vn -1.0000 -0.0000 -0.0000
vn -1.0000 -0.0053 0.0016
vn -0.9999 0.0146 0.0031
vn -0.9997 0.0230 0.0051
vn -1.0000 -0.0030 0.0032
vn -1.0000 0.0027 -0.0000
vn -0.1966 -0.9805 -0.0000
vn -0.0000 -0.9928 -0.1195
vn -0.0000 -1.0000 -0.0000
vn -0.1361 -0.9869 0.0869
vn -0.0000 -0.9942 0.1071
vn 0.0015 -0.4728 0.8811
vn -0.2595 -0.4098 0.8745
vn -0.3716 0.9271 -0.0482
vn -0.7370 0.6672 -0.1079
vn -0.1793 0.9818 -0.0624
vn -0.9800 0.1794 -0.0855
vn -0.9982 0.0597 -0.0107
vn -0.9694 0.2020 -0.1397
vn -0.7657 0.6432 -0.0000
vn -0.9968 0.0669 -0.0434
vn -0.7657 0.2621 -0.5873
vn -0.9898 0.0581 -0.1303
vn -0.9962 0.0361 -0.0798
vn -0.9977 0.0276 -0.0617
vn -0.4627 0.3613 -0.8095
vn -0.9928 0.1007 -0.0653
vn -0.9976 0.0281 -0.0630
vn -0.0000 1.0000 -0.0000
vn -0.4627 0.8865 -0.0000
vn -1.0000 -0.0003 0.0027
vn -1.0000 -0.0005 0.0011
vn -1.0000 -0.0041 0.0019
vn -1.0000 -0.0008 -0.0001
vn -0.4943 -0.3641 0.7894
vn -0.9515 -0.1206 0.2831
vn -1.0000 -0.0051 0.0013
vn -1.0000 0.0016 0.0018
vn -1.0000 -0.0021 0.0037
vn -0.0298 0.6438 0.7646
vn -0.0013 0.8187 0.5743
vn -0.0007 0.8219 0.5697
vn -0.2116 0.3735 0.9032
vn -0.0001 0.3942 0.9190
vn -0.3010 0.3523 0.8862
vn -0.0076 -0.1667 0.9860
vn -0.0074 0.0621 0.9980
vn -0.8901 -0.4558 0.0030
vn -0.8664 -0.4994 0.0001
vn -0.8647 -0.5023 -0.0001
vn -0.7433 0.6689 -0.0000
vn -0.7817 0.6237 0.0025
vn -0.7407 0.6719 -0.0002
vn -1.0000 -0.0016 0.0036
vn -1.0000 -0.0008 0.0017
vn -0.9264 -0.3765 0.0031
vn -1.0000 -0.0051 0.0016
vn -1.0000 -0.0041 -0.0019
vn -0.9165 0.4001 -0.0000
vn -0.9087 0.4174 0.0013
vn -0.9083 0.4184 0.0014
vn -0.2766 -0.9609 0.0091
vn -0.5391 -0.8422 0.0005
vn -0.2613 -0.9652 0.0095
vn -0.9640 0.2568 0.0693
vn -0.9632 0.2654 0.0414
vn -0.9636 0.2674 -0.0004
vn -0.5164 0.2838 0.8079
vn -0.0000 0.0051 -1.0000
vn -0.0000 0.0056 -1.0000
vn -0.1331 -0.9862 -0.0989
vn -0.0000 -0.9714 -0.2373
vn -0.0000 0.0038 1.0000
vn -0.0000 0.0041 1.0000
vn -0.0000 -0.9771 0.2130
vn -0.2475 -0.9658 0.0766
vn -0.0466 0.9229 -0.3823
vn -0.0000 0.9038 -0.4279
vn -0.4028 0.9067 -0.1254
vn -0.0114 0.9221 0.3867
vn -0.3125 0.9327 0.1803
vn -0.3989 0.9084 0.1253
vn -0.6137 0.7895 0.0013
vn -1.0000 -0.0014 -0.0000
vn -0.5740 0.8187 -0.0132
vn -0.6154 0.7882 0.0015
vn -0.3243 0.9385 -0.1180
vn -0.3738 -0.9275 -0.0000
vn -0.2592 -0.9627 -0.0780
vn -1.0000 -0.0015 0.0055
vn -1.0000 0.0035 0.0029
vn 0.0004 -0.4425 0.8968
vn 0.0020 -0.4515 0.8923
vn -0.0021 -0.4421 0.8970
vn 0.6159 0.4043 0.6761
vn 0.6931 0.3842 0.6100
vn 0.5818 0.4114 0.7016
vn 0.9072 -0.4063 0.1094
vn 0.7567 -0.5463 0.3591
vn 0.7076 -0.5854 0.3958
vn 0.8374 0.3104 0.4500
vn 0.8843 0.2462 0.3967
vn 0.9012 0.2193 0.3739
vn 0.4963 0.3538 -0.7928
vn 0.4738 0.3589 -0.8042
vn 0.7818 -0.5273 0.3327
vn 0.6741 -0.6136 0.4111
vn 0.6538 -0.6270 0.4237
vn -0.0019 -0.4919 0.8706
vn 0.0218 -0.4126 0.9106
vn -0.0041 -0.5440 0.8390
vn 0.0176 -0.5741 0.8186
vn 0.0181 -0.6035 0.7972
vn -0.0043 -0.6458 0.7635
vn 0.9294 0.2251 0.2926
vn 0.9496 0.1735 0.2611
vn 0.9589 0.1455 0.2438
vn 0.8128 -0.4846 0.3233
vn 0.7117 -0.5960 0.3718
vn 0.8271 -0.4656 0.3148
vn 0.0181 -0.4907 0.8711
vn -0.0012 -0.4996 0.8663
vn 0.1691 -0.4495 0.8771
vn -0.0015 -0.4728 0.8811
vn 0.0361 -0.4072 0.9126
vn 0.0359 -0.4070 0.9127
vn 0.0003 -0.4838 0.8752
vn 0.0015 -0.5052 0.8630
vn 0.0157 -0.4068 0.9134
vn 0.0181 -0.2325 0.9724
vn 0.0076 -0.1667 0.9860
vn 0.0355 -0.4072 0.9126
vn 0.0352 -0.4070 0.9128
vn 0.0003 -0.4923 0.8704
vn 0.0019 -0.5012 0.8653
vn 1.0000 -0.0000 -0.0000
vn 0.9999 0.0146 0.0031
vn 1.0000 -0.0053 0.0016
vn 0.9997 0.0230 0.0051
vn 1.0000 0.0027 -0.0000
vn 1.0000 -0.0030 0.0032
vn 0.1966 -0.9805 -0.0000
vn 0.1361 -0.9869 0.0869
vn 0.2595 -0.4098 0.8745
vn -0.0000 -0.4315 0.9021
vn 0.3716 0.9271 -0.0482
vn 0.1793 0.9818 -0.0624
vn 0.7370 0.6672 -0.1079
vn 0.9800 0.1794 -0.0855
vn 0.9694 0.2020 -0.1397
vn 0.9981 0.0607 -0.0123
vn 0.7657 0.6432 -0.0000
vn 0.4627 0.8865 -0.0000
vn 0.9968 0.0669 -0.0434
vn 0.9928 0.1007 -0.0653
vn 0.7657 0.2621 -0.5873
vn 0.9898 0.0581 -0.1303
vn 0.9962 0.0362 -0.0797
vn 0.4627 0.3613 -0.8095
vn 0.9976 0.0281 -0.0630
vn 0.9978 0.0269 -0.0611
vn 1.0000 -0.0034 0.0033
vn 1.0000 -0.0000 0.0018
vn 1.0000 -0.0006 0.0010
vn 1.0000 -0.0005 0.0011
vn 1.0000 -0.0008 -0.0001
vn 1.0000 -0.0041 0.0019
vn 0.4943 -0.3641 0.7894
vn 0.4511 -0.3691 0.8126
vn 0.9515 -0.1206 0.2831
vn 1.0000 -0.0051 0.0013
vn 1.0000 -0.0074 -0.0002
vn 1.0000 -0.0027 0.0037
vn 1.0000 -0.0021 0.0038
vn 0.0298 0.6438 0.7646
vn 0.0013 0.8187 0.5743
vn 0.0302 0.6409 0.7670
vn 0.0001 0.3942 0.9190
vn 0.2116 0.3735 0.9032
vn 0.3010 0.3523 0.8862
vn 0.0074 0.0621 0.9980
vn 0.8901 -0.4558 0.0030
vn 0.8664 -0.4994 0.0001
vn 0.8912 -0.4535 0.0031
vn 0.7433 0.6689 -0.0000
vn 0.7817 0.6237 0.0025
vn 0.7835 0.6214 0.0027
vn 1.0000 -0.0016 0.0036
vn 1.0000 -0.0008 0.0017
vn 0.9264 -0.3765 0.0031
vn 0.9274 -0.3741 0.0033
vn 1.0000 -0.0051 0.0016
vn 1.0000 -0.0041 -0.0019
vn 1.0000 -0.0050 0.0016
vn 0.9087 0.4174 0.0013
vn 0.9165 0.4001 -0.0000
vn 0.9083 0.4184 0.0014
vn 0.5391 -0.8422 0.0005
vn 0.2766 -0.9609 0.0091
vn 0.2613 -0.9652 0.0095
vn 0.9636 0.2674 0.0001
vn 0.9461 0.3237 0.0121
vn 0.7265 0.6855 0.0477
vn 0.5164 0.2838 0.8079
vn 0.1331 -0.9862 -0.0989
vn 0.0466 0.9229 -0.3823
vn 0.4028 0.9067 -0.1254
vn 0.0114 0.9221 0.3867
vn 0.3125 0.9327 0.1803
vn 0.0120 0.9211 0.3891
vn 0.6137 0.7895 0.0013
vn 0.3989 0.9084 0.1253
vn 1.0000 -0.0014 -0.0000
vn 0.5740 0.8187 -0.0132
vn 0.6154 0.7882 0.0015
vn 0.3243 0.9385 -0.1180
vn 0.3738 -0.9275 -0.0000
vn 1.0000 -0.0015 0.0055
vn -0.7257 0.3737 0.5777
vn -0.7076 -0.5854 0.3958
vn -0.9012 0.2193 0.3739
vn -0.6538 -0.6270 0.4237
vn -0.9589 0.1455 0.2438
vn -0.6749 -0.6291 0.3856
vn -0.0359 -0.4070 0.9127
vn -0.0352 -0.4070 0.9128
vn -1.0000 -0.0018 0.0043
vn -0.4511 -0.3691 0.8126
vn -1.0000 -0.0074 -0.0002
vn -1.0000 -0.0061 0.0042
vn -0.0302 0.6409 0.7670
vn -0.0000 0.3937 0.9192
vn -0.0027 0.0863 0.9963
vn -0.8912 -0.4535 0.0031
vn -0.7835 0.6214 0.0027
vn -0.9274 -0.3741 0.0033
vn -1.0000 -0.0050 0.0016
vn -0.9170 0.3988 -0.0001
vn -0.5491 -0.8357 0.0002
vn -0.9638 0.2667 -0.0005
vn -0.9528 0.2095 0.2199
vn -0.0000 0.9039 -0.4278
vn -0.0120 0.9211 0.3891
vn 0.0045 -0.4519 0.8921
vn 0.7257 0.3737 0.5777
vn 0.9151 -0.3918 0.0951
vn 0.7866 0.3678 0.4960
vn 0.7960 -0.5135 0.3205
vn 0.0340 -0.4871 0.8727
vn 0.8979 0.2900 0.3312
vn 0.6749 -0.6291 0.3856
vn 0.0364 -0.3880 0.9209
vn 0.0032 -0.4906 0.8714
vn 0.0280 -0.4164 0.9087
vn 0.0042 -0.5016 0.8651
vn 1.0000 0.0035 0.0029
vn 1.0000 0.0016 0.0018
vn 0.0007 0.8219 0.5697
vn 0.0027 0.0863 0.9963
vn 0.8647 -0.5023 -0.0001
vn 0.7407 0.6719 -0.0002
vn 0.9170 0.3988 -0.0001
vn 0.5491 -0.8357 0.0002
vn 0.9638 0.2667 -0.0005
vn 0.9794 0.2019 0.0006
vn 0.2592 -0.9627 -0.0780
vn 0.2475 -0.9658 0.0766
vt 0.729104 0.425080
vt 0.722858 0.375076
vt 0.729060 0.375022
vt 0.257597 0.686547
vt 0.254684 0.680119
vt 0.257597 0.679848
vt 0.258338 0.611445
vt 0.254672 0.622229
vt 0.255211 0.611059
vt 0.479032 0.673701
vt 0.476067 0.678410
vt 0.476094 0.673556
vt 0.003927 0.971068
vt 0.049910 1.000000
vt 0.003927 0.999223
vt 0.003927 0.942912
vt 0.049910 0.971845
vt 0.003927 0.914757
vt 0.049910 0.943689
vt 0.943419 0.743192
vt 0.952887 0.738328
vt 0.944158 0.745690
vt 0.969685 0.465965
vt 0.964181 0.416370
vt 0.969697 0.416312
vt 0.912988 0.950297
vt 0.915230 0.899586
vt 0.915230 0.950308
vt 0.723340 0.473374
vt 0.718945 0.467516
vt 0.723818 0.471722
vt 0.961601 0.896733
vt 0.949756 0.899025
vt 0.949564 0.895972
vt 0.961493 0.466880
vt 0.963618 0.416372
vt 0.963618 0.466659
vt 0.722840 0.425321
vt 0.716656 0.375131
vt 0.962152 0.709815
vt 0.956644 0.661068
vt 0.962137 0.661010
vt 0.950027 0.414743
vt 0.961493 0.414663
vt 0.967681 0.709672
vt 0.967630 0.660952
vt 0.990923 0.709577
vt 0.971463 0.659239
vt 0.990923 0.659104
vt 0.981975 0.872903
vt 0.962514 0.820061
vt 0.981975 0.819925
vt 0.975261 0.465719
vt 0.975213 0.416254
vt 0.248777 0.570416
vt 0.253862 0.567511
vt 0.253680 0.574051
vt 0.258948 0.564194
vt 0.463373 0.832734
vt 0.469158 0.829919
vt 0.468946 0.836337
vt 0.474942 0.826549
vt 0.729839 0.460893
vt 0.724730 0.429423
vt 0.729782 0.426390
vt 0.724780 0.464241
vt 0.719678 0.432457
vt 0.253855 0.532693
vt 0.258933 0.529661
vt 0.248777 0.535726
vt 0.469149 0.795102
vt 0.474925 0.792082
vt 0.463373 0.798122
vt 0.944934 0.438488
vt 0.893583 0.463568
vt 0.893583 0.437656
vt 0.944934 0.401902
vt 0.893583 0.401070
vt 0.988948 0.465928
vt 0.977483 0.417260
vt 0.988948 0.417163
vt 0.209782 0.912709
vt 0.213715 0.912071
vt 0.214988 0.917998
vt 0.650108 0.870734
vt 0.650102 0.874844
vt 0.645270 0.866893
vt 0.213838 0.887659
vt 0.668666 0.883128
vt -0.000000 0.998650
vt -0.000000 0.970495
vt 0.672413 0.964021
vt 0.668666 0.990707
vt 0.668666 0.962363
vt -0.000000 0.887714
vt 0.003927 0.886601
vt 0.672413 0.907335
vt 0.672413 0.880689
vt -0.000000 0.942339
vt -0.000000 0.914184
vt 0.668666 0.934020
vt 0.668666 0.905677
vt 0.672413 0.935678
vt 0.163951 0.886601
vt 0.209913 0.886601
vt 0.650102 0.962343
vt 0.650102 0.889128
vt 0.650102 0.917471
vt 0.657220 0.900569
vt 0.650102 0.945814
vt 0.657220 0.928912
vt 0.049910 0.915533
vt 0.977546 0.413720
vt 0.617582 0.947820
vt 0.616761 0.967539
vt 0.616761 0.947450
vt 0.160734 0.949573
vt 0.617582 0.967909
vt 0.650102 0.982422
vt 0.617582 0.854536
vt 0.954741 0.785399
vt 0.953013 0.735251
vt 0.954741 0.735232
vt 0.975776 0.466243
vt 0.975776 0.416253
vt 0.971158 0.709932
vt 0.968521 0.660835
vt 0.971158 0.659472
vt 0.989881 0.788561
vt 0.989542 0.785575
vt 0.617582 0.902968
vt 0.650102 0.905657
vt 0.254672 0.576532
vt 0.617582 0.931311
vt 0.650102 0.934000
vt 0.252034 0.679617
vt 0.248230 0.645049
vt 0.251364 0.644027
vt 0.918214 0.767816
vt 0.919253 0.770027
vt 0.715967 0.433606
vt 0.718795 0.432585
vt 0.251714 0.680524
vt 0.248230 0.680980
vt 0.248885 0.679845
vt 0.254868 0.623490
vt 0.257571 0.679839
vt 0.254868 0.679717
vt 0.944934 0.464400
vt 0.893660 0.466230
vt 0.251677 0.631669
vt 0.254469 0.574882
vt 0.254469 0.631682
vt 0.893660 0.397923
vt 0.949787 0.398831
vt 0.095872 0.889490
vt 0.050096 0.886969
vt 0.106095 0.886790
vt 0.049982 0.955711
vt 0.099845 0.952449
vt 0.105973 0.955528
vt 0.100997 0.951173
vt 0.106046 0.915271
vt 0.248436 0.644027
vt 0.251268 0.603541
vt 0.251268 0.644027
vt 0.248436 0.574868
vt 0.248436 0.603541
vt 0.101096 0.895264
vt 0.101060 0.915581
vt 0.099570 0.891174
vt 0.949788 0.438820
vt 0.949786 0.467141
vt 0.723733 0.470732
vt 0.719721 0.467174
vt 0.257570 0.623481
vt 0.479032 0.680400
vt 0.952596 0.735551
vt 0.964132 0.466100
vt 0.715967 0.468988
vt 0.716612 0.425544
vt 0.956594 0.709442
vt 0.950027 0.467278
vt 0.971463 0.710252
vt 0.962514 0.873578
vt 0.977483 0.466326
vt 0.672413 0.992365
vt 0.162617 0.912709
vt 0.657220 0.957255
vt 0.989011 0.413640
vt 0.953013 0.787225
vt 0.914251 0.896546
vt 0.954285 0.788381
vt 0.617582 0.891133
vt 0.257786 0.576132
vt 0.617582 0.919476
vt 0.716522 0.432482
vt 0.251677 0.574869
vt 0.049910 0.952612
vt 0.254672 0.685786
vt 0.912988 0.897720
vt 0.961033 0.899660
vt 0.049910 0.887378
vt 0.213680 0.949573
vt 0.617582 0.874625
vt 0.968517 0.709908
vt 0.257571 0.623612
vt 0.049910 0.889640
vt 0.251268 0.574868
s 1
usemtl Material
f 350/594/433 310/595/434 378/596/435
f 298/597/436 304/598/437 300/599/438
f 296/600/439 375/601/440 303/602/441
f 297/603/442 376/604/443 375/605/444
f 327/606/445 292/607/446 315/608/447
f 323/609/445 291/610/446 327/606/445
f 320/611/445 288/612/446 323/609/445
f 293/613/448 365/614/449 367/615/450
f 282/616/451 377/617/452 309/618/453
f 283/619/454 379/620/455 354/621/456
f 294/622/457 366/623/458 365/624/459
f 300/625/460 307/626/461 299/627/462
f 349/628/463 377/629/452 353/630/464
f 346/631/465 379/632/455 310/595/434
f 368/633/466 342/634/467 308/635/468
f 349/628/463 337/636/469 338/637/470
f 371/638/471 308/635/468 370/639/472
f 287/640/473 373/641/474 333/642/475
f 283/643/454 334/644/476 335/645/477
f 348/646/478 309/618/453 374/647/479
f 376/648/480 302/649/480 375/650/480
f 302/649/480 303/651/480 375/650/480
f 305/652/480 306/653/480 304/654/480
f 306/653/480 307/655/480 304/654/480
f 367/656/481 308/657/482 342/658/483
f 301/659/484 370/660/485 308/657/482
f 303/651/480 309/661/480 377/662/480
f 302/649/480 374/663/480 309/661/480
f 307/655/480 310/664/480 379/665/480
f 306/653/480 378/666/480 310/664/480
f 312/667/486 339/668/487 343/669/488
f 311/670/489 343/669/488 336/671/490
f 372/672/491 340/673/492 342/674/467
f 329/675/493 332/676/494 331/677/495
f 332/678/496 330/679/497 331/680/498
f 329/675/493 319/681/499 332/676/494
f 332/678/496 317/682/500 330/679/497
f 327/606/445 316/683/501 328/684/501
f 328/685/502 314/686/503 326/687/504
f 320/611/445 319/688/501 318/689/505
f 322/690/502 317/682/500 319/691/506
f 320/611/445 325/692/501 322/693/501
f 322/690/502 324/694/507 321/695/507
f 323/609/445 328/684/501 325/692/501
f 325/696/502 326/687/504 324/694/507
f 329/675/493 289/697/508 318/698/509
f 369/699/510 326/687/504 314/686/503
f 299/700/511 317/682/500 321/695/507
f 296/701/511 300/702/480 324/694/507
f 293/703/512 297/704/513 326/687/504
f 318/689/505 290/705/446 320/611/445
f 341/706/514 342/674/467 340/673/492
f 345/707/515 333/708/515 373/709/515
f 352/710/508 329/675/493 331/677/495
f 333/711/516 369/699/510 285/712/517
f 334/713/518 330/679/497 299/700/511
f 378/714/519 286/715/520 350/716/521
f 340/673/522 348/717/523 374/718/524
f 347/719/525 370/720/526 373/721/474
f 379/620/527 299/627/528 307/626/529
f 298/722/530 378/714/531 305/723/532
f 338/724/533 298/725/534 296/701/511
f 377/726/535 296/600/439 303/602/441
f 344/727/536 295/728/537 293/703/512
f 341/729/538 376/730/539 295/731/540
f 344/732/541 367/615/542 342/733/543
f 345/734/544 370/735/545 366/623/546
f 341/736/547 340/737/522 374/738/524
f 357/739/548 362/740/549 361/741/549
f 313/742/550 355/743/551 339/668/487
f 358/744/552 363/745/553 356/746/552
f 311/670/489 356/747/554 363/748/555
f 315/749/556 357/750/557 361/751/558
f 358/752/559 333/753/560 359/754/561
f 333/755/560 360/756/562 359/754/561
f 359/757/563 364/758/563 363/759/563
f 361/760/563 364/758/563 360/761/563
f 314/762/564 360/756/562 285/763/565
f 316/764/566 361/751/558 314/762/564
f 313/742/550 364/765/567 362/766/568
f 311/670/489 364/765/567 312/667/486
f 301/659/484 365/767/569 366/768/570
f 440/594/571 403/595/572 436/631/573
f 397/598/574 391/597/575 393/599/576
f 389/600/577 461/601/578 390/769/579
f 390/603/580 462/604/581 388/770/582
f 292/607/446 420/606/583 408/608/584
f 291/610/446 416/609/583 420/606/583
f 288/612/446 413/611/583 416/609/583
f 386/613/585 451/614/586 387/771/587
f 380/616/588 463/617/589 443/772/590
f 465/620/591 381/619/592 444/621/593
f 387/622/594 452/623/595 455/773/596
f 400/626/597 393/625/598 392/627/599
f 463/629/589 439/628/600 443/630/590
f 436/631/573 465/632/591 444/774/593
f 454/633/601 433/634/602 458/775/603
f 439/628/600 429/636/604 384/776/605
f 457/638/606 401/635/607 454/633/601
f 385/640/608 459/641/609 437/777/610
f 381/643/592 427/644/611 442/778/612
f 438/646/613 402/618/614 380/616/588
f 462/648/615 461/650/615 395/649/615
f 395/649/615 461/650/615 396/651/615
f 398/652/615 397/654/615 399/653/615
f 399/653/615 397/654/615 400/655/615
f 401/657/616 453/656/617 433/658/618
f 456/660/619 394/659/620 401/657/616
f 402/661/615 396/651/615 463/662/615
f 460/663/615 395/649/615 402/661/615
f 403/664/615 400/655/615 465/665/615
f 464/666/615 399/653/615 403/664/615
f 339/668/487 405/667/621 343/669/488
f 343/669/488 404/670/622 336/671/490
f 458/672/603 431/673/623 441/779/624
f 422/675/625 424/677/626 425/676/627
f 425/678/628 424/680/629 423/679/630
f 422/675/625 412/681/631 411/698/632
f 425/678/628 410/682/633 412/691/634
f 420/606/583 409/683/635 408/608/584
f 421/685/636 407/686/637 409/780/636
f 412/688/635 413/611/583 411/689/638
f 410/682/633 415/690/636 412/691/634
f 413/611/583 418/692/635 416/609/583
f 415/690/636 417/694/639 418/696/636
f 416/609/583 421/684/635 420/606/583
f 418/696/636 419/687/640 421/685/636
f 422/675/625 289/697/508 382/781/508
f 407/686/637 387/782/641 455/699/642
f 414/695/639 423/679/630 392/700/643
f 417/694/639 393/702/615 389/701/644
f 419/687/640 390/704/645 386/703/646
f 290/705/446 411/689/638 413/611/583
f 432/706/647 433/674/602 434/783/648
f 435/707/649 459/709/649 426/708/649
f 424/677/626 382/781/508 442/710/508
f 426/711/650 455/699/642 435/707/651
f 392/700/643 424/680/652 427/713/653
f 464/714/654 384/715/655 429/784/656
f 438/717/657 431/673/658 460/718/659
f 456/720/660 437/719/610 459/721/609
f 465/620/661 392/627/662 428/785/663
f 391/722/664 464/714/665 429/786/666
f 430/724/667 391/725/668 429/787/667
f 463/726/669 389/600/577 430/788/670
f 434/727/671 388/728/672 432/789/673
f 462/730/674 432/729/675 388/731/676
f 453/615/677 434/732/678 433/733/679
f 452/623/680 459/790/681 435/734/682
f 432/736/683 460/738/659 431/737/658
f 448/740/549 357/739/548 447/741/549
f 355/743/551 406/742/684 339/668/487
f 358/744/552 449/745/553 445/791/553
f 404/670/622 356/747/554 336/671/490
f 357/750/557 408/749/685 447/751/686
f 358/752/687 426/753/688 385/792/689
f 446/756/690 426/755/688 445/754/691
f 445/757/692 450/758/692 446/761/692
f 450/758/692 447/760/692 446/761/692
f 446/756/690 407/762/693 383/763/694
f 447/751/686 409/764/695 407/762/693
f 406/742/684 450/765/696 405/667/621
f 450/765/696 404/670/622 405/667/621
f 394/659/620 451/767/697 453/656/617
f 350/594/433 346/631/465 310/595/434
f 298/597/436 305/793/698 304/598/437
f 296/600/439 297/769/699 375/601/440
f 297/603/442 295/770/700 376/604/443
f 327/606/445 291/610/446 292/607/446
f 323/609/445 288/612/446 291/610/446
f 320/611/445 290/705/446 288/612/446
f 293/613/448 294/771/701 365/614/449
f 282/616/451 353/772/464 377/617/452
f 283/619/454 335/794/477 379/620/455
f 294/622/457 369/773/702 366/623/458
f 300/625/460 304/795/703 307/626/461
f 349/628/463 338/637/470 377/629/452
f 346/631/465 354/774/456 379/632/455
f 368/633/466 372/775/491 342/634/467
f 349/628/463 286/776/704 337/636/469
f 371/638/471 368/633/466 308/635/468
f 287/640/473 347/777/525 373/641/474
f 283/643/454 352/778/705 334/644/476
f 348/646/478 282/616/451 309/618/453
f 367/656/481 301/659/484 308/657/482
f 301/659/484 366/768/570 370/660/485
f 303/651/480 302/649/480 309/661/480
f 302/649/480 376/648/480 374/663/480
f 307/655/480 306/653/480 310/664/480
f 306/653/480 305/652/480 378/666/480
f 312/667/486 313/742/550 339/668/487
f 311/670/489 312/667/486 343/669/488
f 372/672/491 351/779/624 340/673/492
f 329/675/493 318/698/509 319/681/499
f 332/678/496 319/691/506 317/682/500
f 327/606/445 315/608/447 316/683/501
f 328/685/502 316/780/502 314/686/503
f 320/611/445 322/693/501 319/688/501
f 322/690/502 321/695/507 317/682/500
f 320/611/445 323/609/445 325/692/501
f 322/690/502 325/696/502 324/694/507
f 323/609/445 327/606/445 328/684/501
f 325/696/502 328/685/502 326/687/504
f 329/675/493 284/781/508 289/697/508
f 314/686/503 285/712/517 369/699/510
f 369/699/510 294/782/706 326/687/504
f 321/695/507 300/702/480 299/700/511
f 299/700/511 330/679/497 317/682/500
f 324/694/507 297/704/513 296/701/511
f 296/701/511 298/725/534 300/702/480
f 300/702/480 321/695/507 324/694/507
f 326/687/504 294/782/706 293/703/512
f 293/703/512 295/728/537 297/704/513
f 297/704/513 324/694/507 326/687/504
f 318/689/505 289/796/446 290/705/446
f 341/706/514 344/783/707 342/674/467
f 331/677/495 334/797/508 352/710/508
f 352/710/508 284/781/508 329/675/493
f 333/711/516 345/707/708 369/699/510
f 299/700/511 335/798/533 334/713/518
f 334/713/518 331/680/709 330/679/497
f 378/714/519 337/784/710 286/715/520
f 340/673/522 351/779/711 348/717/523
f 347/719/525 371/799/712 370/720/526
f 379/620/527 335/785/713 299/627/528
f 298/722/530 337/786/714 378/714/531
f 338/724/533 337/787/533 298/725/534
f 377/726/535 338/788/715 296/600/439
f 344/727/536 341/789/716 295/728/537
f 341/729/538 374/738/717 376/730/539
f 344/732/541 293/613/718 367/615/542
f 366/623/546 369/773/719 345/734/544
f 345/734/544 373/790/720 370/735/545
f 357/739/548 355/800/548 362/740/549
f 313/742/550 362/766/568 355/743/551
f 358/744/552 359/791/553 363/745/553
f 311/670/489 336/671/490 356/747/554
f 315/749/556 292/801/721 357/750/557
f 358/752/559 287/792/722 333/753/560
f 333/755/560 285/763/565 360/756/562
f 359/757/563 360/761/563 364/758/563
f 361/760/563 362/802/563 364/758/563
f 314/762/564 361/751/558 360/756/562
f 316/764/566 315/749/556 361/751/558
f 313/742/550 312/667/486 364/765/567
f 311/670/489 363/748/555 364/765/567
f 301/659/484 367/656/481 365/767/569
f 440/594/571 464/596/723 403/595/572
f 397/598/574 398/793/724 391/597/575
f 389/600/577 396/602/725 461/601/578
f 390/603/580 461/605/726 462/604/581
f 292/607/446 291/610/446 420/606/583
f 291/610/446 288/612/446 416/609/583
f 288/612/446 290/705/446 413/611/583
f 386/613/585 453/615/727 451/614/586
f 380/616/588 402/618/614 463/617/589
f 465/620/591 428/794/728 381/619/592
f 387/622/594 451/624/729 452/623/595
f 400/626/597 397/795/730 393/625/598
f 463/629/589 430/637/731 439/628/600
f 436/631/573 403/595/572 465/632/591
f 454/633/601 401/635/607 433/634/602
f 439/628/600 430/637/731 429/636/604
f 457/638/606 456/639/732 401/635/607
f 385/640/608 426/642/733 459/641/609
f 381/643/592 428/645/728 427/644/611
f 438/646/613 460/647/734 402/618/614
f 401/657/616 394/659/620 453/656/617
f 456/660/619 452/768/735 394/659/620
f 402/661/615 395/649/615 396/651/615
f 460/663/615 462/648/615 395/649/615
f 403/664/615 399/653/615 400/655/615
f 464/666/615 398/652/615 399/653/615
f 339/668/487 406/742/684 405/667/621
f 343/669/488 405/667/621 404/670/622
f 458/672/603 433/674/602 431/673/623
f 422/675/625 425/676/627 412/681/631
f 425/678/628 423/679/630 410/682/633
f 420/606/583 421/684/635 409/683/635
f 421/685/636 419/687/640 407/686/637
f 412/688/635 415/693/635 413/611/583
f 410/682/633 414/695/639 415/690/636
f 413/611/583 415/693/635 418/692/635
f 415/690/636 414/695/639 417/694/639
f 416/609/583 418/692/635 421/684/635
f 418/696/636 417/694/639 419/687/640
f 422/675/625 411/698/632 289/697/508
f 455/699/642 383/712/736 407/686/637
f 407/686/637 419/687/640 387/782/641
f 392/700/643 393/702/615 414/695/639
f 414/695/639 410/682/633 423/679/630
f 389/701/644 390/704/645 417/694/639
f 417/694/639 414/695/639 393/702/615
f 393/702/615 391/725/668 389/701/644
f 386/703/646 387/782/641 419/687/640
f 419/687/640 417/694/639 390/704/645
f 390/704/645 388/728/672 386/703/646
f 290/705/446 289/796/446 411/689/638
f 432/706/647 431/673/623 433/674/602
f 442/710/508 427/797/508 424/677/626
f 424/677/626 422/675/625 382/781/508
f 426/711/650 383/712/736 455/699/642
f 427/713/653 428/798/667 392/700/643
f 392/700/643 423/679/630 424/680/652
f 464/714/654 440/716/737 384/715/655
f 438/717/657 441/779/711 431/673/658
f 456/720/660 457/799/738 437/719/610
f 465/620/661 400/626/739 392/627/662
f 391/722/664 398/723/740 464/714/665
f 430/724/667 389/701/644 391/725/668
f 463/726/669 396/602/725 389/600/577
f 434/727/671 386/703/646 388/728/672
f 462/730/674 460/738/741 432/729/675
f 453/615/677 386/613/742 434/732/678
f 435/734/682 455/773/743 452/623/680
f 452/623/680 456/735/744 459/790/681
f 448/740/549 355/800/548 357/739/548
f 355/743/551 448/766/745 406/742/684
f 358/744/552 356/746/552 449/745/553
f 404/670/622 449/748/746 356/747/554
f 357/750/557 292/801/721 408/749/685
f 358/752/687 445/754/691 426/753/688
f 446/756/690 383/763/694 426/755/688
f 445/757/692 449/759/692 450/758/692
f 450/758/692 448/802/692 447/760/692
f 446/756/690 447/751/686 407/762/693
f 447/751/686 408/749/685 409/764/695
f 406/742/684 448/766/745 450/765/696
f 450/765/696 449/748/746 404/670/622
f 394/659/620 452/768/735 451/767/697
