# Blender 5.1.2
# www.blender.org
mtllib room start.mtl
o floor
v 16.000000 0.000000 -16.000000
v -16.000000 0.000000 -16.000000
v 16.000000 0.000000 16.000000
v -16.000000 0.000000 16.000000
vn -0.0000 1.0000 -0.0000
vt 1.000000 0.000000
vt 0.000000 1.000000
vt 0.000000 0.000000
vt 1.000000 1.000000
s 0
usemtl Material.001
f 2/1/1 3/2/1 1/3/1
f 2/1/1 4/4/1 3/2/1
o wall
v 16.000000 0.000000 -15.999999
v -16.000000 0.000000 -15.999999
v 16.000000 8.138584 -15.999999
v -16.000000 8.138584 -15.999999
v -1.000000 0.000000 -15.999999
v 1.000000 0.000000 -15.999999
v 0.000000 8.138584 -15.999999
v 0.000000 2.036527 -15.999999
v 1.000000 1.536527 -15.999999
v -1.000000 1.536527 -15.999999
v -1.000000 1.536527 -15.998078
v -0.985712 1.527697 -15.983789
v 0.985712 1.527697 -15.983789
v 1.000000 1.536527 -15.998078
v 0.000000 2.036527 -15.998078
v 0.000000 2.020552 -15.983789
v -1.000000 0.000000 -15.998078
v -0.985712 0.000000 -15.983789
v 0.985712 0.000000 -15.983789
v 1.000000 0.000000 -15.998078
v 0.000000 1.985141 -15.998078
v 0.000000 2.001116 -15.983789
v 0.968327 1.516952 -15.983789
v 0.954039 1.508122 -15.998078
v -0.968327 0.000000 -15.983789
v -0.954039 0.000000 -15.998078
v -0.954039 1.508122 -15.998078
v -0.968327 1.516952 -15.983789
v 0.954039 0.000000 -15.998078
v 0.968327 0.000000 -15.983789
v -1.021270 0.000000 -15.999999
v 1.021270 0.000000 -15.999999
v 0.000000 2.045180 -15.999999
v -1.021270 1.545889 -15.999999
v 1.021270 1.545889 -15.999999
v -14.057891 0.000000 -15.999999
v -14.057606 7.213264 -15.992872
v 0.000000 7.419053 -15.977810
v 14.057891 0.000000 -15.999999
v 0.000000 7.278000 -15.992872
v 14.057606 7.213264 -15.992872
v -14.057891 8.138584 -15.999999
v 14.057891 8.138584 -15.999999
v 14.057891 7.354316 -15.977810
v 0.000000 7.278000 -15.999999
v 0.000000 7.419053 -15.999999
v -14.057606 7.213264 -15.999999
v -14.057891 7.354316 -15.996781
v 14.057891 7.354316 -15.996781
v 14.057606 7.213264 -15.999999
v -15.996073 7.354317 -15.996781
v -16.000000 7.213265 -15.999999
v 16.000000 7.213264 -15.999999
v 15.992264 7.354316 -15.996781
v -14.057891 7.354316 -15.977810
v -15.994902 7.213265 -15.992872
v -15.992267 7.354317 -15.977810
v 15.973402 7.354316 -15.977810
v 15.993201 7.213264 -15.992872
v 0.000000 7.419053 -15.974592
v 14.057891 7.354316 -15.974592
v 15.974740 7.354316 -15.974592
v -14.057891 7.354316 -15.974592
v -15.994903 7.354317 -15.974592
v 0.000000 7.419053 -15.996781
v 16.000000 7.354316 -15.999999
v 14.057891 7.354316 -15.999999
v -14.057891 7.354316 -15.999999
v -0.000000 7.414938 -15.977810
v -16.000000 7.354317 -15.999999
v -0.000000 7.414938 -15.996781
v 14.057891 7.350201 -15.996781
v 14.057891 7.350201 -15.977810
v -14.057891 7.350201 -15.996781
v -14.057891 7.350201 -15.977810
v 15.973402 7.350201 -15.977810
v -15.992267 7.350203 -15.977810
v 15.992264 7.350201 -15.996781
v -15.996073 7.350203 -15.996781
v 13.993618 0.000000 -15.999999
v -13.993618 0.000000 -15.999999
v 0.000000 7.252202 -15.999999
v -13.993334 7.185323 -15.999999
v 13.993334 7.185323 -15.999999
v 14.057891 7.370431 -15.999999
v 0.000000 7.433837 -15.999999
v -14.057891 7.370431 -15.999999
v -16.000000 7.370432 -15.999999
v 16.000000 7.370431 -15.999999
v -14.057607 7.185324 -15.999999
v -16.000000 7.185325 -15.999999
v 14.057607 7.185323 -15.999999
v 16.000000 7.185324 -15.999999
vn -0.0000 -0.0000 1.0000
vn -0.4529 0.2799 0.8465
vn 0.4529 0.2799 0.8465
vn -0.0000 -0.2589 0.9659
vn -0.5512 -0.3406 0.7617
vn -0.1960 -0.1211 0.9731
vn -0.3761 0.2325 0.8969
vn -0.9239 -0.0000 0.3827
vn -0.3827 -0.0000 0.9239
vn 0.9239 -0.0000 0.3827
vn 0.3761 0.2325 0.8969
vn 0.3827 -0.0000 0.9239
vn -0.0000 0.9289 0.3703
vn -0.7890 0.4876 0.3738
vn 0.7890 0.4876 0.3738
vn 0.5512 -0.3406 0.7617
vn 0.1960 -0.1211 0.9731
vn -0.7071 -0.0000 0.7071
vn 0.7071 -0.0000 0.7071
vn -0.0000 0.4412 0.8974
vn -0.0000 0.5682 0.8229
vn -0.8133 -0.0000 0.5818
vn -0.0015 0.6595 0.7517
vn -0.0000 -0.8381 0.5455
vn 0.0017 -0.7516 0.6596
vn -0.0000 -0.7503 0.6611
vn 0.0015 0.6595 0.7517
vn -0.0017 -0.7516 0.6596
vn -0.0016 0.7066 0.7076
vn -0.0000 0.7082 0.7060
vn 0.6337 -0.0000 -0.7735
vn 0.2907 0.9267 0.2381
vn 0.3004 0.8805 -0.3667
vn -0.0000 -0.8696 0.4938
vn -0.0016 -0.7066 0.7076
vn -0.0000 -0.4578 0.8890
vn -0.0000 -0.7081 0.7061
vn 0.7236 -0.0000 0.6903
vn -0.0000 0.7848 0.6197
vn 0.0016 -0.7066 0.7076
vn -0.0000 -0.5174 0.8557
vn -0.0000 -0.0000 -1.0000
vn -0.0016 0.7066 -0.7076
vn -0.0000 0.7082 -0.7060
vn 0.0016 0.7066 0.7076
vn -0.0000 0.7061 0.7081
vn 0.0016 0.7077 0.7066
vn -0.0000 0.4485 0.8938
vn -0.0000 0.6614 0.7501
vn 0.0016 0.7066 -0.7076
vn -0.2280 0.8046 -0.5483
vn -0.1980 0.9767 0.0823
vn -0.0016 0.7076 0.7066
vn -0.0000 0.7092 0.7050
vn 0.7735 -0.0000 0.6338
vn -0.9233 -0.0000 0.3840
vn -0.3841 -0.0000 -0.9233
vn -0.0000 0.6581 0.7530
vn -0.0000 -0.6667 0.7454
vn -0.9801 -0.0255 0.1967
vn 0.7092 0.0014 0.7050
vt 0.531915 0.000000
vt 0.531250 0.048016
vt 0.531915 0.048309
vt 0.500000 0.063912
vt 0.468750 0.048016
vt 0.468085 0.048309
vt 0.500000 0.062535
vt 0.470186 0.047129
vt 0.469740 0.047405
vt 0.530804 0.047741
vt 0.531250 0.000000
vt 0.530804 0.000000
vt 0.468750 0.000000
vt 0.469196 0.047741
vt 0.469197 0.000000
vt 0.500000 0.063641
vt 0.529814 0.047129
vt 0.530260 0.047405
vt 0.469740 0.000000
vt 0.470186 0.000000
vt 0.530260 0.000000
vt 0.529814 0.000000
vt 0.500000 0.063142
vt 0.000000 0.000000
vt 0.939309 0.229822
vt 0.999841 0.225415
vt 0.939300 0.225415
vt 0.500000 0.227438
vt 0.468085 0.000000
vt 0.060691 0.229822
vt 0.060700 0.225415
vt 0.500000 0.231845
vt 0.999758 0.229822
vt 0.999877 0.229822
vt 0.000212 0.225414
vt 0.000000 0.225414
vt 0.500000 0.227438
vt 0.000789 0.229822
vt 1.000000 0.225415
vt 0.500000 0.231845
vt 0.060691 0.230326
vt 0.500000 0.226631
vt 0.062708 0.224541
vt 0.939309 0.230326
vt 0.500000 0.232307
vt 0.937301 0.000000
vt 0.937292 0.224541
vt 0.939300 0.224541
vt 0.939309 0.254331
vt 1.000000 0.230326
vt 0.062699 0.000000
vt 0.060700 0.224541
vt 0.000000 0.229822
vt 0.000000 0.230326
vt 0.000000 0.224541
vt 0.000831 0.229822
vt 0.000242 0.229822
vt 0.999841 0.229822
vt 0.060691 0.254331
vt 0.000000 0.254331
vt 1.000000 0.229822
vt 0.500000 0.254331
vt 1.000000 0.224541
vt 0.939309 0.000000
vt 0.060691 0.000000
vt 0.500000 0.062036
vt 1.000000 0.254331
vt 1.000000 0.000000
s 1
usemtl Material.001
f 35/5/2 14/6/3 38/7/2
f 37/8/2 13/9/4 39/10/2
f 26/11/5 28/12/6 27/13/7
f 16/14/8 21/15/9 22/16/10
f 24/17/11 17/18/12 23/19/13
f 16/14/8 19/20/14 15/6/15
f 19/20/14 17/18/12 18/9/16
f 31/21/17 26/11/5 32/22/18
f 34/23/10 28/12/6 33/24/19
f 31/21/17 29/25/13 30/26/20
f 21/15/9 14/6/3 9/15/19
f 20/27/21 32/22/18 26/11/5
f 32/22/18 22/16/10 29/25/13
f 15/6/15 12/20/22 14/6/3
f 18/9/16 10/17/20 13/9/4
f 23/19/13 27/13/7 34/23/10
f 19/20/14 13/9/4 12/20/22
f 27/13/7 20/27/21 26/11/5
f 37/8/2 14/6/3 12/20/22
s 0
f 60/28/23 74/28/23 56/28/23
s 1
f 67/29/24 60/30/25 41/31/26
f 44/32/27 67/29/24 41/31/26
f 13/9/4 36/33/2 39/10/2
f 65/34/28 44/32/27 45/35/29
f 52/29/30 75/36/2 69/36/31
f 81/37/32 55/38/33 61/37/34
f 63/39/35 54/35/36 57/40/37
f 45/35/29 49/41/38 54/35/36
s 0
f 70/28/39 63/28/39 57/28/39
s 1
f 45/35/29 66/42/40 65/34/28
f 44/32/27 51/31/41 49/41/38
f 51/31/41 60/30/25 56/43/42
f 73/44/43 59/29/44 42/44/45
f 75/36/2 53/34/46 69/36/31
f 89/45/2 50/44/47 71/34/48
f 86/46/2 38/7/2 37/8/2
f 86/46/2 39/10/2 88/47/2
f 91/48/2 50/44/47 90/49/2
f 85/50/2 38/7/2 87/51/2
f 56/43/42 94/52/2 51/31/41
f 46/53/2 92/54/2 91/48/2
f 84/55/2 96/56/2 88/47/2
f 89/45/2 70/57/49 93/58/2
f 57/40/37 96/56/2 97/59/2
f 64/44/50 48/34/51 42/44/45
f 65/34/28 62/60/52 48/34/51
f 67/29/24 42/44/45 59/29/44
f 61/37/34 67/29/24 59/29/44
f 66/42/40 58/61/53 62/60/52
f 71/34/48 69/36/31 53/34/46
f 50/44/47 52/29/30 69/36/31
f 72/29/54 55/38/33 52/29/30
f 58/61/53 71/34/48 53/34/46
f 55/38/33 68/62/55 61/37/34
f 79/29/43 61/37/34 59/29/44
f 48/34/51 73/44/43 42/44/45
f 83/38/56 52/29/30 55/38/33
f 82/61/57 62/60/52 58/61/53
f 80/60/58 48/34/51 62/60/52
f 76/34/2 58/61/53 53/34/46
f 39/10/2 84/55/2 88/47/2
f 51/31/41 94/52/2 87/51/2
f 49/41/38 88/47/2 54/35/36
f 49/41/38 87/51/2 86/46/2
f 47/63/2 93/58/2 7/64/2
f 91/48/2 74/65/59 72/29/54
f 46/53/2 90/49/2 11/66/2
f 47/63/2 90/49/2 89/45/2
f 94/52/2 85/50/2 87/51/2
f 95/67/2 40/68/2 94/52/2
f 43/69/2 97/59/2 96/56/2
f 96/56/2 54/35/36 88/47/2
f 35/5/2 9/15/19 14/6/3
f 37/8/2 12/20/22 13/9/4
f 26/11/5 25/70/60 28/12/6
f 16/14/8 15/6/15 21/15/9
f 24/17/11 18/9/16 17/18/12
f 16/14/8 20/27/21 19/20/14
f 19/20/14 20/27/21 17/18/12
f 31/21/17 25/70/60 26/11/5
f 34/23/10 27/13/7 28/12/6
f 31/21/17 32/22/18 29/25/13
f 21/15/9 15/6/15 14/6/3
f 20/27/21 16/14/8 32/22/18
f 32/22/18 16/14/8 22/16/10
f 15/6/15 19/20/14 12/20/22
f 18/9/16 24/17/11 10/17/20
f 23/19/13 17/18/12 27/13/7
f 19/20/14 18/9/16 13/9/4
f 27/13/7 17/18/12 20/27/21
f 37/8/2 38/7/2 14/6/3
s 0
f 60/28/61 68/28/61 74/28/61
s 1
f 67/29/24 68/62/55 60/30/25
f 44/32/27 64/44/50 67/29/24
f 13/9/4 10/17/20 36/33/2
f 65/34/28 64/44/50 44/32/27
f 52/29/30 78/29/2 75/36/2
f 81/37/32 83/38/56 55/38/33
f 63/39/35 45/35/29 54/35/36
f 45/35/29 44/32/27 49/41/38
s 0
f 70/28/62 66/28/62 63/28/62
s 1
f 45/35/29 63/39/35 66/42/40
f 44/32/27 41/31/26 51/31/41
f 51/31/41 41/31/26 60/30/25
f 73/44/43 79/29/43 59/29/44
f 75/36/2 76/34/2 53/34/46
f 89/45/2 90/49/2 50/44/47
f 86/46/2 87/51/2 38/7/2
f 86/46/2 37/8/2 39/10/2
f 91/48/2 72/29/54 50/44/47
f 85/50/2 35/5/2 38/7/2
f 56/43/42 95/67/2 94/52/2
f 46/53/2 8/71/2 92/54/2
f 84/55/2 43/69/2 96/56/2
f 89/45/2 71/34/48 70/57/49
f 57/40/37 54/35/36 96/56/2
f 64/44/50 65/34/28 48/34/51
f 65/34/28 66/42/40 62/60/52
f 67/29/24 64/44/50 42/44/45
f 61/37/34 68/62/55 67/29/24
f 66/42/40 70/57/49 58/61/53
f 71/34/48 50/44/47 69/36/31
f 50/44/47 72/29/54 52/29/30
f 72/29/54 74/65/59 55/38/33
f 58/61/53 70/57/49 71/34/48
f 55/38/33 74/65/59 68/62/55
f 79/29/43 81/37/32 61/37/34
f 48/34/51 77/34/43 73/44/43
f 83/38/56 78/29/2 52/29/30
f 82/61/57 80/60/58 62/60/52
f 80/60/58 77/34/43 48/34/51
f 76/34/2 82/61/57 58/61/53
f 39/10/2 36/33/2 84/55/2
f 49/41/38 86/46/2 88/47/2
f 49/41/38 51/31/41 87/51/2
f 47/63/2 89/45/2 93/58/2
f 91/48/2 92/54/2 74/65/59
f 46/53/2 91/48/2 90/49/2
f 47/63/2 11/66/2 90/49/2
f 94/52/2 40/68/2 85/50/2
f 95/67/2 6/72/2 40/68/2
f 43/69/2 5/28/2 97/59/2
o floor.001
v 16.000000 8.138584 -16.000000
v -16.000000 8.138584 -16.000000
v 16.000000 8.138584 16.000000
v -16.000000 8.138584 16.000000
vn -0.0000 -1.0000 -0.0000
vt 0.000000 1.000000
vt 1.000000 0.000000
vt 0.000000 0.000000
vt 1.000000 1.000000
s 0
usemtl Material.001
f 100/73/63 99/74/63 98/75/63
f 100/73/63 101/76/63 99/74/63
o light.001
v -0.000000 7.414938 -15.977810
v -0.000000 7.414938 -15.996781
v 14.057891 7.350201 -15.996781
v 14.057891 7.350201 -15.977810
v -14.057891 7.350201 -15.996781
v -14.057891 7.350201 -15.977810
v 15.973402 7.350201 -15.977810
v -15.992267 7.350203 -15.977810
v 15.992264 7.350201 -15.996781
v -15.996073 7.350203 -15.996781
vn -0.0000 1.0000 -0.0000
vn 0.0023 1.0000 -0.0000
vn -0.0023 1.0000 -0.0000
vt 0.939309 0.229822
vt 0.500000 0.231845
vt 0.999758 0.229822
vt 0.999877 0.229822
vt 0.060691 0.229822
vt 0.000831 0.229822
vt 0.000242 0.229822
vt 0.500000 0.231845
s 1
usemtl light
f 107/77/66 103/78/64 106/77/66
f 109/79/64 106/77/66 111/80/64
f 104/81/65 108/82/64 110/83/64
f 102/84/64 104/81/65 103/78/64
f 107/77/66 102/84/64 103/78/64
f 109/79/64 107/77/66 106/77/66
f 104/81/65 105/81/65 108/82/64
f 102/84/64 105/81/65 104/81/65
o wall.001
v 16.000000 0.000000 16.000000
v -16.000000 0.000000 16.000000
v 16.000000 8.138584 16.000000
v -16.000000 8.138584 16.000000
v -1.000000 0.000000 16.000000
v 1.000000 0.000000 16.000000
v 0.000000 8.138584 16.000000
v 0.000000 2.036527 16.000000
v 1.000000 1.536527 16.000000
v -1.000000 1.536527 16.000000
v -1.000000 1.536527 15.998079
v -0.985712 1.527697 15.983790
v 0.985712 1.527697 15.983790
v 1.000000 1.536527 15.998079
v 0.000000 2.036527 15.998079
v 0.000000 2.020552 15.983790
v -1.000000 0.000000 15.998079
v -0.985712 0.000000 15.983790
v 0.985712 0.000000 15.983790
v 1.000000 0.000000 15.998079
v 0.000000 1.985141 15.998079
v 0.000000 2.001116 15.983790
v 0.968327 1.516952 15.983790
v 0.954039 1.508122 15.998079
v -0.968327 0.000000 15.983790
v -0.954039 0.000000 15.998079
v -0.954039 1.508122 15.998079
v -0.968327 1.516952 15.983790
v 0.954039 0.000000 15.998079
v 0.968327 0.000000 15.983790
v -1.021270 0.000000 16.000000
v 1.021270 0.000000 16.000000
v 0.000000 2.045180 16.000000
v -1.021270 1.545889 16.000000
v 1.021270 1.545889 16.000000
v -14.057891 0.000000 16.000000
v -14.057606 7.213264 15.992873
v 0.000000 7.419053 15.977811
v 14.057891 0.000000 16.000000
v 0.000000 7.278000 15.992873
v 14.057606 7.213264 15.992873
v -14.057891 8.138584 16.000000
v 14.057891 8.138584 16.000000
v 14.057891 7.354316 15.977811
v 0.000000 7.278000 16.000000
v 0.000000 7.419053 16.000000
v -14.057606 7.213264 16.000000
v -14.057891 7.354316 15.996782
v 14.057891 7.354316 15.996782
v 14.057606 7.213264 16.000000
v -15.996073 7.354317 15.996782
v -16.000000 7.213265 16.000000
v 16.000000 7.213264 16.000000
v 15.992264 7.354316 15.996782
v -14.057891 7.354316 15.977811
v -15.994902 7.213265 15.992873
v -15.992267 7.354317 15.977811
v 15.973402 7.354316 15.977811
v 15.993201 7.213264 15.992873
v 0.000000 7.419053 15.974593
v 14.057891 7.354316 15.974593
v 15.974740 7.354316 15.974593
v -14.057891 7.354316 15.974593
v -15.994903 7.354317 15.974593
v 0.000000 7.419053 15.996782
v 16.000000 7.354316 16.000000
v 14.057891 7.354316 16.000000
v -14.057891 7.354316 16.000000
v -0.000000 7.414938 15.977811
v -16.000000 7.354317 16.000000
v -0.000000 7.414938 15.996782
v 14.057891 7.350201 15.996782
v 14.057891 7.350201 15.977811
v -14.057891 7.350201 15.996782
v -14.057891 7.350201 15.977811
v 15.973402 7.350201 15.977811
v -15.992267 7.350203 15.977811
v 15.992264 7.350201 15.996782
v -15.996073 7.350203 15.996782
v 13.993618 0.000000 16.000000
v -13.993618 0.000000 16.000000
v 0.000000 7.252202 16.000000
v -13.993334 7.185323 16.000000
v 13.993334 7.185323 16.000000
v 14.057891 7.370431 16.000000
v 0.000000 7.433837 16.000000
v -14.057891 7.370431 16.000000
v -16.000000 7.370432 16.000000
v 16.000000 7.370431 16.000000
v -14.057607 7.185324 16.000000
v -16.000000 7.185325 16.000000
v 14.057607 7.185323 16.000000
v 16.000000 7.185324 16.000000
vn -0.0000 -0.0000 -1.0000
vn -0.4529 0.2799 -0.8465
vn 0.4529 0.2799 -0.8465
vn -0.0000 -0.2589 -0.9659
vn -0.5512 -0.3406 -0.7617
vn -0.1960 -0.1211 -0.9731
vn -0.3761 0.2325 -0.8969
vn -0.9239 -0.0000 -0.3827
vn -0.3827 -0.0000 -0.9239
vn 0.9239 -0.0000 -0.3827
vn 0.3761 0.2325 -0.8969
vn 0.3827 -0.0000 -0.9239
vn -0.0000 0.9289 -0.3703
vn -0.7890 0.4876 -0.3738
vn 0.7890 0.4876 -0.3738
vn 0.5512 -0.3406 -0.7617
vn 0.1960 -0.1211 -0.9731
vn -0.7071 -0.0000 -0.7071
vn 0.7071 -0.0000 -0.7071
vn -0.0000 0.4412 -0.8974
vn -0.0000 0.5682 -0.8229
vn -0.8133 -0.0000 -0.5818
vn -0.0015 0.6595 -0.7517
vn -0.0000 -0.8381 -0.5455
vn 0.0017 -0.7516 -0.6596
vn -0.0000 -0.7503 -0.6611
vn 0.0015 0.6595 -0.7517
vn -0.0017 -0.7516 -0.6596
vn -0.0016 0.7066 -0.7076
vn -0.0000 0.7082 -0.7060
vn 0.6337 -0.0000 0.7735
vn 0.2907 0.9267 -0.2381
vn 0.3004 0.8805 0.3667
vn -0.0000 -0.8696 -0.4938
vn -0.0016 -0.7066 -0.7076
vn -0.0000 -0.4578 -0.8890
vn -0.0000 -0.7081 -0.7061
vn 0.7236 -0.0000 -0.6903
vn -0.0000 0.7848 -0.6197
vn 0.0016 -0.7066 -0.7076
vn -0.0000 -0.5174 -0.8557
vn -0.0000 -0.0000 1.0000
vn -0.0016 0.7066 0.7076
vn -0.0000 0.7082 0.7060
vn 0.0016 0.7066 -0.7076
vn -0.0000 0.7061 -0.7081
vn 0.0016 0.7077 -0.7066
vn -0.0000 0.4485 -0.8938
vn -0.0000 0.6614 -0.7501
vn 0.0016 0.7066 0.7076
vn -0.2280 0.8046 0.5483
vn -0.1980 0.9767 -0.0823
vn -0.0016 0.7076 -0.7066
vn -0.0000 0.7092 -0.7050
vn 0.7735 -0.0000 -0.6338
vn -0.9233 -0.0000 -0.3840
vn -0.3841 -0.0000 0.9233
vn -0.0000 0.6581 -0.7530
vn -0.0000 -0.6667 -0.7454
vn -0.9801 -0.0255 -0.1967
vn 0.7092 0.0014 -0.7050
vt 0.531915 0.000000
vt 0.531250 0.048016
vt 0.531915 0.048309
vt 0.500000 0.063912
vt 0.468750 0.048016
vt 0.468085 0.048309
vt 0.500000 0.062535
vt 0.470186 0.047129
vt 0.469740 0.047405
vt 0.530804 0.047741
vt 0.531250 0.000000
vt 0.530804 0.000000
vt 0.468750 0.000000
vt 0.469196 0.047741
vt 0.469197 0.000000
vt 0.500000 0.063641
vt 0.529814 0.047129
vt 0.530260 0.047405
vt 0.469740 0.000000
vt 0.470186 0.000000
vt 0.530260 0.000000
vt 0.529814 0.000000
vt 0.500000 0.063142
vt 0.000000 0.000000
vt 0.939309 0.229822
vt 0.999841 0.225415
vt 0.939300 0.225415
vt 0.500000 0.227438
vt 0.468085 0.000000
vt 0.060691 0.229822
vt 0.060700 0.225415
vt 0.500000 0.231845
vt 0.999758 0.229822
vt 0.999877 0.229822
vt 0.000212 0.225414
vt 0.000000 0.225414
vt 0.500000 0.227438
vt 0.000789 0.229822
vt 1.000000 0.225415
vt 0.500000 0.231845
vt 0.060691 0.230326
vt 0.500000 0.226631
vt 0.062708 0.224541
vt 0.939309 0.230326
vt 0.500000 0.232307
vt 0.937301 0.000000
vt 0.937292 0.224541
vt 0.939300 0.224541
vt 0.939309 0.254331
vt 1.000000 0.230326
vt 0.062699 0.000000
vt 0.060700 0.224541
vt 0.000000 0.229822
vt 0.000000 0.230326
vt 0.000000 0.224541
vt 0.000831 0.229822
vt 0.000242 0.229822
vt 0.999841 0.229822
vt 0.060691 0.254331
vt 0.000000 0.254331
vt 1.000000 0.229822
vt 0.500000 0.254331
vt 1.000000 0.224541
vt 0.939309 0.000000
vt 0.060691 0.000000
vt 0.500000 0.062036
vt 1.000000 0.254331
vt 1.000000 0.000000
s 1
usemtl Material.001
f 142/85/67 145/87/67 121/86/68
f 144/88/67 146/90/67 120/89/69
f 133/91/70 134/93/72 135/92/71
f 123/94/73 129/96/75 128/95/74
f 131/97/76 130/99/78 124/98/77
f 123/94/73 122/86/80 126/100/79
f 126/100/79 125/89/81 124/98/77
f 138/101/82 139/102/83 133/91/70
f 141/103/75 140/104/84 135/92/71
f 138/101/82 137/106/85 136/105/78
f 128/95/74 116/95/84 121/86/68
f 127/107/86 133/91/70 139/102/83
f 139/102/83 136/105/78 129/96/75
f 122/86/80 121/86/68 119/100/87
f 125/89/81 120/89/69 117/97/85
f 130/99/78 141/103/75 134/93/72
f 126/100/79 119/100/87 120/89/69
f 134/93/72 133/91/70 127/107/86
f 144/88/67 119/100/87 121/86/68
s 0
f 167/108/88 163/108/88 181/108/88
s 1
f 174/109/89 148/111/91 167/110/90
f 151/112/92 148/111/91 174/109/89
f 120/89/69 146/90/67 143/113/67
f 172/114/93 152/115/94 151/112/92
f 159/109/95 176/116/96 182/116/67
f 188/117/97 168/117/99 162/118/98
f 170/119/100 164/120/102 161/115/101
f 152/115/94 161/115/101 156/121/103
s 0
f 177/108/104 164/108/104 170/108/104
s 1
f 152/115/94 172/114/93 173/122/105
f 151/112/92 156/121/103 158/111/106
f 158/111/106 163/123/107 167/110/90
f 180/124/108 149/124/110 166/109/109
f 182/116/67 176/116/96 160/114/111
f 196/125/67 178/114/113 157/124/112
f 193/126/67 144/88/67 145/87/67
f 193/126/67 195/127/67 146/90/67
f 198/128/67 197/129/67 157/124/112
f 192/130/67 194/131/67 145/87/67
f 163/123/107 158/111/106 201/132/67
f 153/133/67 198/128/67 199/134/67
f 191/135/67 195/127/67 203/136/67
f 196/125/67 200/138/67 177/137/114
f 164/120/102 204/139/67 203/136/67
f 171/124/115 149/124/110 155/114/116
f 172/114/93 155/114/116 169/140/117
f 174/109/89 166/109/109 149/124/110
f 168/117/99 166/109/109 174/109/89
f 173/122/105 169/140/117 165/141/118
f 178/114/113 160/114/111 176/116/96
f 157/124/112 176/116/96 159/109/95
f 179/109/119 159/109/95 162/118/98
f 165/141/118 160/114/111 178/114/113
f 162/118/98 168/117/99 175/142/120
f 186/109/108 166/109/109 168/117/99
f 155/114/116 149/124/110 180/124/108
f 190/118/121 162/118/98 159/109/95
f 189/141/122 165/141/118 169/140/117
f 187/140/123 169/140/117 155/114/116
f 183/114/67 160/114/111 165/141/118
f 146/90/67 195/127/67 191/135/67
f 158/111/106 194/131/67 201/132/67
f 156/121/103 161/115/101 195/127/67
f 156/121/103 193/126/67 194/131/67
f 154/143/67 114/144/67 200/138/67
f 198/128/67 179/109/119 181/145/124
f 153/133/67 118/146/67 197/129/67
f 154/143/67 196/125/67 197/129/67
f 201/132/67 194/131/67 192/130/67
f 202/147/67 201/132/67 147/148/67
f 150/149/67 203/136/67 204/139/67
f 203/136/67 195/127/67 161/115/101
f 142/85/67 121/86/68 116/95/84
f 144/88/67 120/89/69 119/100/87
f 133/91/70 135/92/71 132/150/125
f 123/94/73 128/95/74 122/86/80
f 131/97/76 124/98/77 125/89/81
f 123/94/73 126/100/79 127/107/86
f 126/100/79 124/98/77 127/107/86
f 138/101/82 133/91/70 132/150/125
f 141/103/75 135/92/71 134/93/72
f 138/101/82 136/105/78 139/102/83
f 128/95/74 121/86/68 122/86/80
f 127/107/86 139/102/83 123/94/73
f 139/102/83 129/96/75 123/94/73
f 122/86/80 119/100/87 126/100/79
f 125/89/81 117/97/85 131/97/76
f 130/99/78 134/93/72 124/98/77
f 126/100/79 120/89/69 125/89/81
f 134/93/72 127/107/86 124/98/77
f 144/88/67 121/86/68 145/87/67
s 0
f 167/108/126 181/108/126 175/108/126
s 1
f 174/109/89 167/110/90 175/142/120
f 151/112/92 174/109/89 171/124/115
f 120/89/69 143/113/67 117/97/85
f 172/114/93 151/112/92 171/124/115
f 159/109/95 182/116/67 185/109/67
f 188/117/97 162/118/98 190/118/121
f 170/119/100 161/115/101 152/115/94
f 152/115/94 156/121/103 151/112/92
s 0
f 177/108/127 170/108/127 173/108/127
s 1
f 152/115/94 173/122/105 170/119/100
f 151/112/92 158/111/106 148/111/91
f 158/111/106 167/110/90 148/111/91
f 180/124/108 166/109/109 186/109/108
f 182/116/67 160/114/111 183/114/67
f 196/125/67 157/124/112 197/129/67
f 193/126/67 145/87/67 194/131/67
f 193/126/67 146/90/67 144/88/67
f 198/128/67 157/124/112 179/109/119
f 192/130/67 145/87/67 142/85/67
f 163/123/107 201/132/67 202/147/67
f 153/133/67 199/134/67 115/151/67
f 191/135/67 203/136/67 150/149/67
f 196/125/67 177/137/114 178/114/113
f 164/120/102 203/136/67 161/115/101
f 171/124/115 155/114/116 172/114/93
f 172/114/93 169/140/117 173/122/105
f 174/109/89 149/124/110 171/124/115
f 168/117/99 174/109/89 175/142/120
f 173/122/105 165/141/118 177/137/114
f 178/114/113 176/116/96 157/124/112
f 157/124/112 159/109/95 179/109/119
f 179/109/119 162/118/98 181/145/124
f 165/141/118 178/114/113 177/137/114
f 162/118/98 175/142/120 181/145/124
f 186/109/108 168/117/99 188/117/97
f 155/114/116 180/124/108 184/114/108
f 190/118/121 159/109/95 185/109/67
f 189/141/122 169/140/117 187/140/123
f 187/140/123 155/114/116 184/114/108
f 183/114/67 165/141/118 189/141/122
f 146/90/67 191/135/67 143/113/67
f 156/121/103 195/127/67 193/126/67
f 156/121/103 194/131/67 158/111/106
f 154/143/67 200/138/67 196/125/67
f 198/128/67 181/145/124 199/134/67
f 153/133/67 197/129/67 198/128/67
f 154/143/67 197/129/67 118/146/67
f 201/132/67 192/130/67 147/148/67
f 202/147/67 147/148/67 113/152/67
f 150/149/67 204/139/67 112/108/67
o light
v -0.000000 7.414938 15.977811
v -0.000000 7.414938 15.996782
v 14.057891 7.350201 15.996782
v 14.057891 7.350201 15.977811
v -14.057891 7.350201 15.996782
v -14.057891 7.350201 15.977811
v 15.973402 7.350201 15.977811
v -15.992267 7.350203 15.977811
v 15.992264 7.350201 15.996782
v -15.996073 7.350203 15.996782
vn -0.0000 1.0000 -0.0000
vn 0.0023 1.0000 -0.0000
vn -0.0023 1.0000 -0.0000
vt 0.939309 0.229822
vt 0.500000 0.231845
vt 0.999758 0.229822
vt 0.999877 0.229822
vt 0.060691 0.229822
vt 0.000831 0.229822
vt 0.000242 0.229822
vt 0.500000 0.231845
s 1
usemtl light
f 210/153/130 209/153/130 206/154/128
f 212/155/128 214/156/128 209/153/130
f 207/157/129 213/159/128 211/158/128
f 205/160/128 206/154/128 207/157/129
f 210/153/130 206/154/128 205/160/128
f 212/155/128 209/153/130 210/153/130
f 207/157/129 211/158/128 208/157/129
f 205/160/128 207/157/129 208/157/129
o wall.003
v -15.999999 0.000000 -16.000000
v -16.000002 0.000000 15.999999
v -15.999999 8.138584 -16.000000
v -16.000002 8.138584 15.999999
v -16.000000 0.000000 0.999999
v -16.000000 0.000000 -1.000001
v -16.000000 8.138584 -0.000001
v -16.000000 2.036527 -0.000001
v -16.000000 1.536527 -1.000001
v -16.000000 1.536527 0.999999
v -15.998079 1.536527 0.999999
v -15.983790 1.527697 0.985711
v -15.983790 1.527697 -0.985713
v -15.998079 1.536527 -1.000001
v -15.998079 2.036527 -0.000001
v -15.983790 2.020552 -0.000001
v -15.998079 0.000000 0.999999
v -15.983790 0.000000 0.985711
v -15.983790 0.000000 -0.985713
v -15.998079 0.000000 -1.000001
v -15.998079 1.985141 -0.000001
v -15.983790 2.001116 -0.000001
v -15.983790 1.516952 -0.968328
v -15.998079 1.508122 -0.954040
v -15.983790 0.000000 0.968326
v -15.998079 0.000000 0.954038
v -15.998079 1.508122 0.954038
v -15.983790 1.516952 0.968326
v -15.998079 0.000000 -0.954040
v -15.983790 0.000000 -0.968328
v -16.000000 0.000000 1.021269
v -16.000000 0.000000 -1.021271
v -16.000000 2.045180 -0.000001
v -16.000000 1.545889 1.021269
v -16.000000 1.545889 -1.021271
v -16.000002 0.000000 14.057890
v -15.992875 7.213264 14.057605
v -15.977811 7.419053 -0.000001
v -15.999999 0.000000 -14.057892
v -15.992873 7.278000 -0.000001
v -15.992872 7.213264 -14.057607
v -16.000002 8.138584 14.057890
v -15.999999 8.138584 -14.057892
v -15.977809 7.354316 -14.057892
v -16.000000 7.278000 -0.000001
v -16.000000 7.419053 -0.000001
v -16.000002 7.213264 14.057605
v -15.996783 7.354316 14.057890
v -15.996781 7.354316 -14.057892
v -15.999999 7.213264 -14.057607
v -15.996784 7.354317 15.996072
v -16.000002 7.213265 15.999999
v -15.999999 7.213264 -16.000000
v -15.996781 7.354316 -15.992265
v -15.977812 7.354316 14.057890
v -15.992875 7.213265 15.994901
v -15.977812 7.354317 15.992266
v -15.977809 7.354316 -15.973403
v -15.992872 7.213264 -15.993202
v -15.974593 7.419053 -0.000001
v -15.974592 7.354316 -14.057892
v -15.974592 7.354316 -15.974741
v -15.974594 7.354316 14.057890
v -15.974594 7.354317 15.994902
v -15.996782 7.419053 -0.000001
v -15.999999 7.354316 -16.000000
v -15.999999 7.354316 -14.057892
v -16.000002 7.354316 14.057890
v -15.977811 7.414938 -0.000001
v -16.000002 7.354317 15.999999
v -15.996782 7.414938 -0.000001
v -15.996781 7.350201 -14.057892
v -15.977809 7.350201 -14.057892
v -15.996783 7.350201 14.057890
v -15.977812 7.350201 14.057890
v -15.977809 7.350201 -15.973403
v -15.977812 7.350203 15.992266
v -15.996781 7.350201 -15.992265
v -15.996784 7.350203 15.996072
v -15.999999 0.000000 -13.993619
v -16.000002 0.000000 13.993617
v -16.000000 7.252202 -0.000001
v -16.000002 7.185323 13.993333
v -15.999999 7.185323 -13.993335
v -15.999999 7.370431 -14.057892
v -16.000000 7.433837 -0.000001
v -16.000002 7.370431 14.057890
v -16.000002 7.370432 15.999999
v -15.999999 7.370431 -16.000000
v -16.000002 7.185324 14.057606
v -16.000002 7.185325 15.999999
v -15.999999 7.185323 -14.057608
v -15.999999 7.185324 -16.000000
vn 1.0000 -0.0000 -0.0000
vn 0.8465 0.2799 0.4529
vn 0.8465 0.2799 -0.4529
vn 0.9659 -0.2589 -0.0000
vn 0.7617 -0.3406 0.5512
vn 0.9731 -0.1211 0.1960
vn 0.8969 0.2325 0.3761
vn 0.3827 -0.0000 0.9239
vn 0.9239 -0.0000 0.3827
vn 0.3827 -0.0000 -0.9239
vn 0.8969 0.2325 -0.3761
vn 0.9239 -0.0000 -0.3827
vn 0.3703 0.9289 -0.0000
vn 0.3738 0.4876 0.7890
vn 0.3738 0.4876 -0.7890
vn 0.7617 -0.3406 -0.5512
vn 0.9731 -0.1211 -0.1960
vn 0.7071 -0.0000 0.7071
vn 0.7071 -0.0000 -0.7071
vn 0.8974 0.4412 -0.0000
vn 0.8229 0.5682 -0.0000
vn 0.5818 -0.0000 0.8133
vn 0.7517 0.6595 0.0015
vn 0.5455 -0.8381 -0.0000
vn 0.6596 -0.7516 -0.0017
vn 0.6611 -0.7503 -0.0000
vn 0.7517 0.6595 -0.0015
vn 0.6596 -0.7516 0.0017
vn 0.7076 0.7066 0.0016
vn 0.7060 0.7082 -0.0000
vn -0.7735 -0.0000 -0.6337
vn 0.2381 0.9267 -0.2907
vn -0.3667 0.8805 -0.3004
vn 0.4938 -0.8696 -0.0000
vn 0.7076 -0.7066 0.0016
vn 0.8890 -0.4578 -0.0000
vn 0.7061 -0.7081 -0.0000
vn 0.6903 -0.0000 -0.7236
vn 0.6197 0.7848 -0.0000
vn 0.7076 -0.7066 -0.0016
vn 0.8557 -0.5174 -0.0000
vn -1.0000 -0.0000 -0.0000
vn -0.7076 0.7066 0.0016
vn -0.7060 0.7082 -0.0000
vn 0.7076 0.7066 -0.0016
vn 0.7081 0.7061 -0.0000
vn 0.7066 0.7077 -0.0016
vn 0.8938 0.4485 -0.0000
vn 0.7501 0.6614 -0.0000
vn -0.7076 0.7066 -0.0016
vn -0.5483 0.8046 0.2280
vn 0.0823 0.9767 0.1980
vn 0.7066 0.7076 0.0016
vn 0.7050 0.7092 -0.0000
vn 0.6338 -0.0000 -0.7735
vn 0.3840 -0.0000 0.9233
vn -0.9233 -0.0000 0.3841
vn 0.7530 0.6581 -0.0000
vn 0.7454 -0.6667 -0.0000
vn 0.1967 -0.0255 0.9801
vn 0.7050 0.0014 -0.7092
vt 0.531915 0.000000
vt 0.531250 0.048016
vt 0.531915 0.048309
vt 0.500000 0.063912
vt 0.468750 0.048016
vt 0.468085 0.048309
vt 0.500000 0.062535
vt 0.470186 0.047129
vt 0.469740 0.047405
vt 0.530804 0.047741
vt 0.531250 0.000000
vt 0.530804 0.000000
vt 0.468750 0.000000
vt 0.469196 0.047741
vt 0.469197 0.000000
vt 0.500000 0.063641
vt 0.529814 0.047129
vt 0.530260 0.047405
vt 0.469740 0.000000
vt 0.470186 0.000000
vt 0.530260 0.000000
vt 0.529814 0.000000
vt 0.500000 0.063142
vt 0.000000 0.000000
vt 0.939309 0.229822
vt 0.999841 0.225415
vt 0.939300 0.225415
vt 0.500000 0.227438
vt 0.468085 0.000000
vt 0.060691 0.229822
vt 0.060700 0.225415
vt 0.500000 0.231845
vt 0.999758 0.229822
vt 0.999877 0.229822
vt 0.000212 0.225414
vt 0.000000 0.225414
vt 0.500000 0.227438
vt 0.000789 0.229822
vt 1.000000 0.225415
vt 0.500000 0.231845
vt 0.060691 0.230326
vt 0.500000 0.226631
vt 0.062708 0.224541
vt 0.939309 0.230326
vt 0.500000 0.232307
vt 0.937301 0.000000
vt 0.937292 0.224541
vt 0.939300 0.224541
vt 0.939309 0.254331
vt 1.000000 0.230326
vt 0.062699 0.000000
vt 0.060700 0.224541
vt 0.000000 0.229822
vt 0.000000 0.230326
vt 0.000000 0.224541
vt 0.000831 0.229822
vt 0.000242 0.229822
vt 0.999841 0.229822
vt 0.060691 0.254331
vt 0.000000 0.254331
vt 1.000000 0.229822
vt 0.500000 0.254331
vt 1.000000 0.224541
vt 0.939309 0.000000
vt 0.060691 0.000000
vt 0.500000 0.062036
vt 1.000000 0.254331
vt 1.000000 0.000000
s 1
usemtl Material.001
f 245/161/131 224/162/132 248/163/131
f 247/164/131 223/165/133 249/166/131
f 236/167/134 238/168/135 237/169/136
f 226/170/137 231/171/138 232/172/139
f 234/173/140 227/174/141 233/175/142
f 226/170/137 229/176/143 225/162/144
f 229/176/143 227/174/141 228/165/145
f 241/177/146 236/167/134 242/178/147
f 244/179/139 238/168/135 243/180/148
f 241/177/146 239/181/142 240/182/149
f 231/171/138 224/162/132 219/171/148
f 230/183/150 242/178/147 236/167/134
f 242/178/147 232/172/139 239/181/142
f 225/162/144 222/176/151 224/162/132
f 228/165/145 220/173/149 223/165/133
f 233/175/142 237/169/136 244/179/139
f 229/176/143 223/165/133 222/176/151
f 237/169/136 230/183/150 236/167/134
f 247/164/131 224/162/132 222/176/151
s 0
f 270/184/152 284/184/152 266/184/152
s 1
f 277/185/153 270/186/154 251/187/155
f 254/188/156 277/185/153 251/187/155
f 223/165/133 246/189/131 249/166/131
f 275/190/157 254/188/156 255/191/158
f 262/185/159 285/192/131 279/192/160
f 291/193/161 265/194/162 271/193/163
f 273/195/164 264/191/165 267/196/166
f 255/191/158 259/197/167 264/191/165
s 0
f 280/184/168 273/184/168 267/184/168
s 1
f 255/191/158 276/198/169 275/190/157
f 254/188/156 261/187/170 259/197/167
f 261/187/170 270/186/154 266/199/171
f 283/200/172 269/185/173 252/200/174
f 285/192/131 263/190/175 279/192/160
f 299/201/131 260/200/176 281/190/177
f 296/202/131 248/163/131 247/164/131
f 296/202/131 249/166/131 298/203/131
f 301/204/131 260/200/176 300/205/131
f 295/206/131 248/163/131 297/207/131
f 266/199/171 304/208/131 261/187/170
f 256/209/131 302/210/131 301/204/131
f 294/211/131 306/212/131 298/203/131
f 299/201/131 280/213/178 303/214/131
f 267/196/166 306/212/131 307/215/131
f 274/200/179 258/190/180 252/200/174
f 275/190/157 272/216/181 258/190/180
f 277/185/153 252/200/174 269/185/173
f 271/193/163 277/185/153 269/185/173
f 276/198/169 268/217/182 272/216/181
f 281/190/177 279/192/160 263/190/175
f 260/200/176 262/185/159 279/192/160
f 282/185/183 265/194/162 262/185/159
f 268/217/182 281/190/177 263/190/175
f 265/194/162 278/218/184 271/193/163
f 289/185/172 271/193/163 269/185/173
f 258/190/180 283/200/172 252/200/174
f 293/194/185 262/185/159 265/194/162
f 292/217/186 272/216/181 268/217/182
f 290/216/187 258/190/180 272/216/181
f 286/190/131 268/217/182 263/190/175
f 249/166/131 294/211/131 298/203/131
f 261/187/170 304/208/131 297/207/131
f 259/197/167 298/203/131 264/191/165
f 259/197/167 297/207/131 296/202/131
f 257/219/131 303/214/131 217/220/131
f 301/204/131 284/221/188 282/185/183
f 256/209/131 300/205/131 221/222/131
f 257/219/131 300/205/131 299/201/131
f 304/208/131 295/206/131 297/207/131
f 305/223/131 250/224/131 304/208/131
f 253/225/131 307/215/131 306/212/131
f 306/212/131 264/191/165 298/203/131
f 245/161/131 219/171/148 224/162/132
f 247/164/131 222/176/151 223/165/133
f 236/167/134 235/226/189 238/168/135
f 226/170/137 225/162/144 231/171/138
f 234/173/140 228/165/145 227/174/141
f 226/170/137 230/183/150 229/176/143
f 229/176/143 230/183/150 227/174/141
f 241/177/146 235/226/189 236/167/134
f 244/179/139 237/169/136 238/168/135
f 241/177/146 242/178/147 239/181/142
f 231/171/138 225/162/144 224/162/132
f 230/183/150 226/170/137 242/178/147
f 242/178/147 226/170/137 232/172/139
f 225/162/144 229/176/143 222/176/151
f 228/165/145 234/173/140 220/173/149
f 233/175/142 227/174/141 237/169/136
f 229/176/143 228/165/145 223/165/133
f 237/169/136 227/174/141 230/183/150
f 247/164/131 248/163/131 224/162/132
s 0
f 270/184/190 278/184/190 284/184/190
s 1
f 277/185/153 278/218/184 270/186/154
f 254/188/156 274/200/179 277/185/153
f 223/165/133 220/173/149 246/189/131
f 275/190/157 274/200/179 254/188/156
f 262/185/159 288/185/131 285/192/131
f 291/193/161 293/194/185 265/194/162
f 273/195/164 255/191/158 264/191/165
f 255/191/158 254/188/156 259/197/167
s 0
f 280/184/191 276/184/191 273/184/191
s 1
f 255/191/158 273/195/164 276/198/169
f 254/188/156 251/187/155 261/187/170
f 261/187/170 251/187/155 270/186/154
f 283/200/172 289/185/172 269/185/173
f 285/192/131 286/190/131 263/190/175
f 299/201/131 300/205/131 260/200/176
f 296/202/131 297/207/131 248/163/131
f 296/202/131 247/164/131 249/166/131
f 301/204/131 282/185/183 260/200/176
f 295/206/131 245/161/131 248/163/131
f 266/199/171 305/223/131 304/208/131
f 256/209/131 218/227/131 302/210/131
f 294/211/131 253/225/131 306/212/131
f 299/201/131 281/190/177 280/213/178
f 267/196/166 264/191/165 306/212/131
f 274/200/179 275/190/157 258/190/180
f 275/190/157 276/198/169 272/216/181
f 277/185/153 274/200/179 252/200/174
f 271/193/163 278/218/184 277/185/153
f 276/198/169 280/213/178 268/217/182
f 281/190/177 260/200/176 279/192/160
f 260/200/176 282/185/183 262/185/159
f 282/185/183 284/221/188 265/194/162
f 268/217/182 280/213/178 281/190/177
f 265/194/162 284/221/188 278/218/184
f 289/185/172 291/193/161 271/193/163
f 258/190/180 287/190/172 283/200/172
f 293/194/185 288/185/131 262/185/159
f 292/217/186 290/216/187 272/216/181
f 290/216/187 287/190/172 258/190/180
f 286/190/131 292/217/186 268/217/182
f 249/166/131 246/189/131 294/211/131
f 259/197/167 296/202/131 298/203/131
f 259/197/167 261/187/170 297/207/131
f 257/219/131 299/201/131 303/214/131
f 301/204/131 302/210/131 284/221/188
f 256/209/131 301/204/131 300/205/131
f 257/219/131 221/222/131 300/205/131
f 304/208/131 250/224/131 295/206/131
f 305/223/131 216/228/131 250/224/131
f 253/225/131 215/184/131 307/215/131
o light.002
v -15.977811 7.414938 -0.000001
v -15.996782 7.414938 -0.000001
v -15.996781 7.350201 -14.057892
v -15.977809 7.350201 -14.057892
v -15.996783 7.350201 14.057890
v -15.977812 7.350201 14.057890
v -15.977809 7.350201 -15.973403
v -15.977812 7.350203 15.992266
v -15.996781 7.350201 -15.992265
v -15.996784 7.350203 15.996072
vn -0.0000 1.0000 -0.0000
vn -0.0000 1.0000 -0.0023
vn -0.0000 1.0000 0.0023
vt 0.939309 0.229822
vt 0.500000 0.231845
vt 0.999758 0.229822
vt 0.999877 0.229822
vt 0.060691 0.229822
vt 0.000831 0.229822
vt 0.000242 0.229822
vt 0.500000 0.231845
s 1
usemtl light
f 313/229/194 309/230/192 312/229/194
f 315/231/192 312/229/194 317/232/192
f 310/233/193 314/234/192 316/235/192
f 308/236/192 310/233/193 309/230/192
f 313/229/194 308/236/192 309/230/192
f 315/231/192 313/229/194 312/229/194
f 310/233/193 311/233/193 314/234/192
f 308/236/192 311/233/193 310/233/193
o wall.006
v 16.000002 0.000000 -15.999998
v 15.999999 0.000000 16.000002
v 16.000002 8.138584 -15.999998
v 15.999999 8.138584 16.000002
v 16.000000 0.000000 1.000002
v 16.000000 0.000000 -0.999998
v 16.000000 8.138584 0.000002
v 16.000000 2.036527 0.000002
v 16.000000 1.536527 -0.999998
v 16.000000 1.536527 1.000002
v 15.998079 1.536527 1.000002
v 15.983790 1.527697 0.985714
v 15.983790 1.527697 -0.985710
v 15.998079 1.536527 -0.999998
v 15.998079 2.036527 0.000002
v 15.983790 2.020552 0.000002
v 15.998079 0.000000 1.000002
v 15.983790 0.000000 0.985714
v 15.983790 0.000000 -0.985710
v 15.998079 0.000000 -0.999998
v 15.998079 1.985141 0.000002
v 15.983790 2.001116 0.000002
v 15.983790 1.516952 -0.968325
v 15.998079 1.508122 -0.954037
v 15.983790 0.000000 0.968329
v 15.998079 0.000000 0.954041
v 15.998079 1.508122 0.954041
v 15.983790 1.516952 0.968329
v 15.998079 0.000000 -0.954037
v 15.983790 0.000000 -0.968325
v 16.000000 0.000000 1.021272
v 16.000000 0.000000 -1.021268
v 16.000000 2.045180 0.000002
v 16.000000 1.545889 1.021272
v 16.000000 1.545889 -1.021268
v 15.999999 0.000000 14.057893
v 15.992872 7.213264 14.057608
v 15.977811 7.419053 0.000002
v 16.000002 0.000000 -14.057889
v 15.992873 7.278000 0.000002
v 15.992875 7.213264 -14.057604
v 15.999999 8.138584 14.057893
v 16.000002 8.138584 -14.057889
v 15.977812 7.354316 -14.057889
v 16.000000 7.278000 0.000002
v 16.000000 7.419053 0.000002
v 15.999999 7.213264 14.057608
v 15.996781 7.354316 14.057893
v 15.996783 7.354316 -14.057889
v 16.000002 7.213264 -14.057604
v 15.996781 7.354317 15.996075
v 15.999999 7.213265 16.000002
v 16.000002 7.213264 -15.999998
v 15.996784 7.354316 -15.992262
v 15.977809 7.354316 14.057893
v 15.992872 7.213265 15.994904
v 15.977809 7.354317 15.992269
v 15.977812 7.354316 -15.973400
v 15.992875 7.213264 -15.993199
v 15.974593 7.419053 0.000002
v 15.974594 7.354316 -14.057889
v 15.974594 7.354316 -15.974738
v 15.974592 7.354316 14.057893
v 15.974592 7.354317 15.994905
v 15.996782 7.419053 0.000002
v 16.000002 7.354316 -15.999998
v 16.000002 7.354316 -14.057889
v 15.999999 7.354316 14.057893
v 15.977811 7.414938 0.000002
v 15.999999 7.354317 16.000002
v 15.996782 7.414938 0.000002
v 15.996783 7.350201 -14.057889
v 15.977812 7.350201 -14.057889
v 15.996781 7.350201 14.057893
v 15.977809 7.350201 14.057893
v 15.977812 7.350201 -15.973400
v 15.977809 7.350203 15.992269
v 15.996784 7.350201 -15.992262
v 15.996781 7.350203 15.996075
v 16.000002 0.000000 -13.993616
v 15.999999 0.000000 13.993620
v 16.000000 7.252202 0.000002
v 15.999999 7.185323 13.993336
v 16.000002 7.185323 -13.993332
v 16.000002 7.370431 -14.057889
v 16.000000 7.433837 0.000002
v 15.999999 7.370431 14.057893
v 15.999999 7.370432 16.000002
v 16.000002 7.370431 -15.999998
v 15.999999 7.185324 14.057609
v 15.999999 7.185325 16.000002
v 16.000002 7.185323 -14.057605
v 16.000002 7.185324 -15.999998
vn -1.0000 -0.0000 -0.0000
vn -0.8465 0.2799 0.4529
vn -0.8465 0.2799 -0.4529
vn -0.9659 -0.2589 -0.0000
vn -0.7617 -0.3406 0.5512
vn -0.9731 -0.1211 0.1960
vn -0.8969 0.2325 0.3761
vn -0.3827 -0.0000 0.9239
vn -0.9239 -0.0000 0.3827
vn -0.3827 -0.0000 -0.9239
vn -0.8969 0.2325 -0.3761
vn -0.9239 -0.0000 -0.3827
vn -0.3703 0.9289 -0.0000
vn -0.3738 0.4876 0.7890
vn -0.3738 0.4876 -0.7890
vn -0.7617 -0.3406 -0.5512
vn -0.9731 -0.1211 -0.1960
vn -0.7071 -0.0000 0.7071
vn -0.7071 -0.0000 -0.7071
vn -0.8974 0.4412 -0.0000
vn -0.8229 0.5682 -0.0000
vn -0.5818 -0.0000 0.8133
vn -0.7517 0.6595 0.0015
vn -0.5455 -0.8381 -0.0000
vn -0.6596 -0.7516 -0.0017
vn -0.6611 -0.7503 -0.0000
vn -0.7517 0.6595 -0.0015
vn -0.6596 -0.7516 0.0017
vn -0.7076 0.7066 0.0016
vn -0.7060 0.7082 -0.0000
vn 0.7735 -0.0000 -0.6337
vn -0.2381 0.9267 -0.2907
vn 0.3667 0.8805 -0.3004
vn -0.4938 -0.8696 -0.0000
vn -0.7076 -0.7066 0.0016
vn -0.8890 -0.4578 -0.0000
vn -0.7061 -0.7081 -0.0000
vn -0.6903 -0.0000 -0.7236
vn -0.6197 0.7848 -0.0000
vn -0.7076 -0.7066 -0.0016
vn -0.8557 -0.5174 -0.0000
vn 1.0000 -0.0000 -0.0000
vn 0.7076 0.7066 0.0016
vn 0.7060 0.7082 -0.0000
vn -0.7076 0.7066 -0.0016
vn -0.7081 0.7061 -0.0000
vn -0.7066 0.7077 -0.0016
vn -0.8938 0.4485 -0.0000
vn -0.7501 0.6614 -0.0000
vn 0.7076 0.7066 -0.0016
vn 0.5483 0.8046 0.2280
vn -0.0823 0.9767 0.1980
vn -0.7066 0.7076 0.0016
vn -0.7050 0.7092 -0.0000
vn -0.6338 -0.0000 -0.7735
vn -0.3840 -0.0000 0.9233
vn 0.9233 -0.0000 0.3841
vn -0.7530 0.6581 -0.0000
vn -0.7454 -0.6667 -0.0000
vn -0.1967 -0.0255 0.9801
vn -0.7050 0.0014 -0.7092
vt 0.531915 0.000000
vt 0.531250 0.048016
vt 0.531915 0.048309
vt 0.500000 0.063912
vt 0.468750 0.048016
vt 0.468085 0.048309
vt 0.500000 0.062535
vt 0.470186 0.047129
vt 0.469740 0.047405
vt 0.530804 0.047741
vt 0.531250 0.000000
vt 0.530804 0.000000
vt 0.468750 0.000000
vt 0.469196 0.047741
vt 0.469197 0.000000
vt 0.500000 0.063641
vt 0.529814 0.047129
vt 0.530260 0.047405
vt 0.469740 0.000000
vt 0.470186 0.000000
vt 0.530260 0.000000
vt 0.529814 0.000000
vt 0.500000 0.063142
vt 0.000000 0.000000
vt 0.939309 0.229822
vt 0.999841 0.225415
vt 0.939300 0.225415
vt 0.500000 0.227438
vt 0.468085 0.000000
vt 0.060691 0.229822
vt 0.060700 0.225415
vt 0.500000 0.231845
vt 0.999758 0.229822
vt 0.999877 0.229822
vt 0.000212 0.225414
vt 0.000000 0.225414
vt 0.500000 0.227438
vt 0.000789 0.229822
vt 1.000000 0.225415
vt 0.500000 0.231845
vt 0.060691 0.230326
vt 0.500000 0.226631
vt 0.062708 0.224541
vt 0.939309 0.230326
vt 0.500000 0.232307
vt 0.937301 0.000000
vt 0.937292 0.224541
vt 0.939300 0.224541
vt 0.939309 0.254331
vt 1.000000 0.230326
vt 0.062699 0.000000
vt 0.060700 0.224541
vt 0.000000 0.229822
vt 0.000000 0.230326
vt 0.000000 0.224541
vt 0.000831 0.229822
vt 0.000242 0.229822
vt 0.999841 0.229822
vt 0.060691 0.254331
vt 0.000000 0.254331
vt 1.000000 0.229822
vt 0.500000 0.254331
vt 1.000000 0.224541
vt 0.939309 0.000000
vt 0.060691 0.000000
vt 0.500000 0.062036
vt 1.000000 0.254331
vt 1.000000 0.000000
s 1
usemtl Material.001
f 348/237/195 351/239/195 327/238/196
f 350/240/195 352/242/195 326/241/197
f 339/243/198 340/245/200 341/244/199
f 329/246/201 335/248/203 334/247/202
f 337/249/204 336/251/206 330/250/205
f 329/246/201 328/238/208 332/252/207
f 332/252/207 331/241/209 330/250/205
f 344/253/210 345/254/211 339/243/198
f 347/255/203 346/256/212 341/244/199
f 344/253/210 343/258/213 342/257/206
f 334/247/202 322/247/212 327/238/196
f 333/259/214 339/243/198 345/254/211
f 345/254/211 342/257/206 335/248/203
f 328/238/208 327/238/196 325/252/215
f 331/241/209 326/241/197 323/249/213
f 336/251/206 347/255/203 340/245/200
f 332/252/207 325/252/215 326/241/197
f 340/245/200 339/243/198 333/259/214
f 350/240/195 325/252/215 327/238/196
s 0
f 373/260/216 369/260/216 387/260/216
s 1
f 380/261/217 354/263/219 373/262/218
f 357/264/220 354/263/219 380/261/217
f 326/241/197 352/242/195 349/265/195
f 378/266/221 358/267/222 357/264/220
f 365/261/223 382/268/224 388/268/195
f 394/269/225 374/269/227 368/270/226
f 376/271/228 370/272/230 367/267/229
f 358/267/222 367/267/229 362/273/231
s 0
f 383/260/232 370/260/232 376/260/232
s 1
f 358/267/222 378/266/221 379/274/233
f 357/264/220 362/273/231 364/263/234
f 364/263/234 369/275/235 373/262/218
f 386/276/236 355/276/238 372/261/237
f 388/268/195 382/268/224 366/266/239
f 402/277/195 384/266/241 363/276/240
f 399/278/195 350/240/195 351/239/195
f 399/278/195 401/279/195 352/242/195
f 404/280/195 403/281/195 363/276/240
f 398/282/195 400/283/195 351/239/195
f 369/275/235 364/263/234 407/284/195
f 359/285/195 404/280/195 405/286/195
f 397/287/195 401/279/195 409/288/195
f 402/277/195 406/290/195 383/289/242
f 370/272/230 410/291/195 409/288/195
f 377/276/243 355/276/238 361/266/244
f 378/266/221 361/266/244 375/292/245
f 380/261/217 372/261/237 355/276/238
f 374/269/227 372/261/237 380/261/217
f 379/274/233 375/292/245 371/293/246
f 384/266/241 366/266/239 382/268/224
f 363/276/240 382/268/224 365/261/223
f 385/261/247 365/261/223 368/270/226
f 371/293/246 366/266/239 384/266/241
f 368/270/226 374/269/227 381/294/248
f 392/261/236 372/261/237 374/269/227
f 361/266/244 355/276/238 386/276/236
f 396/270/249 368/270/226 365/261/223
f 395/293/250 371/293/246 375/292/245
f 393/292/251 375/292/245 361/266/244
f 389/266/195 366/266/239 371/293/246
f 352/242/195 401/279/195 397/287/195
f 364/263/234 400/283/195 407/284/195
f 362/273/231 367/267/229 401/279/195
f 362/273/231 399/278/195 400/283/195
f 360/295/195 320/296/195 406/290/195
f 404/280/195 385/261/247 387/297/252
f 359/285/195 324/298/195 403/281/195
f 360/295/195 402/277/195 403/281/195
f 407/284/195 400/283/195 398/282/195
f 408/299/195 407/284/195 353/300/195
f 356/301/195 409/288/195 410/291/195
f 409/288/195 401/279/195 367/267/229
f 348/237/195 327/238/196 322/247/212
f 350/240/195 326/241/197 325/252/215
f 339/243/198 341/244/199 338/302/253
f 329/246/201 334/247/202 328/238/208
f 337/249/204 330/250/205 331/241/209
f 329/246/201 332/252/207 333/259/214
f 332/252/207 330/250/205 333/259/214
f 344/253/210 339/243/198 338/302/253
f 347/255/203 341/244/199 340/245/200
f 344/253/210 342/257/206 345/254/211
f 334/247/202 327/238/196 328/238/208
f 333/259/214 345/254/211 329/246/201
f 345/254/211 335/248/203 329/246/201
f 328/238/208 325/252/215 332/252/207
f 331/241/209 323/249/213 337/249/204
f 336/251/206 340/245/200 330/250/205
f 332/252/207 326/241/197 331/241/209
f 340/245/200 333/259/214 330/250/205
f 350/240/195 327/238/196 351/239/195
s 0
f 373/260/254 387/260/254 381/260/254
s 1
f 380/261/217 373/262/218 381/294/248
f 357/264/220 380/261/217 377/276/243
f 326/241/197 349/265/195 323/249/213
f 378/266/221 357/264/220 377/276/243
f 365/261/223 388/268/195 391/261/195
f 394/269/225 368/270/226 396/270/249
f 376/271/228 367/267/229 358/267/222
f 358/267/222 362/273/231 357/264/220
s 0
f 383/260/255 376/260/255 379/260/255
s 1
f 358/267/222 379/274/233 376/271/228
f 357/264/220 364/263/234 354/263/219
f 364/263/234 373/262/218 354/263/219
f 386/276/236 372/261/237 392/261/236
f 388/268/195 366/266/239 389/266/195
f 402/277/195 363/276/240 403/281/195
f 399/278/195 351/239/195 400/283/195
f 399/278/195 352/242/195 350/240/195
f 404/280/195 363/276/240 385/261/247
f 398/282/195 351/239/195 348/237/195
f 369/275/235 407/284/195 408/299/195
f 359/285/195 405/286/195 321/303/195
f 397/287/195 409/288/195 356/301/195
f 402/277/195 383/289/242 384/266/241
f 370/272/230 409/288/195 367/267/229
f 377/276/243 361/266/244 378/266/221
f 378/266/221 375/292/245 379/274/233
f 380/261/217 355/276/238 377/276/243
f 374/269/227 380/261/217 381/294/248
f 379/274/233 371/293/246 383/289/242
f 384/266/241 382/268/224 363/276/240
f 363/276/240 365/261/223 385/261/247
f 385/261/247 368/270/226 387/297/252
f 371/293/246 384/266/241 383/289/242
f 368/270/226 381/294/248 387/297/252
f 392/261/236 374/269/227 394/269/225
f 361/266/244 386/276/236 390/266/236
f 396/270/249 365/261/223 391/261/195
f 395/293/250 375/292/245 393/292/251
f 393/292/251 361/266/244 390/266/236
f 389/266/195 371/293/246 395/293/250
f 352/242/195 397/287/195 349/265/195
f 362/273/231 401/279/195 399/278/195
f 362/273/231 400/283/195 364/263/234
f 360/295/195 406/290/195 402/277/195
f 404/280/195 387/297/252 405/286/195
f 359/285/195 403/281/195 404/280/195
f 360/295/195 403/281/195 324/298/195
f 407/284/195 398/282/195 353/300/195
f 408/299/195 353/300/195 319/304/195
f 356/301/195 410/291/195 318/260/195
o light.003
v 15.977811 7.414938 0.000002
v 15.996782 7.414938 0.000002
v 15.996783 7.350201 -14.057889
v 15.977812 7.350201 -14.057889
v 15.996781 7.350201 14.057893
v 15.977809 7.350201 14.057893
v 15.977812 7.350201 -15.973400
v 15.977809 7.350203 15.992269
v 15.996784 7.350201 -15.992262
v 15.996781 7.350203 15.996075
vn -0.0000 1.0000 -0.0000
vn -0.0000 1.0000 -0.0023
vn -0.0000 1.0000 0.0023
vt 0.939309 0.229822
vt 0.500000 0.231845
vt 0.999758 0.229822
vt 0.999877 0.229822
vt 0.060691 0.229822
vt 0.000831 0.229822
vt 0.000242 0.229822
vt 0.500000 0.231845
s 1
usemtl light
f 416/305/258 415/305/258 412/306/256
f 418/307/256 420/308/256 415/305/258
f 413/309/257 419/311/256 417/310/256
f 411/312/256 412/306/256 413/309/257
f 416/305/258 412/306/256 411/312/256
f 418/307/256 415/305/258 416/305/258
f 413/309/257 417/310/256 414/309/257
f 411/312/256 413/309/257 414/309/257
