# Blender 5.1.1
# www.blender.org
mtllib hanger.mtl
o Plane
v -21.000000 2.000000 9.800000
v -21.000000 2.000000 -20.200001
v -21.500000 0.000000 -22.200001
v 0.000000 1.000000 -20.200001
v -21.500000 0.000000 -21.200001
v 0.000000 1.000000 9.800000
v -20.000000 1.000000 -20.200001
v -20.000000 1.000000 9.800000
v -6.200000 1.000000 -11.480000
v -6.200000 1.000000 3.080000
v 0.000000 1.000000 -11.480000
v 0.000000 0.899338 -11.200000
v 0.000000 1.000000 3.080000
v 0.000000 1.000000 2.516295
v 0.000000 0.899338 2.800000
v 0.000000 1.000000 -10.916296
v -5.797354 1.000000 -10.916296
v -6.000000 0.899338 -11.200000
v -6.000000 0.899338 2.800000
v -5.797354 1.000000 2.516295
v 0.000000 2.000000 10.800000
v -20.000000 2.000000 10.800000
v -20.811499 2.000000 10.371915
v -20.934784 2.000000 10.029597
v -20.719044 2.000000 10.534781
v -20.441444 2.000000 10.741569
v -20.204258 2.000000 10.789228
v 0.000000 2.000000 -20.200001
v -21.000000 22.000000 9.800000
v -21.000000 22.000000 -20.200001
v 0.000000 0.000000 -21.200001
v 0.000000 22.000000 10.800000
v -20.000000 22.000000 10.800000
v -20.811499 22.000000 10.371915
v -20.934784 22.000000 10.029597
v -20.719044 22.000000 10.534781
v -20.441444 22.000000 10.741569
v -20.204258 22.000000 10.789228
v -21.000000 2.000000 -21.200001
v 0.000000 2.000000 -21.200001
v -21.000000 22.000000 -21.200001
v 0.000000 0.000000 -22.200001
v 0.000000 2.000000 -22.200001
v -21.000000 2.000000 -22.200001
v -21.000000 22.000000 -22.200001
v 0.000000 2.000000 -23.199999
v -21.000000 2.000000 -23.199999
v -21.000000 22.000000 -23.199999
v -16.752453 2.195202 10.388361
v -14.676117 2.195202 10.388361
v -11.038167 2.195202 10.388361
v -8.961832 2.195202 10.388361
v -5.323881 2.195202 10.388361
v -3.247547 2.195202 10.388361
v -17.142857 22.000000 10.800000
v -14.285713 22.000000 10.800000
v -11.428571 22.000000 10.800000
v -8.571428 22.000000 10.800000
v -5.714285 22.000000 10.800000
v -2.857143 22.000000 10.800000
v -17.142857 2.000000 10.800000
v -14.285713 2.000000 10.800000
v -11.428571 2.000000 10.800000
v -8.571428 2.000000 10.800000
v -5.714285 2.000000 10.800000
v -2.857143 2.000000 10.800000
v -14.676117 21.804798 10.388361
v -16.752453 21.804798 10.388361
v -8.961832 21.804798 10.388361
v -11.038167 21.804798 10.388361
v -20.309792 2.230623 -16.220922
v -5.323881 21.804798 10.388361
v -3.247547 21.804798 10.388361
v -20.309792 2.230623 -14.179076
v -20.309792 2.230623 -9.554255
v -20.309792 2.230623 -7.512410
v -20.309792 2.230623 -2.887589
v -20.309792 2.230623 -0.845743
v -20.309792 2.230623 3.779078
v -20.309792 2.230623 5.820923
v -21.000000 22.000000 -16.866667
v -21.000000 22.000000 -13.533332
v -21.000000 22.000000 -10.199999
v -21.000000 22.000000 -6.866666
v -21.000000 22.000000 -3.533333
v -21.000000 22.000000 -0.199999
v -21.000000 22.000000 3.133334
v -21.000000 22.000000 6.466667
v -21.000000 2.000000 -16.866667
v -21.000000 2.000000 -13.533332
v -21.000000 2.000000 -10.199999
v -21.000000 2.000000 -6.866666
v -21.000000 2.000000 -3.533333
v -21.000000 2.000000 -0.199999
v -21.000000 2.000000 3.133334
v -21.000000 2.000000 6.466667
v -20.309792 21.769377 -14.179076
v -20.309792 21.769377 -16.220922
v -20.309792 21.769377 -7.512410
v -20.309792 21.769377 -9.554255
v -20.309792 21.769377 -0.845743
v -20.309792 21.769377 -2.887589
v -20.309792 21.769377 3.779078
v -20.309792 21.769377 5.820923
v -20.000000 23.000000 9.800000
v -20.000000 23.000000 -20.200001
v 0.000000 23.000000 9.800000
v 0.000000 23.000000 -20.200001
v 0.000000 22.000000 -20.200001
v 0.000000 22.000000 -21.200001
v 0.000000 23.000000 -21.200001
v 0.000000 23.000000 -22.200001
v -21.500000 23.000000 -21.200001
v -21.500000 23.000000 -22.200001
v 0.000000 22.000000 -22.200001
v 0.000000 22.000000 -23.199999
v -19.004572 1.000000 2.942186
v -19.006733 1.000000 -0.041603
v -20.000000 1.000000 -0.201328
v -20.000000 1.000000 3.022709
v -19.000139 1.947111 -0.040345
v -19.000162 1.947668 2.996878
v -19.000217 4.894246 0.432776
v -19.000231 4.894246 2.523757
v -21.000000 4.700000 -0.199999
v -21.000000 4.700000 3.133334
v -19.000160 4.631584 -0.040345
v -19.000185 4.631584 2.996878
v -19.004482 1.000000 3.075622
v -19.006668 1.000000 -0.201328
v -19.000000 2.000000 3.133334
v -19.000000 2.000000 -0.199999
v -19.000000 5.000000 0.340376
v -19.000000 5.000000 2.592958
v -19.000000 4.700000 -0.199999
v -19.000000 4.700000 3.133334
v -19.104572 1.000140 2.942194
v -19.106733 1.000140 -0.041595
v -19.100163 1.947808 2.996886
v -19.100140 1.947250 -0.040337
v -19.100218 4.894386 0.432784
v -19.100231 4.894386 2.523765
v -19.100161 4.631723 -0.040337
v -19.100185 4.631723 2.996886
v -19.022001 5.000000 1.466667
v -19.022226 4.894246 1.478266
v -21.499701 0.005849 -22.200001
v -19.112280 1.000140 1.439493
v -19.112265 1.000140 1.461106
v -19.114273 1.000140 1.450300
v -19.107645 4.894382 1.489081
v -19.107645 4.894382 1.467468
v -19.098917 4.894366 1.478273
v -19.109646 4.894382 1.478274
v -19.108263 3.923820 1.482109
v -19.108236 3.917828 1.460452
v -19.110250 3.920824 1.471281
v -19.110958 1.976698 1.468122
v -19.110966 1.970705 1.446465
v -19.112963 1.973701 1.457293
v -19.109669 2.901713 1.423153
v -19.109676 2.895456 1.444722
v -19.111673 2.898585 1.433937
v -19.110897 2.019383 1.416815
v -19.110889 2.025376 1.438472
v -19.112894 2.022379 1.427643
v -19.108315 3.875143 1.511760
v -19.108322 3.869150 1.490103
v -19.110319 3.872146 1.500931
v -19.109535 2.999069 1.483852
v -19.109543 2.992812 1.505421
v -19.111540 2.995941 1.494637
v 21.000000 2.000000 9.800000
v 21.000000 2.000000 -20.200001
v 21.500000 0.000000 -22.200001
v 21.500000 0.000000 -21.200001
v 20.000000 1.000000 -20.200001
v 20.000000 1.000000 9.800000
v 6.200000 1.000000 -11.480000
v 6.200000 1.000000 3.080000
v 5.797354 1.000000 -10.916296
v 6.000000 0.899338 -11.200000
v 6.000000 0.899338 2.800000
v 5.797354 1.000000 2.516295
v 20.000000 2.000000 10.800000
v 20.811499 2.000000 10.371915
v 20.934784 2.000000 10.029597
v 20.719044 2.000000 10.534781
v 20.441444 2.000000 10.741569
v 20.204258 2.000000 10.789228
v 21.000000 22.000000 9.800000
v 21.000000 22.000000 -20.200001
v 20.000000 22.000000 10.800000
v 20.811499 22.000000 10.371915
v 20.934784 22.000000 10.029597
v 20.719044 22.000000 10.534781
v 20.441444 22.000000 10.741569
v 20.204258 22.000000 10.789228
v 21.000000 2.000000 -21.200001
v 21.000000 22.000000 -21.200001
v 21.000000 2.000000 -22.200001
v 21.000000 22.000000 -22.200001
v 21.000000 2.000000 -23.199999
v 21.000000 22.000000 -23.199999
v 16.752453 2.195202 10.388361
v 14.676117 2.195202 10.388361
v 11.038167 2.195202 10.388361
v 8.961832 2.195202 10.388361
v 5.323881 2.195202 10.388361
v 3.247547 2.195202 10.388361
v 17.142857 22.000000 10.800000
v 14.285713 22.000000 10.800000
v 11.428571 22.000000 10.800000
v 8.571428 22.000000 10.800000
v 5.714285 22.000000 10.800000
v 2.857143 22.000000 10.800000
v 17.142857 2.000000 10.800000
v 14.285713 2.000000 10.800000
v 11.428571 2.000000 10.800000
v 8.571428 2.000000 10.800000
v 5.714285 2.000000 10.800000
v 2.857143 2.000000 10.800000
v 14.676117 21.804798 10.388361
v 16.752453 21.804798 10.388361
v 8.961832 21.804798 10.388361
v 11.038167 21.804798 10.388361
v 20.309792 2.230623 -16.220922
v 5.323881 21.804798 10.388361
v 3.247547 21.804798 10.388361
v 20.309792 2.230623 -14.179076
v 20.309792 2.230623 -9.554255
v 20.309792 2.230623 -7.512410
v 20.309792 2.230623 -2.887589
v 20.309792 2.230623 -0.845743
v 20.309792 2.230623 3.779078
v 20.309792 2.230623 5.820923
v 21.000000 22.000000 -16.866667
v 21.000000 22.000000 -13.533332
v 21.000000 22.000000 -10.199999
v 21.000000 22.000000 -6.866666
v 21.000000 22.000000 -3.533333
v 21.000000 22.000000 -0.199999
v 21.000000 22.000000 3.133334
v 21.000000 22.000000 6.466667
v 21.000000 2.000000 -16.866667
v 21.000000 2.000000 -13.533332
v 21.000000 2.000000 -10.199999
v 21.000000 2.000000 -6.866666
v 21.000000 2.000000 -3.533333
v 21.000000 2.000000 -0.199999
v 21.000000 2.000000 3.133334
v 21.000000 2.000000 6.466667
v 20.309792 21.769377 -14.179076
v 20.309792 21.769377 -16.220922
v 20.309792 21.769377 -7.512410
v 20.309792 21.769377 -9.554255
v 20.309792 21.769377 -0.845743
v 20.309792 21.769377 -2.887589
v 20.309792 21.769377 3.779078
v 20.309792 21.769377 5.820923
v 20.000000 23.000000 9.800000
v 20.000000 23.000000 -20.200001
v 21.500000 23.000000 -21.200001
v 21.500000 23.000000 -22.200001
v 19.004572 1.000000 2.942186
v 19.006733 1.000000 -0.041603
v 20.000000 1.000000 -0.201328
v 20.000000 1.000000 3.022709
v 19.000139 1.947111 -0.040345
v 19.000162 1.947668 2.996878
v 19.000217 4.894246 0.432776
v 19.000231 4.894246 2.523757
v 21.000000 4.700000 -0.199999
v 21.000000 4.700000 3.133334
v 19.000160 4.631584 -0.040345
v 19.000185 4.631584 2.996878
v 19.004482 1.000000 3.075622
v 19.006668 1.000000 -0.201328
v 19.000000 2.000000 3.133334
v 19.000000 2.000000 -0.199999
v 19.000000 5.000000 0.340376
v 19.000000 5.000000 2.592958
v 19.000000 4.700000 -0.199999
v 19.000000 4.700000 3.133334
v 19.104572 1.000140 2.942194
v 19.106733 1.000140 -0.041595
v 19.100163 1.947808 2.996886
v 19.100140 1.947250 -0.040337
v 19.100218 4.894386 0.432784
v 19.100231 4.894386 2.523765
v 19.100161 4.631723 -0.040337
v 19.100185 4.631723 2.996886
v 19.022001 5.000000 1.466667
v 19.022226 4.894246 1.478266
v 21.499701 0.005849 -22.200001
v 19.112280 1.000140 1.439493
v 19.112265 1.000140 1.461106
v 19.114273 1.000140 1.450300
v 19.107645 4.894382 1.489081
v 19.107645 4.894382 1.467468
v 19.098917 4.894366 1.478273
v 19.109646 4.894382 1.478274
v 19.108263 3.923820 1.482109
v 19.108236 3.917828 1.460452
v 19.110250 3.920824 1.471281
v 19.110958 1.976698 1.468122
v 19.110966 1.970705 1.446465
v 19.112963 1.973701 1.457293
v 19.109669 2.901713 1.423153
v 19.109676 2.895456 1.444722
v 19.111673 2.898585 1.433937
v 19.110897 2.019383 1.416815
v 19.110889 2.025376 1.438472
v 19.112894 2.022379 1.427643
v 19.108315 3.875143 1.511760
v 19.108322 3.869150 1.490103
v 19.110319 3.872146 1.500931
v 19.109535 2.999069 1.483852
v 19.109543 2.992812 1.505421
v 19.111540 2.995941 1.494637
v 21.000000 2.000000 9.800000
v 21.000000 2.000000 -20.200001
v 21.500000 0.000000 -22.200001
v 21.500000 0.000000 -21.200001
v 20.000000 1.000000 -20.200001
v 20.000000 1.000000 9.800000
v 6.200000 1.000000 -11.480000
v 6.200000 1.000000 3.080000
v 5.797354 1.000000 -10.916296
v 6.000000 0.899338 -11.200000
v 6.000000 0.899338 2.800000
v 5.797354 1.000000 2.516295
v 20.000000 2.000000 10.800000
v 20.811499 2.000000 10.371915
v 20.934784 2.000000 10.029597
v 20.719044 2.000000 10.534781
v 20.441444 2.000000 10.741569
v 20.204258 2.000000 10.789228
v 21.000000 22.000000 9.800000
v 21.000000 22.000000 -20.200001
v 20.000000 22.000000 10.800000
v 20.811499 22.000000 10.371915
v 20.934784 22.000000 10.029597
v 20.719044 22.000000 10.534781
v 20.441444 22.000000 10.741569
v 20.204258 22.000000 10.789228
v 21.000000 2.000000 -21.200001
v 21.000000 22.000000 -21.200001
v 21.000000 2.000000 -22.200001
v 21.000000 22.000000 -22.200001
v 21.000000 2.000000 -23.199999
v 21.000000 22.000000 -23.199999
v 16.752453 2.195202 10.388361
v 14.676117 2.195202 10.388361
v 11.038167 2.195202 10.388361
v 8.961832 2.195202 10.388361
v 5.323881 2.195202 10.388361
v 3.247547 2.195202 10.388361
v 17.142857 22.000000 10.800000
v 14.285713 22.000000 10.800000
v 11.428571 22.000000 10.800000
v 8.571428 22.000000 10.800000
v 5.714285 22.000000 10.800000
v 2.857143 22.000000 10.800000
v 17.142857 2.000000 10.800000
v 14.285713 2.000000 10.800000
v 11.428571 2.000000 10.800000
v 8.571428 2.000000 10.800000
v 5.714285 2.000000 10.800000
v 2.857143 2.000000 10.800000
v 14.676117 21.804798 10.388361
v 16.752453 21.804798 10.388361
v 8.961832 21.804798 10.388361
v 11.038167 21.804798 10.388361
v 20.309792 2.230623 -16.220922
v 5.323881 21.804798 10.388361
v 3.247547 21.804798 10.388361
v 20.309792 2.230623 -14.179076
v 20.309792 2.230623 -9.554255
v 20.309792 2.230623 -7.512410
v 20.309792 2.230623 -2.887589
v 20.309792 2.230623 -0.845743
v 20.309792 2.230623 3.779078
v 20.309792 2.230623 5.820923
v 21.000000 22.000000 -16.866667
v 21.000000 22.000000 -13.533332
v 21.000000 22.000000 -10.199999
v 21.000000 22.000000 -6.866666
v 21.000000 22.000000 -3.533333
v 21.000000 22.000000 -0.199999
v 21.000000 22.000000 3.133334
v 21.000000 22.000000 6.466667
v 21.000000 2.000000 -16.866667
v 21.000000 2.000000 -13.533332
v 21.000000 2.000000 -10.199999
v 21.000000 2.000000 -6.866666
v 21.000000 2.000000 -3.533333
v 21.000000 2.000000 -0.199999
v 21.000000 2.000000 3.133334
v 21.000000 2.000000 6.466667
v 20.309792 21.769377 -14.179076
v 20.309792 21.769377 -16.220922
v 20.309792 21.769377 -7.512410
v 20.309792 21.769377 -9.554255
v 20.309792 21.769377 -0.845743
v 20.309792 21.769377 -2.887589
v 20.309792 21.769377 3.779078
v 20.309792 21.769377 5.820923
v 20.000000 23.000000 9.800000
v 20.000000 23.000000 -20.200001
v 21.500000 23.000000 -21.200001
v 21.500000 23.000000 -22.200001
v 19.004572 1.000000 2.942186
v 19.006733 1.000000 -0.041603
v 20.000000 1.000000 -0.201328
v 20.000000 1.000000 3.022709
v 19.000139 1.947111 -0.040345
v 19.000162 1.947668 2.996878
v 19.000217 4.894246 0.432776
v 19.000231 4.894246 2.523757
v 21.000000 4.700000 -0.199999
v 21.000000 4.700000 3.133334
v 19.000160 4.631584 -0.040345
v 19.000185 4.631584 2.996878
v 19.004482 1.000000 3.075622
v 19.006668 1.000000 -0.201328
v 19.000000 2.000000 3.133334
v 19.000000 2.000000 -0.199999
v 19.000000 5.000000 0.340376
v 19.000000 5.000000 2.592958
v 19.000000 4.700000 -0.199999
v 19.000000 4.700000 3.133334
v 19.104572 1.000140 2.942194
v 19.106733 1.000140 -0.041595
v 19.100163 1.947808 2.996886
v 19.100140 1.947250 -0.040337
v 19.100218 4.894386 0.432784
v 19.100231 4.894386 2.523765
v 19.100161 4.631723 -0.040337
v 19.100185 4.631723 2.996886
v 19.022001 5.000000 1.466667
v 19.022226 4.894246 1.478266
v 21.499701 0.005849 -22.200001
v 19.112280 1.000140 1.439493
v 19.112265 1.000140 1.461106
v 19.114273 1.000140 1.450300
v 19.107645 4.894382 1.489081
v 19.107645 4.894382 1.467468
v 19.098917 4.894366 1.478273
v 19.109646 4.894382 1.478274
v 19.108263 3.923820 1.482109
v 19.108236 3.917828 1.460452
v 19.110250 3.920824 1.471281
v 19.110958 1.976698 1.468122
v 19.110966 1.970705 1.446465
v 19.112963 1.973701 1.457293
v 19.109669 2.901713 1.423153
v 19.109676 2.895456 1.444722
v 19.111673 2.898585 1.433937
v 19.110897 2.019383 1.416815
v 19.110889 2.025376 1.438472
v 19.112894 2.022379 1.427643
v 19.108315 3.875143 1.511760
v 19.108322 3.869150 1.490103
v 19.110319 3.872146 1.500931
v 19.109535 2.999069 1.483852
v 19.109543 2.992812 1.505421
v 19.111540 2.995941 1.494637
v -21.000000 2.000000 9.800000
v -21.000000 2.000000 -20.200001
v -21.500000 0.000000 -22.200001
v -21.500000 0.000000 -21.200001
v -20.000000 1.000000 -20.200001
v -20.000000 1.000000 9.800000
v -6.200000 1.000000 -11.480000
v -6.200000 1.000000 3.080000
v -5.797354 1.000000 -10.916296
v -6.000000 0.899338 -11.200000
v -6.000000 0.899338 2.800000
v -5.797354 1.000000 2.516295
v -20.000000 2.000000 10.800000
v -20.811499 2.000000 10.371915
v -20.934784 2.000000 10.029597
v -20.719044 2.000000 10.534781
v -20.441444 2.000000 10.741569
v -20.204258 2.000000 10.789228
v -21.000000 22.000000 9.800000
v -21.000000 22.000000 -20.200001
v -20.000000 22.000000 10.800000
v -20.811499 22.000000 10.371915
v -20.934784 22.000000 10.029597
v -20.719044 22.000000 10.534781
v -20.441444 22.000000 10.741569
v -20.204258 22.000000 10.789228
v -21.000000 2.000000 -21.200001
v -21.000000 22.000000 -21.200001
v -21.000000 2.000000 -22.200001
v -21.000000 22.000000 -22.200001
v -21.000000 2.000000 -23.199999
v -21.000000 22.000000 -23.199999
v -16.752453 2.195202 10.388361
v -14.676117 2.195202 10.388361
v -11.038167 2.195202 10.388361
v -8.961832 2.195202 10.388361
v -5.323881 2.195202 10.388361
v -3.247547 2.195202 10.388361
v -17.142857 22.000000 10.800000
v -14.285713 22.000000 10.800000
v -11.428571 22.000000 10.800000
v -8.571428 22.000000 10.800000
v -5.714285 22.000000 10.800000
v -2.857143 22.000000 10.800000
v -17.142857 2.000000 10.800000
v -14.285713 2.000000 10.800000
v -11.428571 2.000000 10.800000
v -8.571428 2.000000 10.800000
v -5.714285 2.000000 10.800000
v -2.857143 2.000000 10.800000
v -14.676117 21.804798 10.388361
v -16.752453 21.804798 10.388361
v -8.961832 21.804798 10.388361
v -11.038167 21.804798 10.388361
v -20.309792 2.230623 -16.220922
v -5.323881 21.804798 10.388361
v -3.247547 21.804798 10.388361
v -20.309792 2.230623 -14.179076
v -20.309792 2.230623 -9.554255
v -20.309792 2.230623 -7.512410
v -20.309792 2.230623 -2.887589
v -20.309792 2.230623 -0.845743
v -20.309792 2.230623 3.779078
v -20.309792 2.230623 5.820923
v -21.000000 22.000000 -16.866667
v -21.000000 22.000000 -13.533332
v -21.000000 22.000000 -10.199999
v -21.000000 22.000000 -6.866666
v -21.000000 22.000000 -3.533333
v -21.000000 22.000000 -0.199999
v -21.000000 22.000000 3.133334
v -21.000000 22.000000 6.466667
v -21.000000 2.000000 -16.866667
v -21.000000 2.000000 -13.533332
v -21.000000 2.000000 -10.199999
v -21.000000 2.000000 -6.866666
v -21.000000 2.000000 -3.533333
v -21.000000 2.000000 -0.199999
v -21.000000 2.000000 3.133334
v -21.000000 2.000000 6.466667
v -20.309792 21.769377 -14.179076
v -20.309792 21.769377 -16.220922
v -20.309792 21.769377 -7.512410
v -20.309792 21.769377 -9.554255
v -20.309792 21.769377 -0.845743
v -20.309792 21.769377 -2.887589
v -20.309792 21.769377 3.779078
v -20.309792 21.769377 5.820923
v -20.000000 23.000000 9.800000
v -20.000000 23.000000 -20.200001
v -21.500000 23.000000 -21.200001
v -21.500000 23.000000 -22.200001
v -19.004572 1.000000 2.942186
v -19.006733 1.000000 -0.041603
v -20.000000 1.000000 -0.201328
v -20.000000 1.000000 3.022709
v -19.000139 1.947111 -0.040345
v -19.000162 1.947668 2.996878
v -19.000217 4.894246 0.432776
v -19.000231 4.894246 2.523757
v -21.000000 4.700000 -0.199999
v -21.000000 4.700000 3.133334
v -19.000160 4.631584 -0.040345
v -19.000185 4.631584 2.996878
v -19.004482 1.000000 3.075622
v -19.006668 1.000000 -0.201328
v -19.000000 2.000000 3.133334
v -19.000000 2.000000 -0.199999
v -19.000000 5.000000 0.340376
v -19.000000 5.000000 2.592958
v -19.000000 4.700000 -0.199999
v -19.000000 4.700000 3.133334
v -19.104572 1.000140 2.942194
v -19.106733 1.000140 -0.041595
v -19.100163 1.947808 2.996886
v -19.100140 1.947250 -0.040337
v -19.100218 4.894386 0.432784
v -19.100231 4.894386 2.523765
v -19.100161 4.631723 -0.040337
v -19.100185 4.631723 2.996886
v -19.022001 5.000000 1.466667
v -19.022226 4.894246 1.478266
v -21.499701 0.005849 -22.200001
v -19.112280 1.000140 1.439493
v -19.112265 1.000140 1.461106
v -19.114273 1.000140 1.450300
v -19.107645 4.894382 1.489081
v -19.107645 4.894382 1.467468
v -19.098917 4.894366 1.478273
v -19.109646 4.894382 1.478274
v -19.108263 3.923820 1.482109
v -19.108236 3.917828 1.460452
v -19.110250 3.920824 1.471281
v -19.110958 1.976698 1.468122
v -19.110966 1.970705 1.446465
v -19.112963 1.973701 1.457293
v -19.109669 2.901713 1.423153
v -19.109676 2.895456 1.444722
v -19.111673 2.898585 1.433937
v -19.110897 2.019383 1.416815
v -19.110889 2.025376 1.438472
v -19.112894 2.022379 1.427643
v -19.108315 3.875143 1.511760
v -19.108322 3.869150 1.490103
v -19.110319 3.872146 1.500931
v -19.109535 2.999069 1.483852
v -19.109543 2.992812 1.505421
v -19.111540 2.995941 1.494637
vn -0.0000 1.0000 -0.0000
vn -0.0000 0.0013 -1.0000
vn -0.0000 -0.0000 -1.0000
vn 0.4496 0.8932 -0.0000
vn -0.0000 0.9410 0.3383
vn -0.0000 0.9410 -0.3383
vn -0.4449 0.8956 -0.0000
vn -0.0000 0.9424 -0.3344
vn -0.0000 0.9424 0.3344
vn 0.6933 0.6933 -0.1969
vn 0.6796 0.6915 -0.2448
vn 0.6186 0.7028 -0.3512
vn 0.4185 0.7137 -0.5618
vn 0.1386 0.7106 -0.6898
vn 0.0373 0.7066 -0.7066
vn -0.0000 -0.0000 1.0000
vn -0.0000 0.7071 -0.7071
vn 0.9619 -0.0000 -0.2732
vn 0.0527 -0.0000 -0.9986
vn 0.5974 -0.0000 -0.8020
vn 0.8696 -0.0000 -0.4937
vn 0.1970 -0.0000 -0.9804
vn 0.9408 -0.0000 -0.3388
vn 0.7071 0.7071 -0.0000
vn 1.0000 -0.0000 -0.0000
vn -0.0000 -0.9036 -0.4285
vn -0.0000 0.9036 -0.4285
vn 0.7256 -0.0000 -0.6881
vn -0.7256 -0.0000 -0.6881
vn 0.3169 -0.9485 -0.0000
vn 0.3169 0.9485 -0.0000
vn 0.6832 -0.0000 0.7302
vn 0.6832 -0.0000 -0.7302
vn 0.7071 -0.7071 -0.0000
vn 0.6933 -0.6933 -0.1969
vn 0.6796 -0.6915 -0.2448
vn 0.6186 -0.7028 -0.3512
vn 0.4185 -0.7137 -0.5618
vn 0.1386 -0.7106 -0.6898
vn 0.0373 -0.7066 -0.7066
vn -0.0000 -1.0000 -0.0000
vn 0.6250 -0.7178 -0.3069
vn -0.0000 -0.9203 -0.3913
vn -0.0000 -0.7071 -0.7071
vn 0.6252 -0.7182 -0.3055
vn -0.0000 -0.9197 -0.3927
vn 0.0013 1.0000 -0.0000
vn -0.0000 0.8743 -0.4854
vn -0.0000 0.8743 0.4854
vn 1.0000 -0.0046 -0.0001
vn 1.0000 -0.0068 -0.0005
vn 0.9998 0.0079 0.0203
vn 1.0000 -0.0012 0.0007
vn 1.0000 -0.0000 -0.0013
vn 1.0000 -0.0000 0.0009
vn 1.0000 -0.0014 -0.0008
vn -0.0000 0.0576 -0.9983
vn 0.0001 -0.0000 1.0000
vn -0.0012 -0.8743 0.4854
vn 0.0001 -0.0013 1.0000
vn -0.0013 -0.8743 -0.4854
vn -0.0001 -0.0000 -1.0000
vn -0.0176 -0.0925 0.9956
vn 0.9998 0.0034 -0.0203
vn -0.1490 0.9888 -0.0000
vn -0.0016 -1.0000 0.0003
vn -0.0016 -1.0000 -0.0003
vn 0.9833 -0.0027 0.1821
vn 0.9833 -0.0001 -0.1822
vn 0.9832 -0.0976 0.1545
vn 0.9834 0.0950 -0.1546
vn 0.9833 0.0936 0.1561
vn 0.9833 -0.0955 -0.1549
vn 0.9832 -0.0000 -0.1824
vn 0.9833 -0.0026 0.1818
vn 0.9834 0.0007 -0.1812
vn 0.9832 -0.0019 0.1828
vn 0.9833 -0.0001 -0.1821
vn 0.9833 -0.0027 0.1820
vn 0.9832 -0.0961 -0.1555
vn 0.9834 0.0933 0.1556
vn 1.0000 -0.0014 -0.0060
vn 1.0000 -0.0018 0.0059
vn -0.0015 -1.0000 -0.0000
vn -0.4496 0.8932 -0.0000
vn 0.4449 0.8956 -0.0000
vn -0.6933 0.6933 -0.1969
vn -0.6796 0.6915 -0.2448
vn -0.6186 0.7028 -0.3512
vn -0.4185 0.7137 -0.5618
vn -0.1386 0.7106 -0.6898
vn -0.0373 0.7066 -0.7066
vn -0.9619 -0.0000 -0.2732
vn -0.0527 -0.0000 -0.9986
vn -0.5974 -0.0000 -0.8020
vn -0.8696 -0.0000 -0.4937
vn -0.1970 -0.0000 -0.9804
vn -0.9408 -0.0000 -0.3388
vn -0.7071 0.7071 -0.0000
vn -1.0000 -0.0000 -0.0000
vn -0.3169 -0.9485 -0.0000
vn -0.3169 0.9485 -0.0000
vn -0.6832 -0.0000 0.7302
vn -0.6832 -0.0000 -0.7302
vn -0.7071 -0.7071 -0.0000
vn -0.6933 -0.6933 -0.1969
vn -0.6796 -0.6915 -0.2448
vn -0.6186 -0.7028 -0.3512
vn -0.4185 -0.7137 -0.5618
vn -0.1386 -0.7106 -0.6898
vn -0.0373 -0.7066 -0.7066
vn -0.6250 -0.7178 -0.3069
vn -0.0000 -0.9203 -0.3912
vn -0.0000 -0.9196 -0.3927
vn -0.6252 -0.7182 -0.3055
vn -0.0013 1.0000 -0.0000
vn -1.0000 -0.0046 -0.0001
vn -1.0000 -0.0068 -0.0005
vn -0.9998 0.0079 0.0203
vn -1.0000 -0.0012 0.0007
vn -1.0000 -0.0000 -0.0013
vn -1.0000 -0.0000 0.0009
vn -1.0000 -0.0014 -0.0008
vn -0.0001 -0.0000 1.0000
vn 0.0012 -0.8743 0.4854
vn -0.0001 -0.0013 1.0000
vn 0.0013 -0.8743 -0.4854
vn 0.0001 -0.0000 -1.0000
vn 0.0176 -0.0925 0.9956
vn -0.9998 0.0034 -0.0203
vn 0.1490 0.9888 -0.0000
vn 0.0016 -1.0000 0.0003
vn 0.0016 -1.0000 -0.0003
vn -0.9833 -0.0027 0.1821
vn -0.9833 -0.0001 -0.1821
vn -0.9832 -0.0976 0.1545
vn -0.9834 0.0950 -0.1546
vn -0.9833 0.0936 0.1562
vn -0.9833 -0.0955 -0.1549
vn -0.9832 -0.0000 -0.1824
vn -0.9833 -0.0026 0.1818
vn -0.9834 0.0007 -0.1813
vn -0.9832 -0.0019 0.1827
vn -0.9833 -0.0027 0.1819
vn -0.9832 -0.0961 -0.1554
vn -0.9834 0.0933 0.1556
vn -1.0000 -0.0014 -0.0060
vn -1.0000 -0.0018 0.0059
vn 0.0015 -1.0000 -0.0000
vn 0.6253 -0.7182 -0.3055
vn -0.0000 -0.9196 -0.3928
vt 0.121124 0.259247
vt 0.125030 0.001045
vt 0.137330 0.001216
vt 0.133736 0.259523
vt 0.868819 0.488939
vt 0.885100 0.489274
vt 0.901053 0.506061
vt 0.868384 0.505332
vt 0.078214 0.261795
vt 0.094048 0.253053
vt 0.077116 0.517610
vt 0.062955 0.517098
vt 0.762499 0.346709
vt 0.762537 0.109560
vt 0.765981 0.114286
vt 0.765946 0.341977
vt 0.863506 0.346825
vt 0.863524 0.342031
vt 0.863550 0.109427
vt 0.863564 0.114232
vt 0.769458 0.119058
vt 0.769426 0.337201
vt 0.863540 0.337176
vt 0.863574 0.119098
vt 0.529549 0.355933
vt 0.506672 0.362838
vt 0.506844 0.361049
vt 0.506494 0.357356
vt 0.506301 0.356607
vt 0.506228 0.353233
vt 0.506388 0.351555
vt 0.506356 0.350388
vt 0.065626 0.261650
vt 0.052553 0.250012
vt 0.038202 0.002887
vt 0.050559 0.002169
vt 0.062915 0.001452
vt 0.087667 -0.000000
vt 0.528801 -0.000000
vt 0.506595 0.303588
vt 0.506460 0.252897
vt 0.505755 0.203615
vt 0.505222 0.152388
vt 0.504533 0.102624
vt 0.504245 0.050854
vt 0.502928 0.000628
vt 0.180919 0.367815
vt 0.180660 0.366298
vt 0.180784 0.357792
vt 0.180830 0.356827
vt 0.180995 0.362343
vt 0.180959 0.359241
vt 0.180828 0.362891
vt 0.094074 0.518053
vt 0.108838 0.518016
vt 0.114469 0.998774
vt 0.091585 0.999279
vt 0.537689 0.478623
vt 0.511594 0.477965
vt 0.508880 0.418080
vt 0.045121 0.516306
vt 0.178409 0.311056
vt 0.495998 0.838532
vt 0.493045 0.895571
vt 0.160840 0.875542
vt 0.163896 0.819710
vt 0.104998 0.253228
vt 0.126756 0.518181
vt 0.164639 0.066183
vt 0.161912 0.017334
vt 0.498614 0.059478
vt 0.499226 0.094330
vt 0.172507 0.107813
vt 0.170604 0.073818
vt 0.170359 0.164539
vt 0.167734 0.115986
vt 0.499754 0.160875
vt 0.500436 0.195329
vt 0.177920 0.205902
vt 0.176244 0.172213
vt 0.175531 0.262149
vt 0.173184 0.214014
vt 0.500997 0.261259
vt 0.501399 0.295328
vt 0.183012 0.303054
vt 0.181419 0.269764
vt 0.180120 0.421495
vt 0.501711 0.432060
vt 0.502784 0.465209
vt 0.186513 0.466114
vt 0.187010 0.434426
vt 0.501192 0.559167
vt 0.499926 0.591985
vt 0.182318 0.579258
vt 0.183575 0.547361
vt 0.506920 0.605925
vt 0.504369 0.662964
vt 0.171730 0.648079
vt 0.174081 0.591751
vt 0.496015 0.675828
vt 0.494631 0.708271
vt 0.177412 0.693275
vt 0.178676 0.661369
vt 0.501566 0.721985
vt 0.498820 0.779165
vt 0.166643 0.761980
vt 0.169242 0.705765
vt 0.490476 0.792103
vt 0.489021 0.824675
vt 0.172107 0.807252
vt 0.173539 0.775336
vt 0.509972 0.546931
vt 0.176604 0.534316
vt 0.178341 0.478538
vt 0.463872 0.483472
vt 0.462822 0.539821
vt 0.137330 0.874801
vt 0.158989 0.362804
vt 0.022932 0.997887
vt 0.000000 0.996830
vt 0.021132 0.538182
vt 0.045865 0.998943
vt 0.068820 1.000000
vt 0.100437 0.000689
vt 0.137330 0.998270
vt 0.537689 0.977022
vt 0.537689 0.488806
vt 0.863166 0.488806
vt 0.863166 0.977022
vt 0.137330 0.018663
vt 0.537689 0.488672
vt 0.537771 0.162971
vt 0.553949 0.162975
vt 0.553948 0.160395
vt 0.552320 0.160395
vt 0.552227 0.136294
vt 0.552195 0.136129
vt 0.552224 0.135964
vt 0.552341 0.111862
vt 0.553969 0.111861
vt 0.553964 0.109709
vt 0.537751 0.110580
vt 0.537689 0.000202
vt 0.863448 0.000000
vt 0.863408 0.488806
vt 0.534746 0.548547
vt 0.517550 0.897218
vt 0.899969 0.550131
vt 0.867055 0.558962
vt 0.867526 0.549278
vt 0.867720 0.605448
vt 0.867165 0.595783
vt 0.899930 0.604502
vt 0.868819 0.648845
vt 0.901053 0.648021
vt 0.867112 0.665191
vt 0.866640 0.649821
vt 0.869265 0.664998
vt 0.865751 0.504400
vt 0.866198 0.488865
vt 0.865521 0.577575
vt 0.864964 0.559915
vt 0.867319 0.577365
vt 0.865050 0.549556
vt 0.865547 0.605349
vt 0.865198 0.595225
vt 0.865492 0.665247
vt 0.865002 0.649869
vt 0.863249 0.549548
vt 0.864090 0.504358
vt 0.863166 0.559942
vt 0.864556 0.488806
vt 0.863780 0.605390
vt 0.863424 0.595233
vt 0.885349 0.664657
vt 0.864069 0.577726
vt 0.864062 0.577562
vt 0.864221 0.577585
vt 0.864062 0.577610
vt 0.864067 0.577445
vt 0.972817 0.964287
vt 0.972720 0.978446
vt 0.972541 0.978496
vt 0.972639 0.964235
vt 0.965742 0.963353
vt 0.965640 0.977611
vt 0.965461 0.977660
vt 0.965564 0.963301
vt 0.973804 0.962702
vt 0.973626 0.962650
vt 0.966730 0.961768
vt 0.966552 0.961717
vt 0.973203 0.979238
vt 0.973024 0.979288
vt 0.966122 0.978403
vt 0.965943 0.978453
vt 0.966171 0.946765
vt 0.966285 0.930873
vt 0.966464 0.930873
vt 0.966350 0.946715
vt 0.973241 0.947600
vt 0.973349 0.931756
vt 0.973528 0.931756
vt 0.973420 0.947551
vt 0.965829 0.994247
vt 0.966008 0.994247
vt 0.972915 0.995131
vt 0.973094 0.995131
vt 0.966653 0.947557
vt 0.966832 0.947508
vt 0.973723 0.948392
vt 0.973902 0.948343
vt 0.942182 0.930872
vt 0.948991 0.994248
vt 0.941291 0.989973
vt 0.941291 0.946295
vt 0.997631 0.931747
vt 0.997616 0.947161
vt 0.997631 0.990848
vt 0.989933 0.995125
vt 0.108632 0.247649
s 0
f 44/1/1 43/2/1 46/3/1 47/4/1
f 130/5/2 119/6/2 94/7/2 132/8/2
f 39/9/3 5/10/3 113/11/3 41/12/3
f 9/13/4 10/14/4 19/15/4 18/16/4
f 11/17/5 9/13/5 18/16/5 12/18/5
f 10/14/6 13/19/6 15/20/6 19/15/6
f 18/16/7 19/15/7 20/21/7 17/22/7
f 12/18/8 18/16/8 17/22/8 16/23/8
f 19/15/9 15/20/9 14/24/9 20/21/9
f 14/24/1 16/23/1 17/22/1 20/21/1
f 8/25/10 1/26/10 24/27/10
f 23/28/11 8/25/11 24/27/11
f 25/29/12 8/25/12 23/28/12
f 26/30/13 8/25/13 25/29/13
f 27/31/14 8/25/14 26/30/14
f 22/32/15 8/25/15 27/31/15
f 2/33/16 7/34/16 4/35/16 28/36/16
f 39/9/3 40/37/3 31/38/3 5/10/3
f 6/39/17 8/25/17 22/32/17 61/40/17 62/41/17 63/42/17 64/43/17 65/44/17 66/45/17 21/46/17
f 24/27/18 1/26/18 29/47/18 35/48/18
f 22/32/19 27/31/19 38/49/19 33/50/19
f 26/30/20 25/29/20 36/51/20 37/52/20
f 25/29/21 23/28/21 34/53/21 36/51/21
f 114/54/16 45/55/16 115/56/16 112/57/16
f 27/31/22 26/30/22 37/52/22 38/49/22
f 23/28/23 24/27/23 35/48/23 34/53/23
f 8/25/24 120/58/24 95/59/24 96/60/24 1/26/24
f 30/61/25 2/33/25 39/9/25 41/12/25
f 61/40/3 22/32/3 33/50/3 55/62/3
f 89/63/25 2/64/25 30/65/25 81/66/25
f 113/11/25 5/10/25 3/67/25 114/54/25
f 45/55/25 44/1/25 47/4/25 48/68/25
f 28/36/1 40/37/1 39/9/1 2/33/1
f 21/46/3 66/45/3 60/69/3 32/70/3
f 54/71/3 53/72/3 72/73/3 73/74/3
f 65/44/3 64/43/3 58/75/3 59/76/3
f 52/77/3 51/78/3 70/79/3 69/80/3
f 63/42/3 62/41/3 56/81/3 57/82/3
f 50/83/3 49/84/3 68/85/3 67/86/3
f 49/84/26 50/83/26 62/41/26 61/40/26
f 51/78/26 52/77/26 64/43/26 63/42/26
f 53/72/26 54/71/26 66/45/26 65/44/26
f 67/86/27 68/85/27 55/62/27 56/81/27
f 69/80/27 70/79/27 57/82/27 58/75/27
f 73/74/27 72/73/27 59/76/27 60/69/27
f 54/71/28 73/74/28 60/69/28 66/45/28
f 72/73/29 53/72/29 65/44/29 59/76/29
f 52/77/28 69/80/28 58/75/28 64/43/28
f 70/79/29 51/78/29 63/42/29 57/82/29
f 50/83/28 67/86/28 56/81/28 62/41/28
f 68/85/29 49/84/29 61/40/29 55/62/29
f 1/26/25 96/60/25 88/87/25 29/47/25
f 80/88/25 79/89/25 103/90/25 104/91/25
f 78/92/25 77/93/25 102/94/25 101/95/25
f 93/96/25 92/97/25 84/98/25 85/99/25
f 76/100/25 75/101/25 100/102/25 99/103/25
f 91/104/25 90/105/25 82/106/25 83/107/25
f 74/108/25 71/109/25 98/110/25 97/111/25
f 71/109/30 74/108/30 90/105/30 89/63/30
f 75/101/30 76/100/30 92/97/30 91/104/30
f 77/93/30 78/92/30 94/112/30 93/96/30
f 79/89/30 80/88/30 96/60/30 95/59/30
f 97/111/31 98/110/31 81/66/31 82/106/31
f 99/103/31 100/102/31 83/107/31 84/98/31
f 101/95/31 102/94/31 85/99/31 86/113/31
f 104/91/31 103/90/31 87/114/31 88/87/31
f 80/88/32 104/91/32 88/87/32 96/60/32
f 87/114/25 126/115/25 125/116/25 86/113/25
f 102/94/33 77/93/33 93/96/33 85/99/33
f 76/100/32 99/103/32 84/98/32 92/97/32
f 100/102/33 75/101/33 91/104/33 83/107/33
f 74/108/32 97/111/32 82/106/32 90/105/32
f 98/110/33 71/109/33 89/63/33 81/66/33
f 86/113/34 85/99/34 84/98/34 83/107/34 82/106/34 81/66/34 30/65/34 106/117/34 105/118/34 29/47/34 88/87/34 87/114/34
f 29/47/35 105/118/35 35/48/35
f 34/53/36 35/48/36 105/118/36
f 36/51/37 34/53/37 105/118/37
f 37/52/38 36/51/38 105/118/38
f 38/49/39 37/52/39 105/118/39
f 33/50/40 38/49/40 105/118/40
f 109/119/16 108/120/16 106/121/16 30/61/16
f 30/61/41 41/12/41 110/122/41 109/119/41
f 110/122/3 41/12/3 113/11/3 111/123/3
f 5/10/1 31/38/1 42/124/1 3/67/1
f 113/11/41 114/54/41 112/57/41 111/123/41
f 115/56/41 45/55/41 48/68/41 116/125/41
f 105/126/42 106/127/41 108/128/41 107/129/43
f 58/75/44 57/82/44 56/81/44 55/62/44 33/50/44 105/118/45 107/130/46 32/70/44 60/69/44 59/76/44
f 7/131/1 119/132/1 130/133/47 118/134/47 138/135/47 148/136/47 150/137/47 149/138/47 137/139/47 117/140/47 129/141/1 120/142/1 8/143/1 6/144/1 13/19/1 10/14/1 9/13/1 11/17/1 4/145/1
f 94/112/24 119/146/24 7/147/24 2/64/24 89/63/24 90/105/24 91/104/24 92/97/24 93/96/24
f 125/148/48 133/149/48 135/150/48
f 136/151/49 134/152/49 126/153/49
f 131/154/16 136/151/16 126/153/16 95/155/16
f 94/7/3 125/148/3 135/150/3 132/8/3
f 117/156/50 122/157/50 131/154/50 129/158/50
f 121/159/51 118/160/51 130/5/51 132/8/51
f 146/161/52 123/162/52 133/149/52 145/163/52
f 123/162/53 127/164/53 135/150/53 133/149/53
f 122/157/54 128/165/54 136/151/54 131/154/54
f 127/164/55 121/159/55 132/8/55 135/150/55
f 128/165/56 124/166/56 134/152/56 136/151/56
f 122/157/57 117/156/57 137/167/57 139/168/57
f 121/159/58 127/164/58 143/169/58 140/170/58
f 127/164/59 123/162/59 141/171/59 143/169/59
f 118/160/60 121/159/60 140/170/60 138/172/60
f 124/166/61 128/165/61 144/173/61 142/174/61
f 128/165/62 122/157/62 139/168/62 144/173/62
f 95/155/63 120/175/63 129/158/63 131/154/63
f 124/166/64 146/161/64 145/163/64 134/152/64
f 145/163/65 133/149/65 125/148/65 126/153/65 134/152/65
f 151/176/66 154/177/66 153/178/66
f 154/179/67 152/180/67 153/178/67
f 170/181/68 168/182/68 169/183/68 172/184/68
f 172/185/69 169/186/69 167/187/69 171/188/69
f 161/189/70 170/181/70 172/184/70 163/190/70
f 163/191/71 172/185/71 171/188/71 162/192/71
f 168/182/72 156/193/72 157/194/72 169/183/72
f 169/186/73 157/195/73 155/196/73 167/187/73
f 158/197/74 149/198/74 150/199/74 160/200/74
f 160/201/75 150/202/75 148/203/75 159/204/75
f 151/205/76 155/196/76 157/195/76 154/206/76
f 154/207/77 157/194/77 156/193/77 152/208/77
f 162/192/78 165/209/78 166/210/78 163/191/78
f 163/190/79 166/211/79 164/212/79 161/189/79
f 165/209/80 158/197/80 160/200/80 166/210/80
f 166/211/81 160/201/81 159/204/81 164/212/81
f 137/213/82 149/198/82 158/197/82 165/209/82 162/192/82 171/188/82 167/187/82 155/196/82 151/205/82 142/214/82 144/215/82 139/216/82
f 148/203/83 138/217/83 140/218/83 143/219/83 141/220/83 152/208/83 156/193/83 168/182/83 170/181/83 161/189/83 164/212/83 159/204/83
f 146/161/84 124/166/84 142/174/84 151/176/84 153/178/84
f 123/162/84 146/161/84 153/178/84 152/180/84 141/171/84
f 95/59/33 126/115/33 87/114/33 103/90/33 79/89/33
f 125/116/32 94/112/32 78/92/32 101/95/32 86/113/32
f 44/1/16 45/55/16 114/54/16 3/67/16 147/221/16
f 3/67/16 42/124/16 43/2/16 44/1/16 147/221/16
f 201/1/1 203/4/1 46/3/1 43/2/1
f 278/5/2 280/8/2 250/7/2 267/6/2
f 199/9/3 200/12/3 263/11/3 176/10/3
f 179/13/85 182/16/85 183/15/85 180/14/85
f 11/17/5 12/18/5 182/16/5 179/13/5
f 180/14/6 183/15/6 15/20/6 13/19/6
f 182/16/86 181/22/86 184/21/86 183/15/86
f 12/18/8 16/23/8 181/22/8 182/16/8
f 183/15/9 184/21/9 14/24/9 15/20/9
f 14/24/1 184/21/1 181/22/1 16/23/1
f 178/25/87 187/27/87 173/26/87
f 186/28/88 187/27/88 178/25/88
f 188/29/89 186/28/89 178/25/89
f 189/30/90 188/29/90 178/25/90
f 190/31/91 189/30/91 178/25/91
f 185/32/92 190/31/92 178/25/92
f 174/33/16 28/36/16 4/35/16 177/34/16
f 199/9/3 176/10/3 31/38/3 40/37/3
f 6/39/17 21/46/17 222/45/17 221/44/17 220/43/17 219/42/17 218/41/17 217/40/17 185/32/17 178/25/17
f 187/27/93 195/48/93 191/47/93 173/26/93
f 185/32/94 193/50/94 198/49/94 190/31/94
f 189/30/95 197/52/95 196/51/95 188/29/95
f 188/29/96 196/51/96 194/53/96 186/28/96
f 264/54/16 112/57/16 115/56/16 202/55/16
f 190/31/97 198/49/97 197/52/97 189/30/97
f 186/28/98 194/53/98 195/48/98 187/27/98
f 178/25/99 173/26/99 252/60/99 251/59/99 268/58/99
f 192/61/100 200/12/100 199/9/100 174/33/100
f 217/40/3 211/62/3 193/50/3 185/32/3
f 245/63/100 237/66/100 192/65/100 174/64/100
f 263/11/100 264/54/100 175/67/100 176/10/100
f 202/55/100 204/68/100 203/4/100 201/1/100
f 28/36/1 174/33/1 199/9/1 40/37/1
f 21/46/3 32/70/3 216/69/3 222/45/3
f 210/71/3 229/74/3 228/73/3 209/72/3
f 221/44/3 215/76/3 214/75/3 220/43/3
f 208/77/3 225/80/3 226/79/3 207/78/3
f 219/42/3 213/82/3 212/81/3 218/41/3
f 206/83/3 223/86/3 224/85/3 205/84/3
f 205/84/26 217/40/26 218/41/26 206/83/26
f 207/78/26 219/42/26 220/43/26 208/77/26
f 209/72/26 221/44/26 222/45/26 210/71/26
f 223/86/27 212/81/27 211/62/27 224/85/27
f 225/80/27 214/75/27 213/82/27 226/79/27
f 229/74/27 216/69/27 215/76/27 228/73/27
f 210/71/29 222/45/29 216/69/29 229/74/29
f 228/73/28 215/76/28 221/44/28 209/72/28
f 208/77/29 220/43/29 214/75/29 225/80/29
f 226/79/28 213/82/28 219/42/28 207/78/28
f 206/83/29 218/41/29 212/81/29 223/86/29
f 224/85/28 211/62/28 217/40/28 205/84/28
f 173/26/100 191/47/100 244/87/100 252/60/100
f 236/88/100 260/91/100 259/90/100 235/89/100
f 234/92/100 257/95/100 258/94/100 233/93/100
f 249/96/100 241/99/100 240/98/100 248/97/100
f 232/100/100 255/103/100 256/102/100 231/101/100
f 247/104/100 239/107/100 238/106/100 246/105/100
f 230/108/100 253/111/100 254/110/100 227/109/100
f 227/109/101 245/63/101 246/105/101 230/108/101
f 231/101/101 247/104/101 248/97/101 232/100/101
f 233/93/101 249/96/101 250/112/101 234/92/101
f 235/89/101 251/59/101 252/60/101 236/88/101
f 253/111/102 238/106/102 237/66/102 254/110/102
f 255/103/102 240/98/102 239/107/102 256/102/102
f 257/95/102 242/113/102 241/99/102 258/94/102
f 260/91/102 244/87/102 243/114/102 259/90/102
f 236/88/103 252/60/103 244/87/103 260/91/103
f 243/114/100 242/113/100 273/116/100 274/115/100
f 258/94/104 241/99/104 249/96/104 233/93/104
f 232/100/103 248/97/103 240/98/103 255/103/103
f 256/102/104 239/107/104 247/104/104 231/101/104
f 230/108/103 246/105/103 238/106/103 253/111/103
f 254/110/104 237/66/104 245/63/104 227/109/104
f 242/113/105 243/114/105 244/87/105 191/47/105 261/118/105 262/117/105 192/65/105 237/66/105 238/106/105 239/107/105 240/98/105 241/99/105
f 191/47/106 195/48/106 261/118/106
f 194/53/107 261/118/107 195/48/107
f 196/51/108 261/118/108 194/53/108
f 197/52/109 261/118/109 196/51/109
f 198/49/110 261/118/110 197/52/110
f 193/50/111 261/118/111 198/49/111
f 109/119/16 192/61/16 262/121/16 108/120/16
f 192/61/41 109/119/41 110/122/41 200/12/41
f 110/122/3 111/123/3 263/11/3 200/12/3
f 176/10/1 175/67/1 42/124/1 31/38/1
f 263/11/41 111/123/41 112/57/41 264/54/41
f 115/56/41 116/125/41 204/68/41 202/55/41
f 261/126/112 107/129/113 108/128/41 262/127/41
f 214/75/44 215/76/44 216/69/44 32/70/44 107/130/114 261/118/115 193/50/44 211/62/44 212/81/44 213/82/44
f 177/131/1 4/145/1 11/17/1 179/13/1 180/14/1 13/19/1 6/144/1 178/143/1 268/142/1 277/141/1 265/140/116 285/139/116 297/138/116 298/137/116 296/136/116 286/135/116 266/134/116 278/133/116 267/132/1
f 250/112/99 249/96/99 248/97/99 247/104/99 246/105/99 245/63/99 174/64/99 177/147/99 267/146/99
f 273/148/48 283/150/48 281/149/48
f 284/151/49 274/153/49 282/152/49
f 279/154/16 251/155/16 274/153/16 284/151/16
f 250/7/3 280/8/3 283/150/3 273/148/3
f 265/156/117 277/158/117 279/154/117 270/157/117
f 269/159/118 280/8/118 278/5/118 266/160/118
f 294/161/119 293/163/119 281/149/119 271/162/119
f 271/162/120 281/149/120 283/150/120 275/164/120
f 270/157/121 279/154/121 284/151/121 276/165/121
f 275/164/122 283/150/122 280/8/122 269/159/122
f 276/165/123 284/151/123 282/152/123 272/166/123
f 270/157/57 287/168/57 285/167/57 265/156/57
f 269/159/124 288/170/124 291/169/124 275/164/124
f 275/164/125 291/169/125 289/171/125 271/162/125
f 266/160/126 286/172/126 288/170/126 269/159/126
f 272/166/127 290/174/127 292/173/127 276/165/127
f 276/165/128 292/173/128 287/168/128 270/157/128
f 251/155/129 279/154/129 277/158/129 268/175/129
f 272/166/130 282/152/130 293/163/130 294/161/130
f 293/163/131 282/152/131 274/153/131 273/148/131 281/149/131
f 299/176/132 301/178/132 302/177/132
f 302/179/133 301/178/133 300/180/133
f 318/181/134 320/184/134 317/183/134 316/182/134
f 320/185/135 319/188/135 315/187/135 317/186/135
f 309/189/136 311/190/136 320/184/136 318/181/136
f 311/191/137 310/192/137 319/188/137 320/185/137
f 316/182/138 317/183/138 305/194/138 304/193/138
f 317/186/139 315/187/139 303/196/139 305/195/139
f 306/197/140 308/200/140 298/199/140 297/198/140
f 308/201/141 307/204/141 296/203/141 298/202/141
f 299/205/142 302/206/142 305/195/142 303/196/142
f 302/207/143 300/208/143 304/193/143 305/194/143
f 310/192/135 311/191/135 314/210/135 313/209/135
f 311/190/144 309/189/144 312/212/144 314/211/144
f 313/209/145 314/210/145 308/200/145 306/197/145
f 314/211/146 312/212/146 307/204/146 308/201/146
f 285/213/147 287/216/147 292/215/147 290/214/147 299/205/147 303/196/147 315/187/147 319/188/147 310/192/147 313/209/147 306/197/147 297/198/147
f 296/203/148 307/204/148 312/212/148 309/189/148 318/181/148 316/182/148 304/193/148 300/208/148 289/220/148 291/219/148 288/218/148 286/217/148
f 294/161/149 301/178/149 299/176/149 290/174/149 272/166/149
f 271/162/149 289/171/149 300/180/149 301/178/149 294/161/149
f 251/59/104 235/89/104 259/90/104 243/114/104 274/115/104
f 273/116/103 242/113/103 257/95/103 234/92/103 250/112/103
f 201/1/16 295/221/16 175/67/16 264/54/16 202/55/16
f 175/67/16 295/221/16 201/1/16 43/2/16 42/124/16
f 349/1/1 351/4/1 46/3/1 43/2/1
f 426/5/2 428/8/2 398/7/2 415/6/2
f 347/9/3 348/12/3 411/11/3 324/10/3
f 327/13/85 330/16/85 331/15/85 328/14/85
f 11/17/5 12/18/5 330/16/5 327/13/5
f 328/14/6 331/15/6 15/20/6 13/19/6
f 330/16/86 329/22/86 332/21/86 331/15/86
f 12/18/8 16/23/8 329/22/8 330/16/8
f 331/15/9 332/21/9 14/24/9 15/20/9
f 14/24/1 332/21/1 329/22/1 16/23/1
f 326/25/87 335/27/87 321/26/87
f 334/28/88 335/27/88 326/25/88
f 336/29/89 334/28/89 326/25/89
f 337/30/90 336/29/90 326/25/90
f 338/31/91 337/30/91 326/25/91
f 333/32/92 338/31/92 326/25/92
f 322/33/16 28/36/16 4/35/16 325/34/16
f 347/9/3 324/10/3 31/38/3 40/37/3
f 6/39/17 21/46/17 370/45/17 369/44/17 368/43/17 367/42/17 366/41/17 365/40/17 333/32/17 326/25/17
f 335/27/93 343/48/93 339/47/93 321/26/93
f 333/32/94 341/50/94 346/49/94 338/31/94
f 337/30/95 345/52/95 344/51/95 336/29/95
f 336/29/96 344/51/96 342/53/96 334/28/96
f 412/54/16 112/57/16 115/56/16 350/55/16
f 338/31/97 346/49/97 345/52/97 337/30/97
f 334/28/98 342/53/98 343/48/98 335/27/98
f 326/25/99 321/26/99 400/60/99 399/59/99 416/58/99
f 340/61/100 348/12/100 347/9/100 322/33/100
f 365/40/3 359/62/3 341/50/3 333/32/3
f 393/63/100 385/66/100 340/65/100 322/64/100
f 411/11/100 412/54/100 323/67/100 324/10/100
f 350/55/100 352/68/100 351/4/100 349/1/100
f 28/36/1 322/33/1 347/9/1 40/37/1
f 21/46/3 32/70/3 364/69/3 370/45/3
f 358/71/3 377/74/3 376/73/3 357/72/3
f 369/44/3 363/76/3 362/75/3 368/43/3
f 356/77/3 373/80/3 374/79/3 355/78/3
f 367/42/3 361/82/3 360/81/3 366/41/3
f 354/83/3 371/86/3 372/85/3 353/84/3
f 353/84/26 365/40/26 366/41/26 354/83/26
f 355/78/26 367/42/26 368/43/26 356/77/26
f 357/72/26 369/44/26 370/45/26 358/71/26
f 371/86/27 360/81/27 359/62/27 372/85/27
f 373/80/27 362/75/27 361/82/27 374/79/27
f 377/74/27 364/69/27 363/76/27 376/73/27
f 358/71/29 370/45/29 364/69/29 377/74/29
f 376/73/28 363/76/28 369/44/28 357/72/28
f 356/77/29 368/43/29 362/75/29 373/80/29
f 374/79/28 361/82/28 367/42/28 355/78/28
f 354/83/29 366/41/29 360/81/29 371/86/29
f 372/85/28 359/62/28 365/40/28 353/84/28
f 321/26/100 339/47/100 392/87/100 400/60/100
f 384/88/100 408/91/100 407/90/100 383/89/100
f 382/92/100 405/95/100 406/94/100 381/93/100
f 397/96/100 389/99/100 388/98/100 396/97/100
f 380/100/100 403/103/100 404/102/100 379/101/100
f 395/104/100 387/107/100 386/106/100 394/105/100
f 378/108/100 401/111/100 402/110/100 375/109/100
f 375/109/101 393/63/101 394/105/101 378/108/101
f 379/101/101 395/104/101 396/97/101 380/100/101
f 381/93/101 397/96/101 398/112/101 382/92/101
f 383/89/101 399/59/101 400/60/101 384/88/101
f 401/111/102 386/106/102 385/66/102 402/110/102
f 403/103/102 388/98/102 387/107/102 404/102/102
f 405/95/102 390/113/102 389/99/102 406/94/102
f 408/91/102 392/87/102 391/114/102 407/90/102
f 384/88/103 400/60/103 392/87/103 408/91/103
f 391/114/100 390/113/100 421/116/100 422/115/100
f 406/94/104 389/99/104 397/96/104 381/93/104
f 380/100/103 396/97/103 388/98/103 403/103/103
f 404/102/104 387/107/104 395/104/104 379/101/104
f 378/108/103 394/105/103 386/106/103 401/111/103
f 402/110/104 385/66/104 393/63/104 375/109/104
f 390/113/105 391/114/105 392/87/105 339/47/105 409/118/105 410/117/105 340/65/105 385/66/105 386/106/105 387/107/105 388/98/105 389/99/105
f 339/47/106 343/48/106 409/118/106
f 342/53/107 409/118/107 343/48/107
f 344/51/108 409/118/108 342/53/108
f 345/52/109 409/118/109 344/51/109
f 346/49/110 409/118/110 345/52/110
f 341/50/111 409/118/111 346/49/111
f 109/119/16 340/61/16 410/121/16 108/120/16
f 340/61/41 109/119/41 110/122/41 348/12/41
f 110/122/3 111/123/3 411/11/3 348/12/3
f 324/10/1 323/67/1 42/124/1 31/38/1
f 411/11/41 111/123/41 112/57/41 412/54/41
f 115/56/41 116/125/41 352/68/41 350/55/41
f 409/126/112 107/129/113 108/128/41 410/127/41
f 362/75/44 363/76/44 364/69/44 32/70/44 107/130/114 409/118/115 341/50/44 359/62/44 360/81/44 361/82/44
f 325/131/1 4/145/1 11/17/1 327/13/1 328/14/1 13/19/1 6/144/1 326/143/1 416/142/1 425/141/1 413/140/116 433/139/116 445/138/116 446/137/116 444/136/116 434/135/116 414/134/116 426/133/116 415/132/1
f 398/112/99 397/96/99 396/97/99 395/104/99 394/105/99 393/63/99 322/64/99 325/147/99 415/146/99
f 421/148/48 431/150/48 429/149/48
f 432/151/49 422/153/49 430/152/49
f 427/154/16 399/155/16 422/153/16 432/151/16
f 398/7/3 428/8/3 431/150/3 421/148/3
f 413/156/117 425/158/117 427/154/117 418/157/117
f 417/159/118 428/8/118 426/5/118 414/160/118
f 442/161/119 441/163/119 429/149/119 419/162/119
f 419/162/120 429/149/120 431/150/120 423/164/120
f 418/157/121 427/154/121 432/151/121 424/165/121
f 423/164/122 431/150/122 428/8/122 417/159/122
f 424/165/123 432/151/123 430/152/123 420/166/123
f 418/157/57 435/168/57 433/167/57 413/156/57
f 417/159/124 436/170/124 439/169/124 423/164/124
f 423/164/125 439/169/125 437/171/125 419/162/125
f 414/160/126 434/172/126 436/170/126 417/159/126
f 420/166/127 438/174/127 440/173/127 424/165/127
f 424/165/128 440/173/128 435/168/128 418/157/128
f 399/155/129 427/154/129 425/158/129 416/175/129
f 420/166/130 430/152/130 441/163/130 442/161/130
f 441/163/131 430/152/131 422/153/131 421/148/131 429/149/131
f 447/176/132 449/178/132 450/177/132
f 450/179/133 449/178/133 448/180/133
f 466/181/134 468/184/134 465/183/134 464/182/134
f 468/185/135 467/188/135 463/187/135 465/186/135
f 457/189/136 459/190/136 468/184/136 466/181/136
f 459/191/137 458/192/137 467/188/137 468/185/137
f 464/182/138 465/183/138 453/194/138 452/193/138
f 465/186/139 463/187/139 451/196/139 453/195/139
f 454/197/140 456/200/140 446/199/140 445/198/140
f 456/201/141 455/204/141 444/203/141 446/202/141
f 447/205/142 450/206/142 453/195/142 451/196/142
f 450/207/143 448/208/143 452/193/143 453/194/143
f 458/192/135 459/191/135 462/210/135 461/209/135
f 459/190/144 457/189/144 460/212/144 462/211/144
f 461/209/145 462/210/145 456/200/145 454/197/145
f 462/211/146 460/212/146 455/204/146 456/201/146
f 433/213/147 435/216/147 440/215/147 438/214/147 447/205/147 451/196/147 463/187/147 467/188/147 458/192/147 461/209/147 454/197/147 445/198/147
f 444/203/148 455/204/148 460/212/148 457/189/148 466/181/148 464/182/148 452/193/148 448/208/148 437/220/148 439/219/148 436/218/148 434/217/148
f 442/161/149 449/178/149 447/176/149 438/174/149 420/166/149
f 419/162/149 437/171/149 448/180/149 449/178/149 442/161/149
f 399/59/104 383/89/104 407/90/104 391/114/104 422/115/104
f 421/116/103 390/113/103 405/95/103 382/92/103 398/112/103
f 349/1/16 443/221/16 323/67/16 412/54/16 350/55/16
f 323/67/16 443/221/16 349/1/16 43/2/16 42/124/16
f 497/1/1 43/2/1 46/3/1 499/4/1
f 574/5/2 563/6/2 546/7/2 576/8/2
f 495/9/3 472/10/3 559/11/3 496/12/3
f 475/13/4 476/14/4 479/15/4 478/16/4
f 11/17/5 475/13/5 478/16/5 12/18/5
f 476/14/6 13/19/6 15/20/6 479/15/6
f 478/16/7 479/15/7 480/21/7 477/22/7
f 12/18/8 478/16/8 477/22/8 16/23/8
f 479/15/9 15/20/9 14/24/9 480/21/9
f 14/24/1 16/23/1 477/22/1 480/21/1
f 474/25/10 469/26/10 483/27/10
f 482/28/11 474/25/11 483/27/11
f 484/29/12 474/25/12 482/28/12
f 485/30/13 474/25/13 484/29/13
f 486/31/14 474/25/14 485/30/14
f 481/32/15 474/25/15 486/31/15
f 470/33/16 473/34/16 4/35/16 28/36/16
f 495/9/3 40/37/3 31/38/3 472/10/3
f 6/39/17 474/25/17 481/32/17 513/40/17 514/41/17 515/42/17 516/43/17 517/44/17 518/45/17 21/46/17
f 483/27/18 469/26/18 487/47/18 491/48/18
f 481/32/19 486/31/19 494/49/19 489/50/19
f 485/30/20 484/29/20 492/51/20 493/52/20
f 484/29/21 482/28/21 490/53/21 492/51/21
f 560/54/16 498/55/16 115/56/16 112/57/16
f 486/31/22 485/30/22 493/52/22 494/49/22
f 482/28/23 483/27/23 491/48/23 490/53/23
f 474/25/24 564/58/24 547/59/24 548/60/24 469/26/24
f 488/61/25 470/33/25 495/9/25 496/12/25
f 513/40/3 481/32/3 489/50/3 507/62/3
f 541/63/25 470/64/25 488/65/25 533/66/25
f 559/11/25 472/10/25 471/67/25 560/54/25
f 498/55/25 497/1/25 499/4/25 500/68/25
f 28/36/1 40/37/1 495/9/1 470/33/1
f 21/46/3 518/45/3 512/69/3 32/70/3
f 506/71/3 505/72/3 524/73/3 525/74/3
f 517/44/3 516/43/3 510/75/3 511/76/3
f 504/77/3 503/78/3 522/79/3 521/80/3
f 515/42/3 514/41/3 508/81/3 509/82/3
f 502/83/3 501/84/3 520/85/3 519/86/3
f 501/84/26 502/83/26 514/41/26 513/40/26
f 503/78/26 504/77/26 516/43/26 515/42/26
f 505/72/26 506/71/26 518/45/26 517/44/26
f 519/86/27 520/85/27 507/62/27 508/81/27
f 521/80/27 522/79/27 509/82/27 510/75/27
f 525/74/27 524/73/27 511/76/27 512/69/27
f 506/71/28 525/74/28 512/69/28 518/45/28
f 524/73/29 505/72/29 517/44/29 511/76/29
f 504/77/28 521/80/28 510/75/28 516/43/28
f 522/79/29 503/78/29 515/42/29 509/82/29
f 502/83/28 519/86/28 508/81/28 514/41/28
f 520/85/29 501/84/29 513/40/29 507/62/29
f 469/26/25 548/60/25 540/87/25 487/47/25
f 532/88/25 531/89/25 555/90/25 556/91/25
f 530/92/25 529/93/25 554/94/25 553/95/25
f 545/96/25 544/97/25 536/98/25 537/99/25
f 528/100/25 527/101/25 552/102/25 551/103/25
f 543/104/25 542/105/25 534/106/25 535/107/25
f 526/108/25 523/109/25 550/110/25 549/111/25
f 523/109/30 526/108/30 542/105/30 541/63/30
f 527/101/30 528/100/30 544/97/30 543/104/30
f 529/93/30 530/92/30 546/112/30 545/96/30
f 531/89/30 532/88/30 548/60/30 547/59/30
f 549/111/31 550/110/31 533/66/31 534/106/31
f 551/103/31 552/102/31 535/107/31 536/98/31
f 553/95/31 554/94/31 537/99/31 538/113/31
f 556/91/31 555/90/31 539/114/31 540/87/31
f 532/88/32 556/91/32 540/87/32 548/60/32
f 539/114/25 570/115/25 569/116/25 538/113/25
f 554/94/33 529/93/33 545/96/33 537/99/33
f 528/100/32 551/103/32 536/98/32 544/97/32
f 552/102/33 527/101/33 543/104/33 535/107/33
f 526/108/32 549/111/32 534/106/32 542/105/32
f 550/110/33 523/109/33 541/63/33 533/66/33
f 538/113/34 537/99/34 536/98/34 535/107/34 534/106/34 533/66/34 488/65/34 558/117/34 557/118/34 487/47/34 540/87/34 539/114/34
f 487/47/35 557/118/35 491/48/35
f 490/53/36 491/48/36 557/118/36
f 492/51/37 490/53/37 557/118/37
f 493/52/38 492/51/38 557/118/38
f 494/49/39 493/52/39 557/118/39
f 489/50/40 494/49/40 557/118/40
f 109/119/16 108/120/16 558/121/16 488/61/16
f 488/61/41 496/12/41 110/122/41 109/119/41
f 110/122/3 496/12/3 559/11/3 111/123/3
f 472/10/1 31/38/1 42/124/1 471/67/1
f 559/11/41 560/54/41 112/57/41 111/123/41
f 115/56/41 498/55/41 500/68/41 116/125/41
f 557/126/42 558/127/41 108/128/41 107/129/113
f 510/75/44 509/82/44 508/81/44 507/62/44 489/50/44 557/118/150 107/130/151 32/70/44 512/69/44 511/76/44
f 473/131/1 563/132/1 574/133/47 562/134/47 582/135/47 592/136/47 594/137/47 593/138/47 581/139/47 561/140/47 573/141/1 564/142/1 474/143/1 6/144/1 13/19/1 476/14/1 475/13/1 11/17/1 4/145/1
f 546/112/24 563/146/24 473/147/24 470/64/24 541/63/24 542/105/24 543/104/24 544/97/24 545/96/24
f 569/148/48 577/149/48 579/150/48
f 580/151/49 578/152/49 570/153/49
f 575/154/16 580/151/16 570/153/16 547/155/16
f 546/7/3 569/148/3 579/150/3 576/8/3
f 561/156/50 566/157/50 575/154/50 573/158/50
f 565/159/51 562/160/51 574/5/51 576/8/51
f 590/161/52 567/162/52 577/149/52 589/163/52
f 567/162/53 571/164/53 579/150/53 577/149/53
f 566/157/54 572/165/54 580/151/54 575/154/54
f 571/164/55 565/159/55 576/8/55 579/150/55
f 572/165/56 568/166/56 578/152/56 580/151/56
f 566/157/57 561/156/57 581/167/57 583/168/57
f 565/159/58 571/164/58 587/169/58 584/170/58
f 571/164/59 567/162/59 585/171/59 587/169/59
f 562/160/60 565/159/60 584/170/60 582/172/60
f 568/166/61 572/165/61 588/173/61 586/174/61
f 572/165/62 566/157/62 583/168/62 588/173/62
f 547/155/63 564/175/63 573/158/63 575/154/63
f 568/166/64 590/161/64 589/163/64 578/152/64
f 589/163/65 577/149/65 569/148/65 570/153/65 578/152/65
f 595/176/66 598/177/66 597/178/66
f 598/179/67 596/180/67 597/178/67
f 614/181/68 612/182/68 613/183/68 616/184/68
f 616/185/69 613/186/69 611/187/69 615/188/69
f 605/189/70 614/181/70 616/184/70 607/190/70
f 607/191/71 616/185/71 615/188/71 606/192/71
f 612/182/72 600/193/72 601/194/72 613/183/72
f 613/186/73 601/195/73 599/196/73 611/187/73
f 602/197/74 593/198/74 594/199/74 604/200/74
f 604/201/75 594/202/75 592/203/75 603/204/75
f 595/205/76 599/196/76 601/195/76 598/206/76
f 598/207/77 601/194/77 600/193/77 596/208/77
f 606/192/78 609/209/78 610/210/78 607/191/78
f 607/190/79 610/211/79 608/212/79 605/189/79
f 609/209/80 602/197/80 604/200/80 610/210/80
f 610/211/81 604/201/81 603/204/81 608/212/81
f 581/213/82 593/198/82 602/197/82 609/209/82 606/192/82 615/188/82 611/187/82 599/196/82 595/205/82 586/214/82 588/215/82 583/216/82
f 592/203/83 582/217/83 584/218/83 587/219/83 585/220/83 596/208/83 600/193/83 612/182/83 614/181/83 605/189/83 608/212/83 603/204/83
f 590/161/84 568/166/84 586/174/84 595/176/84 597/178/84
f 567/162/84 590/161/84 597/178/84 596/180/84 585/171/84
f 547/59/33 570/115/33 539/114/33 555/90/33 531/89/33
f 569/116/32 546/112/32 530/92/32 553/95/32 538/113/32
f 497/1/16 498/55/16 560/54/16 471/67/16 591/221/16
f 471/67/16 42/124/16 43/2/16 497/1/16 591/221/16
o dore
v -20.978428 7.496744 -21.189875
v -20.978428 7.496744 -22.197044
v -6.489894 7.496744 -21.861320
v -7.854734 7.496744 -22.197044
v -13.325752 7.496744 -22.197042
v -20.978428 -7.476080 -22.197044
v -20.978428 -7.476080 -21.189875
v 0.000000 -7.476080 -21.189875
v 0.000000 -7.476080 -22.197044
v -20.978428 7.496744 -21.861320
v -20.978428 7.496744 -21.525597
v -13.286337 7.496744 -21.189875
v -7.889541 7.496743 -21.189873
v 6.492808 7.496744 -22.197044
v 14.054594 7.496744 -22.197044
v -14.085619 7.496744 -21.525597
v -6.492809 7.496744 -21.525597
v -14.085619 7.496744 -21.861320
v -6.492809 7.496744 -21.861320
v -5.244607 8.496744 -21.609528
v -5.244607 8.496744 -21.777390
v -13.286338 6.496744 -21.559170
v -7.692090 6.496744 -21.559170
v -13.286338 6.496744 -21.827747
v -7.692090 6.496744 -21.827747
v -19.929506 8.496744 -21.810963
v -19.929506 8.496744 -21.575954
v -15.034540 8.496744 -21.575954
v -15.034540 8.496744 -21.810963
v 20.978428 7.496744 -21.189875
v 20.978428 7.496744 -22.197044
v 20.978428 4.523920 -22.197044
v 20.978428 4.523920 -21.189875
v 20.978428 -7.476080 -22.197044
v 20.978428 -7.476080 -21.189875
v 20.978428 7.496744 -21.861320
v 20.978428 7.496744 -21.525597
v 13.985619 7.496744 -21.189875
v 6.992809 7.496744 -21.189875
v 14.085619 7.496744 -21.525597
v 6.492810 7.496744 -21.525597
v 14.085619 7.496744 -21.861320
v 6.492810 7.496744 -21.861320
v 5.244607 8.496744 -21.609528
v 5.244607 8.496744 -21.777390
v 13.286338 6.496744 -21.559170
v 7.692090 6.496744 -21.559170
v 13.286338 6.496744 -21.827747
v 7.692090 6.496744 -21.827747
v 19.929506 8.496744 -21.810963
v 19.929506 8.496744 -21.575954
v 15.034540 8.496744 -21.575954
v 15.034540 8.496744 -21.810963
v 20.978428 -7.476080 -21.974207
v 20.978428 -7.476080 -21.423706
v -6.489059 7.499748 -21.861069
v -20.978428 -7.476080 -21.995609
v -20.978428 -7.476080 -21.441666
v 14.070106 7.496744 -21.861320
vn -1.0000 -0.0000 -0.0000
vn -0.0000 -1.0000 -0.0000
vn -0.0000 1.0000 -0.0000
vn -0.6900 0.7238 -0.0000
vn -0.6396 0.7686 -0.0105
vn -0.6323 0.7748 0.0001
vn -0.6473 0.7622 -0.0000
vn 0.7259 0.6866 -0.0416
vn 0.6966 0.7175 -0.0007
vn 0.6954 0.7187 -0.0000
vn -0.0000 -0.0000 1.0000
vn -0.0000 0.0836 0.9965
vn -0.0000 0.0336 -0.9994
vn -0.0000 0.0336 0.9994
vn -0.0000 0.0503 -0.9987
vn -0.0000 0.0503 0.9987
vn -0.0000 0.0835 -0.9965
vn -0.0000 0.0836 -0.9965
vn 1.0000 -0.0000 -0.0000
vn 0.6900 0.7238 -0.0000
vn 0.6398 0.7685 -0.0105
vn 0.6473 0.7622 -0.0000
vn 0.6473 0.7623 -0.0001
vn -0.7811 0.6244 -0.0000
vn -0.7254 0.6883 -0.0000
vn -0.0000 -0.0000 -1.0000
vn 0.6254 0.7802 0.0090
vn 0.6169 0.7870 -0.0000
vn 0.6170 0.7869 0.0003
vn -0.6250 0.7805 -0.0106
vn -0.6170 0.7869 0.0003
vn -0.6169 0.7870 -0.0000
vn 0.7791 0.6256 0.0409
vn 0.8065 0.5913 0.0005
vn 0.8075 0.5899 -0.0000
vt 0.000000 1.000000
vt 0.000000 0.799999
vt 0.000000 0.666667
vt 0.000000 0.000000
vt 0.000000 0.249999
vt 1.000000 1.000000
vt 1.000000 0.000000
vt 0.666667 0.333333
vt 0.666667 0.666667
vt 0.366667 0.000000
vt 0.333333 0.333333
vt 0.000000 0.333333
vt 0.623921 0.000000
vt 0.333333 0.666667
vt 0.333333 0.000000
vt 0.666667 0.000000
vt 0.666667 0.333333
vt 0.666667 0.333333
vt 0.000000 0.778749
vt 0.000000 0.232167
vt 0.334014 0.666667
s 0
f 618/222/152 622/222/152 673/223/152 626/224/152
f 623/225/153 674/226/153 673/223/153 622/222/153 625/227/153 624/228/153
f 636/229/154 660/229/154 661/230/154 637/230/154
f 617/225/154 628/231/154 632/232/154 627/233/154
f 628/231/154 629/234/154 633/229/154 632/232/154
f 627/233/155 643/233/155 642/224/155 626/224/155
f 633/229/156 672/230/157 635/230/158 641/230/158 639/229/158
f 632/232/159 634/235/160 645/235/161 644/232/161
f 617/225/162 623/225/162 624/228/162 651/225/162 649/225/162 646/225/162 654/236/162 655/237/162 629/234/162 628/231/162
f 629/234/154 655/237/154 657/238/154 633/229/154
f 660/239/163 636/229/163 633/229/163 657/229/163
f 638/232/154 639/229/154 641/230/154 640/235/154
f 633/229/164 639/229/164 638/232/164 632/232/164
f 634/235/165 640/235/165 641/230/165 635/230/165
f 643/233/154 644/232/154 645/235/154 642/224/154
f 626/224/166 642/224/166 645/235/166 634/235/166
f 632/232/167 644/232/167 643/233/167 627/233/167
f 635/230/168 672/230/168 619/230/168
f 619/230/169 672/230/169 637/230/169 661/230/169 659/230/169
f 648/222/170 647/222/170 652/224/170 670/240/170 650/222/170
f 651/225/153 624/228/153 625/227/153 650/222/153 670/240/153 671/241/153
f 646/225/154 653/233/154 656/232/154 654/236/154
f 654/236/154 656/232/154 657/229/154 655/237/154
f 653/233/171 652/224/171 666/224/171 667/233/171
f 657/229/172 663/229/173 665/230/173 659/230/174
f 656/232/175 668/232/176 669/235/176 658/235/176 664/235/175 662/232/175
f 662/232/154 664/235/154 665/230/154 663/229/154
f 657/229/164 656/232/164 662/232/164 663/229/164
f 658/235/165 675/242/165 659/230/165 665/230/165 664/235/165
f 667/233/154 666/224/154 669/235/154 668/232/154
f 652/224/166 658/235/166 669/235/166 666/224/166
f 656/232/167 653/233/167 667/233/167 668/232/167
f 625/227/177 622/222/177 618/222/177 621/222/177 620/222/177 630/222/177 631/222/177 647/222/177 648/222/177 650/222/177
f 635/230/154 619/230/154 620/222/154 621/222/154 634/235/154
f 626/224/152 673/223/152 674/226/152 627/233/152
f 627/233/152 674/226/152 623/225/152 617/225/152
f 670/240/170 652/224/170 653/233/170 671/241/170
f 671/241/170 653/233/170 646/225/170 649/225/170 651/225/170
f 659/230/178 661/230/179 660/229/179 657/229/180
f 634/235/154 621/222/154 618/222/154 626/224/154
f 620/222/154 619/230/154 659/230/154 630/222/154
f 630/222/154 659/230/154 675/242/154 631/222/154
f 631/222/154 675/242/154 658/235/154 652/224/154 647/222/154
f 672/230/181 633/229/182 636/229/183 637/230/183
f 634/235/184 632/232/185 638/232/186 640/235/186
o dore.001
v 20.899721 15.930285 -21.189875
v 20.899721 15.930285 -22.197044
v 6.411189 15.930287 -21.861320
v 7.776030 15.930287 -22.197044
v 13.247047 15.930286 -22.197042
v 20.899723 30.903111 -22.197044
v 20.899723 30.903111 -21.189875
v -0.078703 30.903112 -21.189875
v -0.078703 30.903112 -22.197044
v 20.899721 15.930285 -21.861320
v 20.899721 15.930285 -21.525597
v 13.207632 15.930286 -21.189875
v 7.810836 15.930288 -21.189873
v -6.571514 15.930289 -22.197044
v -14.133299 15.930290 -22.197044
v 14.006914 15.930286 -21.525597
v 6.414104 15.930287 -21.525597
v 14.006914 15.930286 -21.861320
v 6.414104 15.930287 -21.861320
v -21.057135 15.930291 -21.189875
v -21.057135 15.930291 -22.197044
v -21.057135 18.903116 -22.197044
v -21.057135 18.903116 -21.189875
v -21.057133 30.903114 -22.197044
v -21.057133 30.903114 -21.189875
v -21.057135 15.930291 -21.861320
v -21.057135 15.930291 -21.525597
v -14.064323 15.930290 -21.189875
v -7.071515 15.930289 -21.189875
v -14.164324 15.930290 -21.525597
v -6.571516 15.930289 -21.525597
v -14.164324 15.930290 -21.861320
v -6.571516 15.930289 -21.861320
v 13.247632 14.930286 -21.827747
v 7.173385 14.930287 -21.559170
v 7.173385 14.930287 -21.827747
v -21.057133 30.903114 -21.974207
v -21.057133 30.903114 -21.423706
v 13.247632 14.930286 -21.559170
v 20.899723 30.903111 -21.995609
v 20.899723 30.903111 -21.441666
v -14.148810 15.930290 -21.861320
v 20.210440 16.930285 -21.827747
v 20.210440 16.930285 -21.559170
v 14.696195 16.930286 -21.559170
v 14.696195 16.930286 -21.827747
v 5.375138 16.930286 -21.565884
v -5.013357 16.930288 -21.565884
v 5.372806 16.930286 -21.834463
v 5.375138 16.930286 -21.834463
v -5.013357 16.930288 -21.834463
v -13.252257 14.930290 -21.586027
v -7.937291 14.930289 -21.586027
v -13.241398 14.930290 -21.821033
v -7.937291 14.930289 -21.821033
v -13.252257 14.930290 -21.821033
v -20.023212 16.930290 -21.810963
v -20.023212 16.930290 -21.575954
v -15.198245 16.930290 -21.575954
v -15.198245 16.930290 -21.810963
vn 1.0000 -0.0000 -0.0000
vn -0.0000 1.0000 -0.0000
vn -0.0000 -1.0000 -0.0000
vn -0.0000 -0.0000 1.0000
vn -0.0000 -0.0403 -0.9992
vn -1.0000 -0.0000 -0.0000
vn -0.0000 -0.0336 -0.9994
vn -0.7964 -0.6047 -0.0000
vn -0.0000 -0.0336 0.9994
vn -0.8234 -0.5675 -0.0000
vn -0.0000 -0.0503 -0.9987
vn 0.7964 -0.6047 -0.0000
vn -0.0000 -0.0000 -1.0000
vn 0.8234 -0.5675 -0.0000
vn 0.5401 -0.8416 -0.0000
vn -0.0000 -0.0268 0.9996
vn -0.6935 -0.7205 -0.0000
vn 0.5908 -0.8068 -0.0000
vn -0.7388 -0.6739 -0.0000
vn -0.0000 -0.0603 0.9982
vn 0.6952 -0.7188 -0.0000
vn -0.6952 -0.7188 -0.0000
vn -0.0000 -0.0503 0.9987
vt 0.000000 1.000000
vt 0.000000 0.799999
vt 0.000000 0.666667
vt 0.000000 0.000000
vt 0.000000 0.249999
vt 1.000000 1.000000
vt 1.000000 0.000000
vt 0.366667 0.000000
vt 0.333333 0.333333
vt 0.000000 0.333333
vt 0.623921 0.000000
vt 0.666667 0.333333
vt 0.333333 0.000000
vt 0.666667 0.000000
vt 0.666667 0.333333
vt 0.000000 0.778749
vt 0.000000 0.232167
vt 0.666667 0.666667
vt 0.333333 0.666667
vt 0.334014 0.666667
s 0
f 677/243/187 681/243/187 715/244/187 685/245/187
f 682/246/188 716/247/188 715/244/188 681/243/188 684/248/188 683/249/188
f 676/246/189 687/250/189 691/251/189 686/252/189
f 687/250/189 688/253/189 692/254/189 691/251/189
f 676/246/190 682/246/190 683/249/190 700/246/190 698/246/190 695/246/190 703/255/190 704/256/190 688/253/190 687/250/190
f 688/253/189 704/256/189 706/257/189 692/254/189
f 692/254/191 706/257/191 723/257/191 722/254/191
f 697/243/192 696/243/192 701/245/192 712/258/192 699/243/192
f 700/246/188 683/249/188 684/248/188 699/243/188 712/258/188 713/259/188
f 695/246/189 702/252/189 705/251/189 703/255/189
f 703/255/189 705/251/189 706/254/189 704/256/189
f 694/260/193 693/261/193 709/261/193 711/260/193
f 692/254/194 694/260/194 711/260/194 710/254/194
f 691/251/195 692/254/195 710/254/195 714/251/195
f 685/245/196 686/252/196 719/252/196 718/245/196
f 705/251/197 702/252/197 733/252/197 734/251/197
f 717/262/191 708/260/191 730/260/191 729/262/191
f 711/260/189 709/261/189 714/251/189 710/254/189
f 693/261/198 691/251/198 714/251/198 709/261/198
f 684/248/199 681/243/199 677/243/199 680/243/199 679/243/199 689/243/199 690/243/199 696/243/199 697/243/199 699/243/199
f 694/260/189 678/260/189 679/243/189 680/243/189 693/261/189
f 685/245/187 715/244/187 716/247/187 686/252/187
f 686/252/187 716/247/187 682/246/187 676/246/187
f 712/258/192 701/245/192 702/252/192 713/259/192
f 713/259/192 702/252/192 695/246/192 698/246/192 700/246/192
f 693/261/189 680/243/189 677/243/189 685/245/189
f 679/243/189 678/260/189 708/260/189 689/243/189
f 689/243/189 708/260/189 717/262/189 690/243/189
f 690/243/189 717/262/189 707/261/189 701/245/189 696/243/189
f 720/251/189 721/261/189 718/245/189 719/252/189
f 693/261/195 685/245/195 718/245/195 721/261/195
f 691/251/200 693/261/200 721/261/200 720/251/200
f 686/252/193 691/251/193 720/251/193 719/252/193
f 722/254/189 723/257/189 726/260/189 724/260/189 725/260/189
f 706/257/201 708/260/201 726/260/201 723/257/201
f 708/260/202 678/260/202 724/260/202 726/260/202
f 678/260/202 694/260/202 725/260/202 724/260/202
f 694/260/203 692/254/203 722/254/203 725/260/203
f 730/260/189 728/257/189 727/251/189 731/261/189 729/262/189
f 708/260/204 706/257/204 728/257/204 730/260/204
f 705/251/205 707/261/205 731/261/205 727/251/205
f 706/254/206 705/251/206 727/251/206 728/254/206
f 707/261/191 717/262/191 729/262/191 731/261/191
f 735/261/189 734/251/189 733/252/189 732/245/189
f 702/252/207 701/245/207 732/245/207 733/252/207
f 707/261/208 705/251/208 734/251/208 735/261/208
f 701/245/209 707/261/209 735/261/209 732/245/209
