# Blender 4.3.2
# www.blender.org
mtllib tomogatie v2.mtl
o Cube
v -0.093161 -1.553912 0.555783
v -0.093161 -0.649523 1.734406
v -0.093161 -1.166472 1.389196
v -0.321722 -0.994829 1.236261
v -0.373090 -0.649523 1.389196
v -0.373090 -1.166472 0.555783
v -0.093161 0.595694 1.734406
v -0.093161 2.263265 0.555783
v -0.093161 1.475283 1.389196
v -0.321722 1.126195 1.236261
v -0.373090 1.475283 0.555783
v -0.373090 0.595694 1.389196
v -0.093161 -1.553912 -0.553711
v -0.093161 -0.649523 -1.732334
v -0.373090 -1.166472 -0.553711
v -0.321722 -0.994829 -1.234190
v -0.373090 -0.649523 -1.387124
v -0.093161 -1.166472 -1.387124
v -0.093161 2.263265 -0.553711
v -0.093161 0.595694 -1.732334
v -0.093161 1.475283 -1.387124
v -0.321722 1.126195 -1.234190
v -0.373090 0.595694 -1.387124
v -0.373090 1.475283 -0.553711
v 0.279499 -1.553912 0.555783
v 0.279499 -0.649523 1.734406
v 0.579975 -1.166472 0.555783
v 0.528608 -0.994829 1.236261
v 0.579975 -0.649523 1.372417
v 0.279499 -1.166472 1.389195
v 0.279499 2.263265 0.555783
v 0.279499 0.595694 1.734406
v 0.279499 1.475283 1.389196
v 0.508060 1.126195 1.221333
v 0.559428 0.595694 1.372418
v 0.559428 1.475283 0.549083
v 0.279499 -1.553912 -0.553711
v 0.279499 -0.649523 -1.732334
v 0.279499 -1.166472 -1.387124
v 0.508060 -0.994829 -1.234190
v 0.559428 -0.649523 -1.370330
v 0.559428 -1.166472 -0.553711
v 0.279499 2.263265 -0.553711
v 0.279499 0.595694 -1.732334
v 0.559428 1.475283 -0.546995
v 0.508060 1.126195 -1.219245
v 0.559428 0.595694 -1.370330
v 0.279499 1.475283 -1.387124
v -0.093161 -0.288170 -1.732334
v 0.279499 -0.288170 -1.732334
v 0.671149 0.848661 -0.771137
v 0.559428 -0.493871 -1.370330
v -0.093161 0.553463 1.734406
v 0.279499 0.553463 -1.732334
v -0.093161 0.553463 -1.732334
v 0.279499 0.553463 1.734406
v -0.093161 -0.252825 -1.732334
v 0.279499 -0.252825 -1.732334
v 0.670897 0.946355 0.908937
v 0.670871 0.946490 -0.881340
v 0.672532 -0.618655 -0.912507
v 0.694644 -0.618655 0.910901
v 0.574839 -0.338219 1.372417
v 0.694644 -0.618655 0.910901
v 0.672862 0.799646 0.740895
v 0.559428 -0.338219 -1.370330
v 0.690603 -0.471934 0.740161
v 0.570888 -0.995630 0.936958
v 0.620713 -0.719110 1.100724
v 0.569702 -0.026915 1.372417
v 0.559428 -0.026915 -1.370330
v 0.561996 0.440042 1.372417
v 0.559428 0.440042 -1.370330
v 0.641645 -0.784068 0.881122
v 0.610602 -0.903302 0.863559
v 0.645833 -0.707773 0.979359
v 0.549956 -0.930671 1.156559
v 0.545768 -1.006966 1.058323
v 0.580999 -0.811437 1.174122
v 0.564565 0.284389 1.372417
v 0.668305 -0.784068 0.881122
v 0.637262 -0.903302 0.863559
v 0.597548 -0.995630 0.936958
v 0.672494 -0.707773 0.979359
v 0.647373 -0.719110 1.100724
v 0.576616 -0.930671 1.156559
v 0.572428 -1.006966 1.058323
v 0.607660 -0.811437 1.174122
v 0.559428 1.475283 0.001044
v 0.550272 -0.995211 -0.935451
v 0.599452 -0.719528 -1.099919
v 0.620501 -0.783615 -0.880409
v 0.560712 0.517868 1.372417
v 0.589746 -0.902686 -0.862468
v 0.624521 -0.707749 -0.978764
v 0.559428 0.517868 -1.370330
v 0.279499 2.263265 0.001036
v 0.559978 -0.812054 -1.172902
v 0.525202 -1.006991 -1.056605
v 0.529223 -0.931125 -1.154960
v 0.640545 -0.783615 -0.880409
v 0.570316 -0.995211 -0.935451
v 0.619496 -0.719528 -1.099919
v 0.644565 -0.707749 -0.978764
v 0.580022 -0.812054 -1.172902
v 0.545246 -1.006991 -1.056605
v 0.609790 -0.902686 -0.862468
v 0.549267 -0.931125 -1.154960
v 0.559428 0.284389 -1.370330
v 0.569702 -1.166472 0.001036
v -0.373090 1.475283 0.001036
v 0.625861 -0.890599 -0.082016
v -0.093161 -1.553912 0.001036
v 0.279499 -1.553912 0.001036
v 0.627298 -0.894527 0.073249
v -0.093161 2.263265 0.001036
v 0.672207 0.848549 0.796909
v -0.373090 -1.166472 0.001036
v 0.642413 -0.816555 -0.002607
v 0.637268 -0.837428 -0.058022
v 0.638284 -0.840206 0.051767
v 0.610745 -0.968572 -0.006160
v 0.614875 -0.944921 -0.060534
v 0.615891 -0.947698 0.049255
v 0.645907 -0.894527 0.073249
v 0.661023 -0.816555 -0.002607
v 0.644470 -0.890599 -0.082016
v 0.655877 -0.837428 -0.058022
v 0.656893 -0.840206 0.051767
v 0.629355 -0.968572 -0.006160
v 0.633484 -0.944921 -0.060534
v 0.634500 -0.947698 0.049255
v 0.577407 -0.493871 1.372417
v 0.559428 -0.571697 -1.370330
v 0.691950 -0.520841 0.797074
v 0.578691 -0.571697 1.372417
v -0.093161 2.263265 0.278409
v 0.559428 1.475283 0.275063
v 0.279499 -1.553912 0.278409
v -0.093161 -1.553912 0.278409
v -0.373090 1.475283 0.278409
v 0.574839 -1.166472 0.278409
v 0.279499 2.263265 0.278409
v -0.373090 -1.166472 0.278410
v -0.093161 -1.553912 0.417096
v -0.373090 1.475283 0.417096
v 0.577407 -1.166472 0.417096
v 0.279499 2.263265 0.417096
v 0.674190 -0.471924 -0.739029
v -0.093161 2.263265 0.417096
v 0.559428 1.475283 0.412073
v 0.673638 -0.520834 -0.796855
v 0.279499 -1.553912 0.417096
v -0.373090 -1.166472 0.417096
v 0.673517 0.750744 0.684880
v 0.671288 0.799747 -0.716035
v 0.689257 -0.423027 0.683247
v -0.093161 -1.553912 0.486439
v -0.373090 1.475283 0.486440
v 0.578691 -1.166472 0.486439
v 0.279499 2.263265 0.486439
v -0.093161 2.263265 0.486439
v 0.559428 1.475283 0.480578
v 0.279499 -1.553912 0.486439
v -0.373090 -1.166472 0.486440
v -0.093161 -1.553912 -0.276337
v 0.279499 2.263265 -0.276337
v -0.373090 1.475283 -0.276338
v 0.564565 -1.166472 -0.276338
v -0.373090 -1.166472 -0.276337
v -0.093161 2.263265 -0.276337
v 0.279499 -1.553912 -0.276337
v 0.559428 1.475283 -0.272975
v -0.373090 -1.166472 -0.415024
v -0.093161 2.263265 -0.415024
v 0.279499 -1.553912 -0.415024
v 0.559428 1.475283 -0.409985
v 0.671427 0.750832 -0.660934
v 0.674743 -0.423014 -0.681203
v -0.093161 -1.553912 -0.415024
v 0.279499 2.263265 -0.415024
v -0.373090 1.475283 -0.415024
v 0.561996 -1.166472 -0.415024
v -0.373090 -1.166472 -0.484368
v -0.093161 2.263265 -0.484368
v 0.279499 -1.553912 -0.484368
v 0.559428 1.475283 -0.478490
v -0.093161 -1.553912 -0.484368
v 0.279499 2.263265 -0.484368
v -0.373090 1.475283 -0.484368
v 0.560712 -1.166472 -0.484368
v 0.678933 -0.423027 0.683247
v 0.663194 0.750744 0.684880
v 0.661104 0.750832 -0.660934
v 0.664420 -0.423014 -0.681203
v 0.662539 0.799646 0.740895
v 0.660965 0.799747 -0.716035
v 0.663867 -0.471924 -0.739029
v 0.680280 -0.471934 0.740161
vn -0.0000 -0.3678 -0.9299
vn 0.7740 0.2351 -0.5879
vn -0.0000 0.3653 -0.9309
vn -0.7586 0.2414 0.6052
vn -0.0000 -0.0000 1.0000
vn -0.0000 0.7266 0.6870
vn -0.0000 0.7266 -0.6870
vn -0.0000 -0.0000 -1.0000
vn -0.8858 0.3561 0.2975
vn -0.0000 0.6193 -0.7851
vn 0.8881 0.3517 -0.2959
vn 0.7802 0.0064 0.6255
vn 0.9151 0.2756 -0.2944
vn 0.7740 0.2351 0.5879
vn -0.7767 -0.0000 -0.6298
vn 0.7911 -0.0000 -0.6117
vn 0.9071 0.2876 0.3073
vn -0.7493 -0.6126 0.2517
vn -0.7767 -0.0000 0.6298
vn 0.8881 0.3517 0.2959
vn -0.7586 0.2414 -0.6052
vn -0.7090 -0.3839 0.5915
vn 0.7197 -0.3706 -0.5871
vn -0.0000 -0.5553 -0.8316
vn -0.0000 -0.5553 0.8316
vn -0.0000 -0.9068 0.4216
vn -0.7090 -0.3839 -0.5915
vn -0.8858 0.3561 -0.2975
vn -0.0000 0.7898 -0.6134
vn -0.0000 -0.7918 -0.6108
vn -0.0000 0.1490 0.9888
vn -0.0000 0.9957 0.0930
vn -0.0000 -0.7898 0.6134
vn -0.0000 -0.9068 -0.4216
vn -0.0000 -0.9957 -0.0930
vn 0.7232 -0.6396 0.2607
vn 0.9475 -0.2702 0.1711
vn 0.9471 -0.2717 0.1707
vn -0.0000 0.7918 0.6108
vn -0.0000 -0.1457 0.9893
vn -0.0000 0.1457 -0.9893
vn -0.0000 0.6223 0.7828
vn -0.0000 -0.6223 -0.7828
vn -0.0000 -0.9953 0.0968
vn -0.0000 -0.1490 -0.9888
vn -0.0000 0.9953 -0.0968
vn -0.0000 -0.6193 0.7851
vn 0.9477 -0.2704 -0.1698
vn 0.7493 -0.6126 -0.2517
vn 0.9727 0.0031 -0.2320
vn -0.0000 1.0000 -0.0000
vn -0.7493 -0.6126 -0.2517
vn 0.6925 -0.3827 0.6116
vn -0.0000 -0.9358 0.3525
vn -0.0000 0.9170 0.3989
vn -0.0000 -0.9170 -0.3989
vn -0.0000 0.9358 -0.3525
vn -0.0000 0.4113 -0.9115
vn -0.0000 -0.4113 0.9115
vn -0.0000 0.3677 0.9299
vn 0.9790 -0.2036 -0.0142
vn 0.9480 -0.2689 -0.1702
vn -0.0000 0.3653 0.9309
vn 0.9698 0.0155 0.2435
vn -0.0000 -1.0000 -0.0000
vn 0.9423 0.3348 -0.0000
vn -0.9423 0.3348 -0.0000
vn -0.8106 -0.5856 -0.0000
vn -1.0000 -0.0000 -0.0000
vn 0.9785 0.2062 -0.0000
vn 0.9999 0.0082 -0.0061
vn 0.8004 -0.5995 -0.0074
vn 0.9999 0.0146 -0.0061
vn 0.9999 0.0082 -0.0117
vn 0.9999 0.0137 -0.0061
vn 1.0000 0.0081 -0.0005
vn -0.0000 -0.0014 1.0000
vn -0.0000 0.0006 -1.0000
vn 0.9999 0.0082 -0.0109
vn 1.0000 0.0027 -0.0061
vn 1.0000 0.0081 -0.0013
vn -0.0000 0.0173 -0.9999
vn 1.0000 0.0017 -0.0061
vn -0.0000 -0.0181 0.9998
vn -0.0000 -1.0000 -0.0001
vn -0.0000 1.0000 0.0001
vt 0.234375 0.388435
vt 0.187500 0.310748
vt 0.540005 0.415005
vt 0.625000 0.415005
vt 0.613026 0.500000
vt 0.540005 0.500000
vt 0.625000 0.334995
vt 0.540005 0.334995
vt 0.625000 0.915005
vt 0.625000 0.964077
vt 0.540005 1.000000
vt 0.540005 0.915005
vt 0.537291 0.834995
vt 0.540005 0.834995
vt 0.537291 0.915005
vt 0.459995 0.915005
vt 0.459995 0.834995
vt 0.790005 0.750000
vt 0.709995 0.750000
vt 0.709995 0.665005
vt 0.790005 0.665005
vt 0.790005 0.584995
vt 0.709995 0.584995
vt 0.709995 0.500000
vt 0.790005 0.500000
vt 0.537291 0.334995
vt 0.537291 0.415005
vt 0.485484 0.415005
vt 0.483213 0.415005
vt 0.459995 0.415005
vt 0.459995 0.334995
vt 0.483213 0.334995
vt 0.485484 0.334995
vt 0.875000 0.714077
vt 0.875000 0.665005
vt 0.352497 0.413807
vt 0.266248 0.324621
vt 0.625000 0.584995
vt 0.459995 0.750000
vt 0.464996 0.750000
vt 0.469996 0.750000
vt 0.479998 0.750000
vt 0.500000 0.750000
vt 0.520002 0.750000
vt 0.530004 0.750000
vt 0.535004 0.750000
vt 0.540005 0.750000
vt 0.541586 0.583749
vt 0.625000 0.738026
vt 0.625000 0.834995
vt 0.459995 0.250000
vt 0.540005 0.250000
vt 0.459995 0.500000
vt 0.535004 0.500000
vt 0.530004 0.500000
vt 0.520002 0.500000
vt 0.500000 0.500000
vt 0.479998 0.500000
vt 0.469996 0.500000
vt 0.464996 0.500000
vt 0.480561 0.606127
vt 0.625000 0.665005
vt 0.125000 0.665005
vt 0.209995 0.665005
vt 0.209995 0.750000
vt 0.160923 0.750000
vt 0.459995 1.000000
vt 0.839077 0.500000
vt 0.410923 1.000000
vt 0.375000 0.915005
vt 0.375000 0.511974
vt 0.375000 0.415005
vt 0.375000 0.334995
vt 0.375000 0.834995
vt 0.290005 0.665005
vt 0.290005 0.750000
vt 0.375000 0.285923
vt 0.875000 0.584995
vt 0.246496 0.436877
vt 0.180747 0.312188
vt 0.367499 0.491422
vt 0.359998 0.452615
vt 0.244999 0.345870
vt 0.310000 0.456305
vt 0.267745 0.458126
vt 0.364489 0.645626
vt 0.374235 0.687188
vt 0.290005 0.584995
vt 0.209995 0.584995
vt 0.209995 0.500000
vt 0.290005 0.500000
vt 0.343240 0.624377
vt 0.375000 0.665005
vt 0.386974 0.750000
vt 0.354742 0.604063
vt 0.312245 0.561565
vt 0.179999 0.235435
vt 0.338749 0.473864
vt 0.375000 0.584995
vt 0.790005 0.604998
vt 0.790005 0.625000
vt 0.790005 0.645002
vt 0.790005 0.655004
vt 0.790005 0.660004
vt 0.709995 0.660004
vt 0.709995 0.655004
vt 0.709995 0.645002
vt 0.709995 0.625000
vt 0.709995 0.604998
vt 0.709995 0.594996
vt 0.709995 0.589996
vt 0.790005 0.589996
vt 0.790005 0.594996
vt 0.125000 0.584995
vt 0.125000 0.535923
vt 0.234375 0.392406
vt 0.234375 0.390625
vt 0.140625 0.234375
vt 0.140625 0.235443
vt 0.140625 0.233061
vt 0.187500 0.313925
vt 0.375000 0.660004
vt 0.375000 0.655004
vt 0.375000 0.645002
vt 0.375000 0.625000
vt 0.375000 0.604998
vt 0.375000 0.594996
vt 0.375000 0.589996
vt 0.591749 0.592891
vt 0.290005 0.660004
vt 0.209995 0.660004
vt 0.209995 0.655004
vt 0.209995 0.645002
vt 0.209995 0.625000
vt 0.209995 0.604998
vt 0.209995 0.594996
vt 0.209995 0.589996
vt 0.290005 0.589996
vt 0.290005 0.594996
vt 0.290005 0.604997
vt 0.290005 0.625000
vt 0.290005 0.645002
vt 0.290005 0.655004
vt 0.625000 0.660004
vt 0.625000 0.655004
vt 0.625000 0.645002
vt 0.625000 0.625000
vt 0.625000 0.604998
vt 0.625000 0.594996
vt 0.625000 0.589996
vt 0.875000 0.589996
vt 0.875000 0.594996
vt 0.875000 0.604998
vt 0.875000 0.625000
vt 0.875000 0.645002
vt 0.875000 0.655004
vt 0.875000 0.660004
vt 0.125000 0.660004
vt 0.125000 0.655004
vt 0.125000 0.645002
vt 0.125000 0.625000
vt 0.125000 0.604998
vt 0.125000 0.594996
vt 0.125000 0.589996
vt 0.489023 0.615248
vt 0.539797 0.669974
vt 0.595830 0.622328
vt 0.481791 0.611048
vt 0.510115 0.548304
vt 0.562421 0.597272
s 0
f 123/1/1 112/2/1 127/2/1 131/1/1
f 44/3/2 48/4/2 46/5/2 47/6/2
f 21/7/3 48/4/3 44/3/3 20/8/3
f 9/9/4 10/10/4 12/11/4 7/12/4
f 56/13/5 32/14/5 7/12/5 53/15/5 2/16/5 26/17/5
f 9/18/6 33/19/6 31/20/6 8/21/6
f 19/22/7 43/23/7 48/24/7 21/25/7
f 55/26/8 20/8/8 44/3/8 54/27/8 58/28/8 50/29/8 38/30/8 14/31/8 49/32/8 57/33/8
f 10/34/9 9/18/9 8/21/9 11/35/9
f 98/36/10 91/37/10 103/37/10 105/36/10
f 45/38/11 46/5/11 48/24/11 43/23/11
f 26/17/12 29/39/12 136/40/12 133/41/12 63/42/12 70/43/12 80/44/12 72/45/12 93/46/12 35/47/12 32/14/12 56/13/12
f 46/5/13 45/38/13 60/48/13 47/6/13
f 32/14/14 35/47/14 34/49/14 33/50/14
f 49/32/15 14/31/15 17/51/15 23/52/15 20/8/15 55/26/15 57/33/15
f 41/53/16 38/30/16 50/29/16 58/28/16 54/27/16 44/3/16 47/6/16 96/54/16 73/55/16 109/56/16 71/57/16 66/58/16 52/59/16 134/60/16
f 59/61/17 36/62/17 34/49/17 35/47/17
f 6/63/18 1/64/18 3/65/18 4/66/18
f 53/15/19 7/12/19 12/11/19 5/67/19 2/16/19
f 36/62/20 31/20/20 33/50/20 34/49/20
f 22/68/21 21/7/21 20/8/21 23/52/21
f 2/16/22 5/67/22 4/69/22 3/70/22
f 38/30/23 41/53/23 40/71/23 39/72/23
f 39/72/24 18/73/24 14/31/24 38/30/24
f 3/70/25 30/74/25 26/17/25 2/16/25
f 1/64/26 25/75/26 30/76/26 3/65/26
f 16/77/27 17/51/27 14/31/27 18/73/27
f 24/78/28 19/22/28 21/25/28 22/68/28
f 74/79/29 76/80/29 84/80/29 81/79/29
f 99/81/30 100/82/30 108/82/30 106/81/30
f 92/83/31 94/84/31 107/84/31 101/83/31
f 76/80/32 69/85/32 85/85/32 84/80/32
f 77/86/33 78/87/33 87/87/33 86/86/33
f 37/88/34 13/89/34 18/90/34 39/91/34
f 78/87/35 68/92/35 83/92/35 87/87/35
f 25/75/36 27/93/36 28/94/36 30/76/36
f 29/39/37 28/94/37 27/93/37 64/61/37
f 85/85/38 88/95/38 86/86/38 87/87/38 83/92/38 82/96/38 81/79/38 84/80/38
f 95/97/39 92/83/39 101/83/39 104/97/39
f 79/95/40 77/86/40 86/86/40 88/95/40
f 75/96/41 74/79/41 81/79/41 82/96/41
f 69/85/42 79/95/42 88/95/42 85/85/42
f 68/92/43 75/96/43 82/96/43 83/92/43
f 90/98/44 99/81/44 106/81/44 102/98/44
f 100/82/45 98/36/45 105/36/45 108/82/45
f 91/37/46 95/97/46 104/97/46 103/37/46
f 94/84/47 90/98/47 102/98/47 107/84/47
f 107/84/48 102/98/48 106/81/48 108/82/48 105/36/48 103/37/48 104/97/48 101/83/48
f 42/99/49 37/88/49 39/91/49 40/71/49
f 61/61/50 41/53/50 134/60/50 52/59/50 66/58/50 71/57/50 109/56/50 73/55/50 96/54/50 47/6/50 60/48/50
f 171/100/51 116/101/51 137/102/51 150/103/51 162/104/51 8/21/51 31/20/51 161/105/51 148/106/51 143/107/51 97/108/51 167/109/51 181/110/51 189/111/51 43/23/51 19/22/51 185/112/51 175/113/51
f 13/89/52 15/114/52 16/115/52 18/90/52
f 30/74/53 28/94/53 29/39/53 26/17/53
f 124/116/54 122/117/54 130/117/54 132/116/54
f 119/118/55 121/119/55 129/119/55 126/118/55
f 122/117/56 123/1/56 131/1/56 130/117/56
f 120/120/57 119/118/57 126/118/57 128/120/57
f 112/2/58 120/120/58 128/120/58 127/2/58
f 115/121/59 124/116/59 132/116/59 125/121/59
f 121/119/60 115/121/60 125/121/60 129/119/60
f 128/120/61 126/118/61 129/119/61 125/121/61 132/116/61 130/117/61 131/1/61 127/2/61
f 41/53/62 61/61/62 42/99/62 40/71/62
f 9/9/63 7/12/63 32/14/63 33/50/63
f 64/61/61 27/93/61 160/122/61 147/123/61 142/124/61 110/125/61 169/126/61 183/127/61 191/128/61 42/99/61 61/61/61
f 59/129/64 35/47/64 93/46/64 72/45/64 80/44/64 70/43/64 63/42/64 133/41/64 136/40/64 29/39/64 64/61/64
f 164/130/65 25/75/65 1/64/65 158/131/65 145/132/65 140/133/65 113/134/65 166/135/65 180/136/65 188/137/65 13/89/65 37/88/65 186/138/65 176/139/65 172/140/65 114/141/65 139/142/65 153/143/65
f 167/109/66 97/108/66 143/107/66 148/106/66 161/105/66 31/20/66 36/62/66 163/144/66 151/145/66 138/146/66 89/147/66 173/148/66 177/149/66 187/150/66 45/38/66 43/23/66 189/111/66 181/110/66
f 185/112/67 19/22/67 24/78/67 190/151/67 182/152/67 168/153/67 111/154/67 141/155/67 146/156/67 159/157/67 11/35/67 8/21/67 162/104/67 150/103/67 137/102/67 116/101/67 171/100/67 175/113/67
f 166/135/68 113/134/68 140/133/68 145/132/68 158/131/68 1/64/68 6/63/68 165/158/68 154/159/68 144/160/68 118/161/68 170/162/68 174/163/68 184/164/68 15/114/68 13/89/68 188/137/68 180/136/68
f 165/158/69 6/63/69 4/69/69 5/67/69 12/11/69 10/34/69 11/35/69 159/157/69 146/156/69 141/155/69 111/154/69 168/153/69 182/152/69 190/151/69 24/78/69 22/68/69 23/52/69 17/51/69 16/115/69 15/114/69 184/164/69 174/163/69 170/162/69 118/161/69 144/160/69 154/159/69
f 163/144/70 36/62/70 59/61/70 60/48/70 45/38/70 187/150/70 177/149/70 173/148/70 89/147/70 138/146/70 151/145/70
f 157/165/71 179/166/71 178/167/71 155/166/71
f 186/138/72 37/88/72 42/99/72 191/128/72 183/127/72 169/126/72 110/125/72 142/124/72 147/123/72 160/122/72 27/93/72 25/75/72 164/130/72 153/143/72 139/142/72 114/141/72 172/140/72 176/139/72
f 117/61/73 59/129/73 64/61/73 135/61/73 67/61/73 65/61/73
f 135/61/74 64/61/74 61/61/74 152/61/74 149/61/74 67/61/74
f 192/165/75 193/166/75 196/61/75 199/61/75
f 51/168/76 60/48/76 59/61/76 117/61/76 65/61/76 156/61/76
f 157/165/77 155/166/77 193/166/77 192/165/77
f 179/166/65 157/165/65 192/165/65 195/166/65
f 65/61/78 67/61/78 199/61/78 196/61/78
f 67/61/51 149/61/51 198/61/51 199/61/51
f 192/165/79 199/61/79 198/61/79 195/166/79
f 195/166/80 198/61/80 197/169/80 194/170/80
f 194/170/81 197/169/81 196/61/81 193/166/81
f 178/167/82 179/166/82 195/166/82 194/170/82
f 61/61/83 60/48/83 51/168/83 156/61/83 149/61/83 152/61/83
f 149/61/84 156/61/84 197/169/84 198/61/84
f 156/61/85 65/61/85 196/61/85 197/169/85
f 155/166/86 178/167/86 194/170/86 193/166/86
l 62 64
l 29 62
l 62 61
